STARTFONT 2.1
FONT -Deviation--15-150-75-75
SIZE 15 75 75
FONTBOUNDINGBOX 15 15 0 -3
STARTPROPERTIES 8
FONT_NAME "Deviation"
FONT_ASCENT 12
FONT_DESCENT 3
PIXEL_SIZE 15
POINT_SIZE 150
RESOLUTION_X 75
RESOLUTION_Y 75
RESOLUTION 75
ENDPROPERTIES
CHARS 15796
STARTCHAR uni0020
ENCODING 32
SWIDTH 500 0
DWIDTH 6 0
BBX 4 0 0 0
BITMAP
ENDCHAR
STARTCHAR uni0021
ENCODING 33
SWIDTH 500 0
DWIDTH 6 0
BBX 1 11 0 0
BITMAP
80
80
80
80
80
80
80
00
00
80
80
ENDCHAR
STARTCHAR uni0022
ENCODING 34
SWIDTH 500 0
DWIDTH 6 0
BBX 4 4 0 8
BITMAP
90
90
90
90
ENDCHAR
STARTCHAR uni0023
ENCODING 35
SWIDTH 500 0
DWIDTH 6 0
BBX 7 11 0 0
BITMAP
24
24
24
FE
24
48
48
FE
48
48
48
ENDCHAR
STARTCHAR uni0024
ENCODING 36
SWIDTH 500 0
DWIDTH 6 0
BBX 5 14 0 -2
BITMAP
20
20
78
80
80
80
60
10
08
08
08
F0
20
20
ENDCHAR
STARTCHAR uni0025
ENCODING 37
SWIDTH 500 0
DWIDTH 6 0
BBX 8 11 0 0
BITMAP
62
94
94
98
98
76
19
19
29
29
46
ENDCHAR
STARTCHAR uni0026
ENCODING 38
SWIDTH 500 0
DWIDTH 6 0
BBX 6 11 0 0
BITMAP
60
50
50
50
20
64
94
9C
88
8C
74
ENDCHAR
STARTCHAR uni0027
ENCODING 39
SWIDTH 500 0
DWIDTH 6 0
BBX 1 4 0 8
BITMAP
80
80
80
80
ENDCHAR
STARTCHAR uni0028
ENCODING 40
SWIDTH 500 0
DWIDTH 6 0
BBX 3 15 0 -3
BITMAP
20
40
40
40
80
80
80
80
80
80
80
40
40
40
20
ENDCHAR
STARTCHAR uni0029
ENCODING 41
SWIDTH 500 0
DWIDTH 6 0
BBX 3 15 0 -3
BITMAP
80
40
40
40
20
20
20
20
20
20
20
40
40
40
80
ENDCHAR
STARTCHAR uni002A
ENCODING 42
SWIDTH 500 0
DWIDTH 6 0
BBX 6 6 0 5
BITMAP
20
EC
30
50
58
00
ENDCHAR
STARTCHAR uni002B
ENCODING 43
SWIDTH 500 0
DWIDTH 6 0
BBX 5 5 0 2
BITMAP
20
20
F8
20
20
ENDCHAR
STARTCHAR uni002C
ENCODING 44
SWIDTH 500 0
DWIDTH 6 0
BBX 2 4 0 -2
BITMAP
40
40
40
80
ENDCHAR
STARTCHAR uni002D
ENCODING 45
SWIDTH 500 0
DWIDTH 6 0
BBX 3 1 0 4
BITMAP
E0
ENDCHAR
STARTCHAR uni002E
ENCODING 46
SWIDTH 500 0
DWIDTH 6 0
BBX 1 2 0 0
BITMAP
80
80
ENDCHAR
STARTCHAR uni002F
ENCODING 47
SWIDTH 500 0
DWIDTH 6 0
BBX 5 15 0 -3
BITMAP
08
08
10
10
10
10
20
20
20
40
40
40
40
80
80
ENDCHAR
STARTCHAR uni0030
ENCODING 48
SWIDTH 500 0
DWIDTH 6 0
BBX 5 11 0 0
BITMAP
70
88
88
88
88
88
88
88
88
88
70
ENDCHAR
STARTCHAR uni0031
ENCODING 49
SWIDTH 500 0
DWIDTH 6 0
BBX 3 11 0 0
BITMAP
20
60
A0
20
20
20
20
20
20
20
20
ENDCHAR
STARTCHAR uni0032
ENCODING 50
SWIDTH 500 0
DWIDTH 6 0
BBX 5 11 0 0
BITMAP
70
88
08
08
10
10
20
40
80
80
F8
ENDCHAR
STARTCHAR uni0033
ENCODING 51
SWIDTH 500 0
DWIDTH 6 0
BBX 5 11 0 0
BITMAP
F0
08
08
08
08
70
08
08
08
08
F0
ENDCHAR
STARTCHAR uni0034
ENCODING 52
SWIDTH 500 0
DWIDTH 6 0
BBX 6 11 0 0
BITMAP
08
18
28
28
48
48
88
FC
08
08
08
ENDCHAR
STARTCHAR uni0035
ENCODING 53
SWIDTH 500 0
DWIDTH 6 0
BBX 5 11 0 0
BITMAP
78
40
40
40
70
08
08
08
08
08
F0
ENDCHAR
STARTCHAR uni0036
ENCODING 54
SWIDTH 500 0
DWIDTH 6 0
BBX 5 11 0 0
BITMAP
30
40
40
80
F0
88
88
88
88
88
70
ENDCHAR
STARTCHAR uni0037
ENCODING 55
SWIDTH 500 0
DWIDTH 6 0
BBX 5 11 0 0
BITMAP
F8
08
10
10
20
20
20
20
40
40
40
ENDCHAR
STARTCHAR uni0038
ENCODING 56
SWIDTH 500 0
DWIDTH 6 0
BBX 5 11 0 0
BITMAP
70
88
88
88
50
70
88
88
88
88
70
ENDCHAR
STARTCHAR uni0039
ENCODING 57
SWIDTH 500 0
DWIDTH 6 0
BBX 5 11 0 0
BITMAP
70
88
88
88
88
88
78
08
10
20
C0
ENDCHAR
STARTCHAR uni003A
ENCODING 58
SWIDTH 500 0
DWIDTH 6 0
BBX 1 9 0 0
BITMAP
80
80
00
00
00
00
00
80
80
ENDCHAR
STARTCHAR uni003B
ENCODING 59
SWIDTH 500 0
DWIDTH 6 0
BBX 2 11 0 -2
BITMAP
40
40
00
00
00
00
00
40
40
40
80
ENDCHAR
STARTCHAR uni003C
ENCODING 60
SWIDTH 500 0
DWIDTH 6 0
BBX 5 7 0 1
BITMAP
08
30
40
80
40
30
08
ENDCHAR
STARTCHAR uni003D
ENCODING 61
SWIDTH 500 0
DWIDTH 6 0
BBX 5 4 0 3
BITMAP
F8
00
00
F8
ENDCHAR
STARTCHAR uni003E
ENCODING 62
SWIDTH 500 0
DWIDTH 6 0
BBX 5 7 0 1
BITMAP
80
60
10
08
10
60
80
ENDCHAR
STARTCHAR uni003F
ENCODING 63
SWIDTH 500 0
DWIDTH 6 0
BBX 4 11 0 0
BITMAP
60
90
10
10
20
40
40
00
00
40
40
ENDCHAR
STARTCHAR uni0040
ENCODING 64
SWIDTH 500 0
DWIDTH 6 0
BBX 11 13 0 -2
BITMAP
1F00
2080
4040
8F20
9120
9120
9120
9120
9120
8EC0
4000
2000
1F00
ENDCHAR
STARTCHAR uni0041
ENCODING 65
SWIDTH 500 0
DWIDTH 6 0
BBX 7 11 0 0
BITMAP
10
10
28
28
28
44
44
7C
44
82
82
ENDCHAR
STARTCHAR uni0042
ENCODING 66
SWIDTH 500 0
DWIDTH 6 0
BBX 6 11 0 0
BITMAP
F0
88
84
84
84
F8
84
84
84
88
F0
ENDCHAR
STARTCHAR uni0043
ENCODING 67
SWIDTH 500 0
DWIDTH 6 0
BBX 6 11 0 0
BITMAP
3C
40
80
80
80
80
80
80
80
40
3C
ENDCHAR
STARTCHAR uni0044
ENCODING 68
SWIDTH 500 0
DWIDTH 6 0
BBX 7 11 0 0
BITMAP
F8
84
82
82
82
82
82
82
82
84
F8
ENDCHAR
STARTCHAR uni0045
ENCODING 69
SWIDTH 500 0
DWIDTH 6 0
BBX 5 11 0 0
BITMAP
F8
80
80
80
80
F0
80
80
80
80
F8
ENDCHAR
STARTCHAR uni0046
ENCODING 70
SWIDTH 500 0
DWIDTH 6 0
BBX 5 11 0 0
BITMAP
F8
80
80
80
80
F8
80
80
80
80
80
ENDCHAR
STARTCHAR uni0047
ENCODING 71
SWIDTH 500 0
DWIDTH 6 0
BBX 6 11 0 0
BITMAP
3C
40
80
80
80
80
84
84
84
44
3C
ENDCHAR
STARTCHAR uni0048
ENCODING 72
SWIDTH 500 0
DWIDTH 6 0
BBX 7 11 0 0
BITMAP
82
82
82
82
82
FE
82
82
82
82
82
ENDCHAR
STARTCHAR uni0049
ENCODING 73
SWIDTH 500 0
DWIDTH 6 0
BBX 1 11 0 0
BITMAP
80
80
80
80
80
80
80
80
80
80
80
ENDCHAR
STARTCHAR uni004A
ENCODING 74
SWIDTH 500 0
DWIDTH 6 0
BBX 5 11 0 0
BITMAP
08
08
08
08
08
08
08
08
08
08
F0
ENDCHAR
STARTCHAR uni004B
ENCODING 75
SWIDTH 500 0
DWIDTH 6 0
BBX 6 11 0 0
BITMAP
84
88
90
A0
A0
C0
A0
A0
90
88
84
ENDCHAR
STARTCHAR uni004C
ENCODING 76
SWIDTH 500 0
DWIDTH 6 0
BBX 5 11 0 0
BITMAP
80
80
80
80
80
80
80
80
80
80
F8
ENDCHAR
STARTCHAR uni004D
ENCODING 77
SWIDTH 500 0
DWIDTH 6 0
BBX 10 11 0 0
BITMAP
4080
4080
A140
A140
9240
9240
8C40
8C40
8840
8040
8040
ENDCHAR
STARTCHAR uni004E
ENCODING 78
SWIDTH 500 0
DWIDTH 6 0
BBX 7 11 0 0
BITMAP
82
82
C2
A2
92
92
8A
8A
86
82
82
ENDCHAR
STARTCHAR uni004F
ENCODING 79
SWIDTH 500 0
DWIDTH 6 0
BBX 8 11 0 0
BITMAP
3C
42
81
81
81
81
81
81
81
42
3C
ENDCHAR
STARTCHAR uni0050
ENCODING 80
SWIDTH 500 0
DWIDTH 6 0
BBX 6 11 0 0
BITMAP
F0
88
84
84
84
88
F0
80
80
80
80
ENDCHAR
STARTCHAR uni0051
ENCODING 81
SWIDTH 500 0
DWIDTH 6 0
BBX 8 14 0 -3
BITMAP
3C
42
81
81
81
81
81
81
81
42
3C
08
04
02
ENDCHAR
STARTCHAR uni0052
ENCODING 82
SWIDTH 500 0
DWIDTH 6 0
BBX 6 11 0 0
BITMAP
E0
90
88
88
88
90
F0
90
88
88
84
ENDCHAR
STARTCHAR uni0053
ENCODING 83
SWIDTH 500 0
DWIDTH 6 0
BBX 4 11 0 0
BITMAP
70
80
80
80
40
20
10
10
10
10
E0
ENDCHAR
STARTCHAR uni0054
ENCODING 84
SWIDTH 500 0
DWIDTH 6 0
BBX 5 11 0 0
BITMAP
F8
20
20
20
20
20
20
20
20
20
20
ENDCHAR
STARTCHAR uni0055
ENCODING 85
SWIDTH 500 0
DWIDTH 6 0
BBX 7 11 0 0
BITMAP
82
82
82
82
82
82
82
82
82
44
38
ENDCHAR
STARTCHAR uni0056
ENCODING 86
SWIDTH 500 0
DWIDTH 6 0
BBX 7 11 0 0
BITMAP
82
82
44
44
44
44
28
28
28
38
10
ENDCHAR
STARTCHAR uni0057
ENCODING 87
SWIDTH 500 0
DWIDTH 6 0
BBX 11 11 0 0
BITMAP
8020
8420
8420
8A20
4A40
4A40
5140
5140
5140
2080
2080
ENDCHAR
STARTCHAR uni0058
ENCODING 88
SWIDTH 500 0
DWIDTH 6 0
BBX 7 11 0 0
BITMAP
82
44
44
28
28
10
28
28
44
44
82
ENDCHAR
STARTCHAR uni0059
ENCODING 89
SWIDTH 500 0
DWIDTH 6 0
BBX 7 11 0 0
BITMAP
82
44
44
44
28
28
10
10
10
10
10
ENDCHAR
STARTCHAR uni005A
ENCODING 90
SWIDTH 500 0
DWIDTH 6 0
BBX 5 11 0 0
BITMAP
F8
08
10
10
20
20
60
40
40
80
F8
ENDCHAR
STARTCHAR uni005B
ENCODING 91
SWIDTH 500 0
DWIDTH 6 0
BBX 2 15 0 -3
BITMAP
C0
80
80
80
80
80
80
80
80
80
80
80
80
80
C0
ENDCHAR
STARTCHAR uni005C
ENCODING 92
SWIDTH 500 0
DWIDTH 6 0
BBX 5 15 0 -3
BITMAP
80
80
40
40
40
40
20
20
20
10
10
10
10
08
08
ENDCHAR
STARTCHAR uni005D
ENCODING 93
SWIDTH 500 0
DWIDTH 6 0
BBX 2 15 0 -3
BITMAP
C0
40
40
40
40
40
40
40
40
40
40
40
40
40
C0
ENDCHAR
STARTCHAR uni005E
ENCODING 94
SWIDTH 500 0
DWIDTH 6 0
BBX 5 6 0 5
BITMAP
20
50
50
50
88
88
ENDCHAR
STARTCHAR uni005F
ENCODING 95
SWIDTH 500 0
DWIDTH 6 0
BBX 6 1 0 -3
BITMAP
FC
ENDCHAR
STARTCHAR uni0060
ENCODING 96
SWIDTH 500 0
DWIDTH 6 0
BBX 3 3 0 9
BITMAP
80
40
20
ENDCHAR
STARTCHAR uni0061
ENCODING 97
SWIDTH 500 0
DWIDTH 6 0
BBX 5 8 0 0
BITMAP
70
08
08
78
88
88
88
78
ENDCHAR
STARTCHAR uni0062
ENCODING 98
SWIDTH 500 0
DWIDTH 6 0
BBX 5 12 0 0
BITMAP
80
80
80
80
F0
88
88
88
88
88
88
F0
ENDCHAR
STARTCHAR uni0063
ENCODING 99
SWIDTH 500 0
DWIDTH 6 0
BBX 5 8 0 0
BITMAP
38
40
80
80
80
80
40
38
ENDCHAR
STARTCHAR uni0064
ENCODING 100
SWIDTH 500 0
DWIDTH 6 0
BBX 5 12 0 0
BITMAP
08
08
08
08
78
88
88
88
88
88
88
78
ENDCHAR
STARTCHAR uni0065
ENCODING 101
SWIDTH 500 0
DWIDTH 6 0
BBX 5 8 0 0
BITMAP
70
88
88
F8
80
80
80
78
ENDCHAR
STARTCHAR uni0066
ENCODING 102
SWIDTH 500 0
DWIDTH 6 0
BBX 4 12 0 0
BITMAP
70
80
80
80
F0
80
80
80
80
80
80
80
ENDCHAR
STARTCHAR uni0067
ENCODING 103
SWIDTH 500 0
DWIDTH 6 0
BBX 5 11 0 -3
BITMAP
78
88
88
88
88
88
88
78
08
08
70
ENDCHAR
STARTCHAR uni0068
ENCODING 104
SWIDTH 500 0
DWIDTH 6 0
BBX 6 12 0 0
BITMAP
80
80
80
80
F8
84
84
84
84
84
84
84
ENDCHAR
STARTCHAR uni0069
ENCODING 105
SWIDTH 500 0
DWIDTH 6 0
BBX 1 11 0 0
BITMAP
80
80
00
80
80
80
80
80
80
80
80
ENDCHAR
STARTCHAR uni006A
ENCODING 106
SWIDTH 500 0
DWIDTH 6 0
BBX 3 14 0 -3
BITMAP
20
20
00
20
20
20
20
20
20
20
20
20
20
C0
ENDCHAR
STARTCHAR uni006B
ENCODING 107
SWIDTH 500 0
DWIDTH 6 0
BBX 5 12 0 0
BITMAP
80
80
80
80
88
90
A0
C0
A0
A0
90
88
ENDCHAR
STARTCHAR uni006C
ENCODING 108
SWIDTH 500 0
DWIDTH 6 0
BBX 2 12 0 0
BITMAP
80
80
80
80
80
80
80
80
80
80
80
C0
ENDCHAR
STARTCHAR uni006D
ENCODING 109
SWIDTH 500 0
DWIDTH 6 0
BBX 9 8 0 0
BITMAP
FF00
8880
8880
8880
8880
8880
8880
8880
ENDCHAR
STARTCHAR uni006E
ENCODING 110
SWIDTH 500 0
DWIDTH 6 0
BBX 6 8 0 0
BITMAP
F8
84
84
84
84
84
84
84
ENDCHAR
STARTCHAR uni006F
ENCODING 111
SWIDTH 500 0
DWIDTH 6 0
BBX 5 8 0 0
BITMAP
70
88
88
88
88
88
88
70
ENDCHAR
STARTCHAR uni0070
ENCODING 112
SWIDTH 500 0
DWIDTH 6 0
BBX 5 11 0 -3
BITMAP
F0
88
88
88
88
88
88
F0
80
80
80
ENDCHAR
STARTCHAR uni0071
ENCODING 113
SWIDTH 500 0
DWIDTH 6 0
BBX 5 11 0 -3
BITMAP
78
88
88
88
88
88
88
78
08
08
08
ENDCHAR
STARTCHAR uni0072
ENCODING 114
SWIDTH 500 0
DWIDTH 6 0
BBX 3 8 0 0
BITMAP
E0
80
80
80
80
80
80
80
ENDCHAR
STARTCHAR uni0073
ENCODING 115
SWIDTH 500 0
DWIDTH 6 0
BBX 3 8 0 0
BITMAP
60
80
80
40
20
20
20
C0
ENDCHAR
STARTCHAR uni0074
ENCODING 116
SWIDTH 500 0
DWIDTH 6 0
BBX 3 11 0 0
BITMAP
80
80
80
E0
80
80
80
80
80
80
60
ENDCHAR
STARTCHAR uni0075
ENCODING 117
SWIDTH 500 0
DWIDTH 6 0
BBX 6 8 0 0
BITMAP
84
84
84
84
84
84
84
7C
ENDCHAR
STARTCHAR uni0076
ENCODING 118
SWIDTH 500 0
DWIDTH 6 0
BBX 6 8 0 0
BITMAP
84
84
48
48
48
30
30
30
ENDCHAR
STARTCHAR uni0077
ENCODING 119
SWIDTH 500 0
DWIDTH 6 0
BBX 9 8 0 0
BITMAP
8880
8880
5500
5500
5500
5500
2200
2200
ENDCHAR
STARTCHAR uni0078
ENCODING 120
SWIDTH 500 0
DWIDTH 6 0
BBX 5 8 0 0
BITMAP
88
50
50
20
20
50
50
88
ENDCHAR
STARTCHAR uni0079
ENCODING 121
SWIDTH 500 0
DWIDTH 6 0
BBX 5 11 0 -3
BITMAP
88
88
98
50
50
50
50
20
20
20
C0
ENDCHAR
STARTCHAR uni007A
ENCODING 122
SWIDTH 500 0
DWIDTH 6 0
BBX 4 8 0 0
BITMAP
F0
10
20
20
40
40
80
F0
ENDCHAR
STARTCHAR uni007B
ENCODING 123
SWIDTH 500 0
DWIDTH 6 0
BBX 3 15 0 -3
BITMAP
20
40
40
40
40
40
40
80
40
40
40
40
40
40
20
ENDCHAR
STARTCHAR uni007C
ENCODING 124
SWIDTH 500 0
DWIDTH 6 0
BBX 1 15 0 -3
BITMAP
80
80
80
80
80
80
80
80
80
80
80
80
80
80
80
ENDCHAR
STARTCHAR uni007D
ENCODING 125
SWIDTH 500 0
DWIDTH 6 0
BBX 3 15 0 -3
BITMAP
80
40
40
40
40
40
40
20
40
40
40
40
40
40
80
ENDCHAR
STARTCHAR uni007E
ENCODING 126
SWIDTH 500 0
DWIDTH 6 0
BBX 6 2 0 4
BITMAP
64
98
ENDCHAR
STARTCHAR uni00A1
ENCODING 161
SWIDTH 500 0
DWIDTH 6 0
BBX 1 11 0 -3
BITMAP
80
80
00
00
80
80
80
80
80
80
80
ENDCHAR
STARTCHAR uni00A2
ENCODING 162
SWIDTH 500 0
DWIDTH 6 0
BBX 5 13 0 -2
BITMAP
20
20
38
40
80
80
80
80
80
40
38
20
20
ENDCHAR
STARTCHAR uni00A3
ENCODING 163
SWIDTH 500 0
DWIDTH 6 0
BBX 5 11 0 0
BITMAP
38
40
40
40
40
F0
40
40
40
40
78
ENDCHAR
STARTCHAR uni00A4
ENCODING 164
SWIDTH 500 0
DWIDTH 6 0
BBX 7 8 0 2
BITMAP
82
7C
44
44
44
44
7C
82
ENDCHAR
STARTCHAR uni00A5
ENCODING 165
SWIDTH 500 0
DWIDTH 6 0
BBX 7 11 0 0
BITMAP
82
44
44
28
28
7C
10
10
7C
10
10
ENDCHAR
STARTCHAR uni00A6
ENCODING 166
SWIDTH 500 0
DWIDTH 6 0
BBX 1 15 0 -3
BITMAP
80
80
80
80
80
80
00
00
00
80
80
80
80
80
80
ENDCHAR
STARTCHAR uni00A7
ENCODING 167
SWIDTH 500 0
DWIDTH 6 0
BBX 4 13 0 -2
BITMAP
70
80
80
40
E0
90
90
90
70
20
10
10
E0
ENDCHAR
STARTCHAR uni00A8
ENCODING 168
SWIDTH 500 0
DWIDTH 6 0
BBX 3 2 0 10
BITMAP
A0
A0
ENDCHAR
STARTCHAR uni00A9
ENCODING 169
SWIDTH 500 0
DWIDTH 6 0
BBX 9 11 0 0
BITMAP
1C00
2200
4100
9C80
A080
A080
A080
9C80
4100
2200
1C00
ENDCHAR
STARTCHAR uni00AA
ENCODING 170
SWIDTH 500 0
DWIDTH 6 0
BBX 3 6 0 5
BITMAP
C0
20
60
A0
A0
60
ENDCHAR
STARTCHAR uni00AB
ENCODING 171
SWIDTH 500 0
DWIDTH 6 0
BBX 7 7 0 1
BITMAP
12
24
48
90
48
24
12
ENDCHAR
STARTCHAR uni00AC
ENCODING 172
SWIDTH 500 0
DWIDTH 6 0
BBX 6 4 0 2
BITMAP
FC
04
04
04
ENDCHAR
STARTCHAR uni00AD
ENCODING 173
SWIDTH 500 0
DWIDTH 6 0
BBX 3 1 0 4
BITMAP
E0
ENDCHAR
STARTCHAR uni00AE
ENCODING 174
SWIDTH 500 0
DWIDTH 6 0
BBX 9 11 0 0
BITMAP
1C00
2200
4100
9880
9480
9880
9880
9480
4100
2200
1C00
ENDCHAR
STARTCHAR uni00AF
ENCODING 175
SWIDTH 500 0
DWIDTH 6 0
BBX 3 1 0 10
BITMAP
E0
ENDCHAR
STARTCHAR uni00B0
ENCODING 176
SWIDTH 500 0
DWIDTH 6 0
BBX 4 4 0 8
BITMAP
60
90
90
60
ENDCHAR
STARTCHAR uni00B1
ENCODING 177
SWIDTH 500 0
DWIDTH 6 0
BBX 5 7 0 0
BITMAP
20
20
F8
20
20
00
F8
ENDCHAR
STARTCHAR uni00B2
ENCODING 178
SWIDTH 500 0
DWIDTH 6 0
BBX 2 6 0 5
BITMAP
80
40
40
40
80
C0
ENDCHAR
STARTCHAR uni00B3
ENCODING 179
SWIDTH 500 0
DWIDTH 6 0
BBX 3 6 0 5
BITMAP
C0
20
40
20
20
C0
ENDCHAR
STARTCHAR uni00B4
ENCODING 180
SWIDTH 500 0
DWIDTH 6 0
BBX 3 3 0 9
BITMAP
20
40
80
ENDCHAR
STARTCHAR uni00B5
ENCODING 181
SWIDTH 500 0
DWIDTH 6 0
BBX 6 11 0 -3
BITMAP
84
84
84
84
84
84
C4
BC
80
80
80
ENDCHAR
STARTCHAR uni00B6
ENCODING 182
SWIDTH 500 0
DWIDTH 6 0
BBX 5 14 0 -3
BITMAP
78
E8
E8
E8
E8
E8
68
28
28
28
28
28
28
28
ENDCHAR
STARTCHAR uni00B7
ENCODING 183
SWIDTH 500 0
DWIDTH 6 0
BBX 1 2 0 4
BITMAP
80
80
ENDCHAR
STARTCHAR uni00B8
ENCODING 184
SWIDTH 500 0
DWIDTH 6 0
BBX 3 3 0 -3
BITMAP
40
20
C0
ENDCHAR
STARTCHAR uni00B9
ENCODING 185
SWIDTH 500 0
DWIDTH 6 0
BBX 2 6 0 5
BITMAP
40
C0
40
40
40
40
ENDCHAR
STARTCHAR uni00BA
ENCODING 186
SWIDTH 500 0
DWIDTH 6 0
BBX 4 6 0 5
BITMAP
60
90
90
90
90
60
ENDCHAR
STARTCHAR uni00BB
ENCODING 187
SWIDTH 500 0
DWIDTH 6 0
BBX 5 7 0 1
BITMAP
A0
50
50
28
50
50
A0
ENDCHAR
STARTCHAR uni00BC
ENCODING 188
SWIDTH 500 0
DWIDTH 6 0
BBX 9 11 0 0
BITMAP
4100
C200
4200
4400
4400
4900
0B00
0D00
1780
1100
2100
ENDCHAR
STARTCHAR uni00BD
ENCODING 189
SWIDTH 500 0
DWIDTH 6 0
BBX 9 11 0 0
BITMAP
4200
C400
4400
4800
4800
5100
1080
1080
2080
2100
4180
ENDCHAR
STARTCHAR uni00BE
ENCODING 190
SWIDTH 500 0
DWIDTH 6 0
BBX 11 11 0 0
BITMAP
C080
2100
4100
2200
2200
C440
04C0
0540
09E0
0840
1040
ENDCHAR
STARTCHAR uni00BF
ENCODING 191
SWIDTH 500 0
DWIDTH 6 0
BBX 4 12 0 -3
BITMAP
20
20
00
00
20
20
20
40
80
80
90
70
ENDCHAR
STARTCHAR uni00C0
ENCODING 192
SWIDTH 500 0
DWIDTH 6 0
BBX 5 11 0 0
BITMAP
40
20
00
20
50
50
50
50
F0
88
88
ENDCHAR
STARTCHAR uni00C1
ENCODING 193
SWIDTH 500 0
DWIDTH 6 0
BBX 5 11 0 0
BITMAP
10
20
00
20
50
50
50
50
F0
88
88
ENDCHAR
STARTCHAR uni00C2
ENCODING 194
SWIDTH 500 0
DWIDTH 6 0
BBX 7 12 0 0
BITMAP
10
28
00
10
28
28
28
44
44
7C
82
82
ENDCHAR
STARTCHAR uni00C3
ENCODING 195
SWIDTH 500 0
DWIDTH 6 0
BBX 7 12 0 0
BITMAP
28
38
00
10
28
28
28
44
44
7C
82
82
ENDCHAR
STARTCHAR uni00C4
ENCODING 196
SWIDTH 500 0
DWIDTH 6 0
BBX 7 11 0 0
BITMAP
28
00
10
28
28
28
44
44
7C
82
82
ENDCHAR
STARTCHAR uni00C5
ENCODING 197
SWIDTH 500 0
DWIDTH 6 0
BBX 7 12 0 0
BITMAP
10
28
10
38
28
28
44
44
7C
44
82
82
ENDCHAR
STARTCHAR uni00C6
ENCODING 198
SWIDTH 500 0
DWIDTH 6 0
BBX 11 11 0 0
BITMAP
07E0
0600
0A00
0A00
1200
33C0
2200
7E00
4200
4200
83E0
ENDCHAR
STARTCHAR uni00C7
ENCODING 199
SWIDTH 500 0
DWIDTH 6 0
BBX 6 14 0 -3
BITMAP
38
44
80
80
80
80
80
80
80
44
38
10
08
30
ENDCHAR
STARTCHAR uni00C8
ENCODING 200
SWIDTH 500 0
DWIDTH 6 0
BBX 3 11 0 0
BITMAP
80
40
00
E0
80
80
E0
80
80
80
E0
ENDCHAR
STARTCHAR uni00C9
ENCODING 201
SWIDTH 500 0
DWIDTH 6 0
BBX 3 11 0 0
BITMAP
20
40
00
E0
80
80
E0
80
80
80
E0
ENDCHAR
STARTCHAR uni00CA
ENCODING 202
SWIDTH 500 0
DWIDTH 6 0
BBX 4 12 0 0
BITMAP
40
A0
00
F0
80
80
80
F0
80
80
80
F0
ENDCHAR
STARTCHAR uni00CB
ENCODING 203
SWIDTH 500 0
DWIDTH 6 0
BBX 4 11 0 0
BITMAP
A0
00
F0
80
80
80
F0
80
80
80
F0
ENDCHAR
STARTCHAR uni00CC
ENCODING 204
SWIDTH 500 0
DWIDTH 6 0
BBX 2 11 0 0
BITMAP
80
40
00
40
40
40
40
40
40
40
40
ENDCHAR
STARTCHAR uni00CD
ENCODING 205
SWIDTH 500 0
DWIDTH 6 0
BBX 2 11 0 0
BITMAP
40
80
00
80
80
80
80
80
80
80
80
ENDCHAR
STARTCHAR uni00CE
ENCODING 206
SWIDTH 500 0
DWIDTH 6 0
BBX 3 12 0 0
BITMAP
40
A0
00
40
40
40
40
40
40
40
40
40
ENDCHAR
STARTCHAR uni00CF
ENCODING 207
SWIDTH 500 0
DWIDTH 6 0
BBX 3 11 0 0
BITMAP
A0
00
40
40
40
40
40
40
40
40
40
ENDCHAR
STARTCHAR uni00D0
ENCODING 208
SWIDTH 500 0
DWIDTH 6 0
BBX 8 11 0 0
BITMAP
7C
42
42
41
41
F1
41
41
42
42
7C
ENDCHAR
STARTCHAR uni00D1
ENCODING 209
SWIDTH 500 0
DWIDTH 6 0
BBX 6 12 0 0
BITMAP
28
38
00
84
C4
A4
A4
94
94
8C
8C
84
ENDCHAR
STARTCHAR uni00D2
ENCODING 210
SWIDTH 500 0
DWIDTH 6 0
BBX 5 11 0 0
BITMAP
40
20
00
70
88
88
88
88
88
88
70
ENDCHAR
STARTCHAR uni00D3
ENCODING 211
SWIDTH 500 0
DWIDTH 6 0
BBX 5 11 0 0
BITMAP
10
20
00
70
88
88
88
88
88
88
70
ENDCHAR
STARTCHAR uni00D4
ENCODING 212
SWIDTH 500 0
DWIDTH 6 0
BBX 6 12 0 0
BITMAP
20
50
00
30
48
84
84
84
84
84
48
30
ENDCHAR
STARTCHAR uni00D5
ENCODING 213
SWIDTH 500 0
DWIDTH 6 0
BBX 6 12 0 0
BITMAP
28
38
00
30
48
84
84
84
84
84
48
30
ENDCHAR
STARTCHAR uni00D6
ENCODING 214
SWIDTH 500 0
DWIDTH 6 0
BBX 6 11 0 0
BITMAP
50
00
30
48
84
84
84
84
84
48
30
ENDCHAR
STARTCHAR uni00D7
ENCODING 215
SWIDTH 500 0
DWIDTH 6 0
BBX 5 5 0 2
BITMAP
88
50
20
50
88
ENDCHAR
STARTCHAR uni00D8
ENCODING 216
SWIDTH 500 0
DWIDTH 6 0
BBX 8 11 0 0
BITMAP
3D
42
43
85
89
99
91
A1
C1
42
BC
ENDCHAR
STARTCHAR uni00D9
ENCODING 217
SWIDTH 500 0
DWIDTH 6 0
BBX 5 11 0 0
BITMAP
40
20
00
88
88
88
88
88
88
88
70
ENDCHAR
STARTCHAR uni00DA
ENCODING 218
SWIDTH 500 0
DWIDTH 6 0
BBX 5 11 0 0
BITMAP
10
20
00
88
88
88
88
88
88
88
70
ENDCHAR
STARTCHAR uni00DB
ENCODING 219
SWIDTH 500 0
DWIDTH 6 0
BBX 5 12 0 0
BITMAP
20
50
00
88
88
88
88
88
88
88
88
70
ENDCHAR
STARTCHAR uni00DC
ENCODING 220
SWIDTH 500 0
DWIDTH 6 0
BBX 5 11 0 0
BITMAP
50
00
88
88
88
88
88
88
88
88
70
ENDCHAR
STARTCHAR uni00DD
ENCODING 221
SWIDTH 500 0
DWIDTH 6 0
BBX 5 11 0 0
BITMAP
10
20
00
88
50
50
50
20
20
20
20
ENDCHAR
STARTCHAR uni00DE
ENCODING 222
SWIDTH 500 0
DWIDTH 6 0
BBX 6 11 0 0
BITMAP
80
80
F0
88
84
84
84
88
F0
80
80
ENDCHAR
STARTCHAR uni00DF
ENCODING 223
SWIDTH 500 0
DWIDTH 6 0
BBX 6 12 0 0
BITMAP
70
88
88
88
90
90
90
88
84
84
84
B8
ENDCHAR
STARTCHAR uni00E0
ENCODING 224
SWIDTH 500 0
DWIDTH 6 0
BBX 5 12 0 0
BITMAP
40
20
10
00
70
08
08
78
88
88
88
78
ENDCHAR
STARTCHAR uni00E1
ENCODING 225
SWIDTH 500 0
DWIDTH 6 0
BBX 5 12 0 0
BITMAP
08
10
20
00
70
08
08
78
88
88
88
78
ENDCHAR
STARTCHAR uni00E2
ENCODING 226
SWIDTH 500 0
DWIDTH 6 0
BBX 5 12 0 0
BITMAP
20
20
50
00
70
08
08
78
88
88
88
78
ENDCHAR
STARTCHAR uni00E3
ENCODING 227
SWIDTH 500 0
DWIDTH 6 0
BBX 5 12 0 0
BITMAP
28
50
00
00
70
08
08
78
88
88
88
78
ENDCHAR
STARTCHAR uni00E4
ENCODING 228
SWIDTH 500 0
DWIDTH 6 0
BBX 5 12 0 0
BITMAP
50
50
00
00
70
08
08
78
88
88
88
78
ENDCHAR
STARTCHAR uni00E5
ENCODING 229
SWIDTH 500 0
DWIDTH 6 0
BBX 5 12 0 0
BITMAP
20
50
20
00
70
08
08
78
88
88
88
78
ENDCHAR
STARTCHAR uni00E6
ENCODING 230
SWIDTH 500 0
DWIDTH 6 0
BBX 10 8 0 0
BITMAP
7700
0880
0880
7F80
8800
8800
8800
7F80
ENDCHAR
STARTCHAR uni00E7
ENCODING 231
SWIDTH 500 0
DWIDTH 6 0
BBX 4 11 0 -3
BITMAP
70
C0
80
80
80
80
40
70
20
10
60
ENDCHAR
STARTCHAR uni00E8
ENCODING 232
SWIDTH 500 0
DWIDTH 6 0
BBX 5 12 0 0
BITMAP
40
20
10
00
70
88
88
F8
80
80
80
78
ENDCHAR
STARTCHAR uni00E9
ENCODING 233
SWIDTH 500 0
DWIDTH 6 0
BBX 5 12 0 0
BITMAP
08
10
20
00
70
88
88
F8
80
80
80
78
ENDCHAR
STARTCHAR uni00EA
ENCODING 234
SWIDTH 500 0
DWIDTH 6 0
BBX 5 12 0 0
BITMAP
20
20
50
00
70
88
88
F8
80
80
80
78
ENDCHAR
STARTCHAR uni00EB
ENCODING 235
SWIDTH 500 0
DWIDTH 6 0
BBX 5 12 0 0
BITMAP
50
50
00
00
70
88
88
F8
80
80
80
78
ENDCHAR
STARTCHAR uni00EC
ENCODING 236
SWIDTH 500 0
DWIDTH 6 0
BBX 3 12 0 0
BITMAP
80
40
20
00
40
40
40
40
40
40
40
40
ENDCHAR
STARTCHAR uni00ED
ENCODING 237
SWIDTH 500 0
DWIDTH 6 0
BBX 3 12 0 0
BITMAP
20
40
80
00
40
40
40
40
40
40
40
40
ENDCHAR
STARTCHAR uni00EE
ENCODING 238
SWIDTH 500 0
DWIDTH 6 0
BBX 3 12 0 0
BITMAP
40
40
A0
00
40
40
40
40
40
40
40
40
ENDCHAR
STARTCHAR uni00EF
ENCODING 239
SWIDTH 500 0
DWIDTH 6 0
BBX 3 12 0 0
BITMAP
A0
A0
00
00
40
40
40
40
40
40
40
40
ENDCHAR
STARTCHAR uni00F0
ENCODING 240
SWIDTH 500 0
DWIDTH 6 0
BBX 6 12 0 0
BITMAP
20
1C
30
08
78
88
88
88
88
88
88
70
ENDCHAR
STARTCHAR uni00F1
ENCODING 241
SWIDTH 500 0
DWIDTH 6 0
BBX 6 12 0 0
BITMAP
28
50
00
00
F8
84
84
84
84
84
84
84
ENDCHAR
STARTCHAR uni00F2
ENCODING 242
SWIDTH 500 0
DWIDTH 6 0
BBX 5 12 0 0
BITMAP
40
20
10
00
70
88
88
88
88
88
88
70
ENDCHAR
STARTCHAR uni00F3
ENCODING 243
SWIDTH 500 0
DWIDTH 6 0
BBX 5 12 0 0
BITMAP
10
20
40
00
70
88
88
88
88
88
88
70
ENDCHAR
STARTCHAR uni00F4
ENCODING 244
SWIDTH 500 0
DWIDTH 6 0
BBX 5 12 0 0
BITMAP
20
20
50
00
70
88
88
88
88
88
88
70
ENDCHAR
STARTCHAR uni00F5
ENCODING 245
SWIDTH 500 0
DWIDTH 6 0
BBX 5 12 0 0
BITMAP
28
50
00
00
70
88
88
88
88
88
88
70
ENDCHAR
STARTCHAR uni00F6
ENCODING 246
SWIDTH 500 0
DWIDTH 6 0
BBX 5 12 0 0
BITMAP
50
50
00
00
70
88
88
88
88
88
88
70
ENDCHAR
STARTCHAR uni00F7
ENCODING 247
SWIDTH 500 0
DWIDTH 6 0
BBX 6 7 0 1
BITMAP
30
30
00
FC
00
30
30
ENDCHAR
STARTCHAR uni00F8
ENCODING 248
SWIDTH 500 0
DWIDTH 6 0
BBX 5 8 0 0
BITMAP
78
98
98
A8
A8
C8
C8
F0
ENDCHAR
STARTCHAR uni00F9
ENCODING 249
SWIDTH 500 0
DWIDTH 6 0
BBX 6 12 0 0
BITMAP
40
20
10
00
84
84
84
84
84
84
84
7C
ENDCHAR
STARTCHAR uni00FA
ENCODING 250
SWIDTH 500 0
DWIDTH 6 0
BBX 6 12 0 0
BITMAP
08
10
20
00
84
84
84
84
84
84
84
7C
ENDCHAR
STARTCHAR uni00FB
ENCODING 251
SWIDTH 500 0
DWIDTH 6 0
BBX 6 12 0 0
BITMAP
10
10
28
00
84
84
84
84
84
84
84
7C
ENDCHAR
STARTCHAR uni00FC
ENCODING 252
SWIDTH 500 0
DWIDTH 6 0
BBX 6 12 0 0
BITMAP
28
28
00
00
84
84
84
84
84
84
84
7C
ENDCHAR
STARTCHAR uni00FD
ENCODING 253
SWIDTH 500 0
DWIDTH 6 0
BBX 5 15 0 -3
BITMAP
08
10
20
00
88
88
98
50
50
50
50
20
20
20
C0
ENDCHAR
STARTCHAR uni00FE
ENCODING 254
SWIDTH 500 0
DWIDTH 6 0
BBX 5 15 0 -3
BITMAP
80
80
80
80
F0
88
88
88
88
88
88
F0
80
80
80
ENDCHAR
STARTCHAR uni00FF
ENCODING 255
SWIDTH 500 0
DWIDTH 6 0
BBX 5 15 0 -3
BITMAP
50
50
00
00
88
88
98
50
50
50
50
20
20
20
C0
ENDCHAR
STARTCHAR uni0100
ENCODING 256
SWIDTH 500 0
DWIDTH 6 0
BBX 7 12 0 0
BITMAP
38
00
10
28
28
28
44
44
7C
44
82
82
ENDCHAR
STARTCHAR uni0101
ENCODING 257
SWIDTH 500 0
DWIDTH 6 0
BBX 5 11 0 0
BITMAP
70
00
00
70
08
08
78
88
88
88
78
ENDCHAR
STARTCHAR uni0102
ENCODING 258
SWIDTH 500 0
DWIDTH 6 0
BBX 7 12 0 0
BITMAP
28
38
00
10
28
28
28
44
44
7C
82
82
ENDCHAR
STARTCHAR uni0103
ENCODING 259
SWIDTH 500 0
DWIDTH 6 0
BBX 5 12 0 0
BITMAP
48
30
00
00
70
08
08
78
88
88
88
78
ENDCHAR
STARTCHAR uni0104
ENCODING 260
SWIDTH 500 0
DWIDTH 6 0
BBX 8 14 0 -3
BITMAP
10
38
28
28
24
44
46
7E
42
83
81
02
02
03
ENDCHAR
STARTCHAR uni0105
ENCODING 261
SWIDTH 500 0
DWIDTH 6 0
BBX 5 11 0 -3
BITMAP
70
08
08
78
88
88
88
78
10
10
08
ENDCHAR
STARTCHAR uni0106
ENCODING 262
SWIDTH 500 0
DWIDTH 6 0
BBX 4 11 0 0
BITMAP
10
20
00
70
80
80
80
80
80
80
70
ENDCHAR
STARTCHAR uni0107
ENCODING 263
SWIDTH 500 0
DWIDTH 6 0
BBX 5 12 0 0
BITMAP
08
10
20
00
38
40
80
80
80
80
40
38
ENDCHAR
STARTCHAR uni0108
ENCODING 264
SWIDTH 500 0
DWIDTH 6 0
BBX 4 12 0 0
BITMAP
20
50
00
70
80
80
80
80
80
80
80
70
ENDCHAR
STARTCHAR uni0109
ENCODING 265
SWIDTH 500 0
DWIDTH 6 0
BBX 5 12 0 0
BITMAP
20
20
50
00
38
40
80
80
80
80
40
38
ENDCHAR
STARTCHAR uni010A
ENCODING 266
SWIDTH 500 0
DWIDTH 6 0
BBX 4 11 0 0
BITMAP
20
00
70
80
80
80
80
80
80
80
70
ENDCHAR
STARTCHAR uni010B
ENCODING 267
SWIDTH 500 0
DWIDTH 6 0
BBX 5 12 0 0
BITMAP
30
30
00
00
38
40
80
80
80
80
40
38
ENDCHAR
STARTCHAR uni010C
ENCODING 268
SWIDTH 500 0
DWIDTH 6 0
BBX 4 12 0 0
BITMAP
50
20
00
70
80
80
80
80
80
80
80
70
ENDCHAR
STARTCHAR uni010D
ENCODING 269
SWIDTH 500 0
DWIDTH 6 0
BBX 5 12 0 0
BITMAP
50
20
20
00
38
40
80
80
80
80
40
38
ENDCHAR
STARTCHAR uni0112
ENCODING 274
SWIDTH 500 0
DWIDTH 6 0
BBX 4 12 0 0
BITMAP
E0
00
F0
80
80
80
E0
80
80
80
80
F0
ENDCHAR
STARTCHAR uni0113
ENCODING 275
SWIDTH 500 0
DWIDTH 6 0
BBX 5 11 0 0
BITMAP
70
00
00
70
88
88
F8
80
80
80
78
ENDCHAR
STARTCHAR uni012A
ENCODING 298
SWIDTH 500 0
DWIDTH 6 0
BBX 3 12 0 0
BITMAP
E0
00
40
40
40
40
40
40
40
40
40
40
ENDCHAR
STARTCHAR uni012B
ENCODING 299
SWIDTH 500 0
DWIDTH 6 0
BBX 3 11 0 0
BITMAP
E0
00
00
40
40
40
40
40
40
40
40
ENDCHAR
STARTCHAR uni0132
ENCODING 306
SWIDTH 500 0
DWIDTH 6 0
BBX 8 11 0 0
BITMAP
81
81
81
81
81
81
81
81
81
81
9E
ENDCHAR
STARTCHAR uni0133
ENCODING 307
SWIDTH 500 0
DWIDTH 6 0
BBX 5 14 0 -3
BITMAP
88
88
00
88
88
88
88
88
88
88
88
08
08
30
ENDCHAR
STARTCHAR uni014C
ENCODING 332
SWIDTH 500 0
DWIDTH 6 0
BBX 6 12 0 0
BITMAP
70
00
30
48
84
84
84
84
84
84
48
30
ENDCHAR
STARTCHAR uni014D
ENCODING 333
SWIDTH 500 0
DWIDTH 6 0
BBX 5 11 0 0
BITMAP
70
00
00
70
88
88
88
88
88
88
70
ENDCHAR
STARTCHAR uni0150
ENCODING 336
SWIDTH 500 0
DWIDTH 6 0
BBX 5 11 0 0
BITMAP
28
50
00
70
88
88
88
88
88
88
70
ENDCHAR
STARTCHAR uni0151
ENCODING 337
SWIDTH 500 0
DWIDTH 6 0
BBX 5 12 0 0
BITMAP
28
50
A0
00
70
88
88
88
88
88
88
70
ENDCHAR
STARTCHAR uni0152
ENCODING 338
SWIDTH 500 0
DWIDTH 6 0
BBX 10 11 0 0
BITMAP
3FC0
4400
8400
8400
8400
8780
8400
8400
8400
4400
3FC0
ENDCHAR
STARTCHAR uni0153
ENCODING 339
SWIDTH 500 0
DWIDTH 6 0
BBX 9 8 0 0
BITMAP
7700
8880
8880
8F80
8800
8800
8800
7780
ENDCHAR
STARTCHAR uni0160
ENCODING 352
SWIDTH 500 0
DWIDTH 6 0
BBX 3 12 0 0
BITMAP
A0
40
00
60
80
80
80
40
20
20
20
C0
ENDCHAR
STARTCHAR uni0161
ENCODING 353
SWIDTH 500 0
DWIDTH 6 0
BBX 3 12 0 0
BITMAP
A0
40
40
00
60
80
80
40
20
20
20
C0
ENDCHAR
STARTCHAR uni016A
ENCODING 362
SWIDTH 500 0
DWIDTH 6 0
BBX 6 12 0 0
BITMAP
70
00
84
84
84
84
84
84
84
84
84
78
ENDCHAR
STARTCHAR uni016B
ENCODING 363
SWIDTH 500 0
DWIDTH 6 0
BBX 6 11 0 0
BITMAP
38
00
00
84
84
84
84
84
84
84
7C
ENDCHAR
STARTCHAR uni0170
ENCODING 368
SWIDTH 500 0
DWIDTH 6 0
BBX 5 11 0 0
BITMAP
28
50
00
88
88
88
88
88
88
88
70
ENDCHAR
STARTCHAR uni0171
ENCODING 369
SWIDTH 500 0
DWIDTH 6 0
BBX 6 12 0 0
BITMAP
14
28
50
00
84
84
84
84
84
84
84
7C
ENDCHAR
STARTCHAR uni0174
ENCODING 372
SWIDTH 500 0
DWIDTH 6 0
BBX 8 12 0 0
BITMAP
10
28
00
81
89
89
89
95
95
A5
A5
42
ENDCHAR
STARTCHAR uni0175
ENCODING 373
SWIDTH 500 0
DWIDTH 6 0
BBX 9 12 0 0
BITMAP
0800
0800
1400
0000
8880
8880
5500
5500
5500
5500
2200
2200
ENDCHAR
STARTCHAR uni0176
ENCODING 374
SWIDTH 500 0
DWIDTH 6 0
BBX 5 12 0 0
BITMAP
20
50
00
88
88
50
50
20
20
20
20
20
ENDCHAR
STARTCHAR uni0177
ENCODING 375
SWIDTH 500 0
DWIDTH 6 0
BBX 5 15 0 -3
BITMAP
20
20
50
00
88
88
98
50
50
50
50
20
20
20
C0
ENDCHAR
STARTCHAR uni017D
ENCODING 381
SWIDTH 500 0
DWIDTH 6 0
BBX 5 12 0 0
BITMAP
50
20
00
F8
08
10
20
20
40
40
80
F8
ENDCHAR
STARTCHAR uni017E
ENCODING 382
SWIDTH 500 0
DWIDTH 6 0
BBX 4 12 0 0
BITMAP
50
20
20
00
F0
10
20
20
40
40
80
F0
ENDCHAR
STARTCHAR uni0218
ENCODING 536
SWIDTH 500 0
DWIDTH 6 0
BBX 4 14 0 -3
BITMAP
70
80
80
80
40
20
10
10
10
10
E0
00
20
60
ENDCHAR
STARTCHAR uni0219
ENCODING 537
SWIDTH 500 0
DWIDTH 6 0
BBX 3 11 0 -3
BITMAP
60
80
80
40
20
20
20
C0
00
40
C0
ENDCHAR
STARTCHAR uni021A
ENCODING 538
SWIDTH 500 0
DWIDTH 6 0
BBX 5 14 0 -3
BITMAP
F8
20
20
20
20
20
20
20
20
20
20
00
20
60
ENDCHAR
STARTCHAR uni021B
ENCODING 539
SWIDTH 500 0
DWIDTH 6 0
BBX 3 14 0 -3
BITMAP
80
80
80
E0
80
80
80
80
80
80
60
00
40
C0
ENDCHAR
STARTCHAR uni0400
ENCODING 1024
SWIDTH 500 0
DWIDTH 6 0
BBX 3 11 0 0
BITMAP
80
40
00
E0
80
80
E0
80
80
80
E0
ENDCHAR
STARTCHAR uni0401
ENCODING 1025
SWIDTH 500 0
DWIDTH 6 0
BBX 4 11 0 0
BITMAP
A0
00
F0
80
80
80
F0
80
80
80
F0
ENDCHAR
STARTCHAR uni0402
ENCODING 1026
SWIDTH 500 0
DWIDTH 6 0
BBX 8 11 0 0
BITMAP
F8
20
20
20
3C
22
21
21
21
21
26
ENDCHAR
STARTCHAR uni0403
ENCODING 1027
SWIDTH 500 0
DWIDTH 6 0
BBX 3 11 0 0
BITMAP
20
40
00
E0
80
80
80
80
80
80
80
ENDCHAR
STARTCHAR uni0404
ENCODING 1028
SWIDTH 500 0
DWIDTH 6 0
BBX 6 11 0 0
BITMAP
38
44
80
80
80
F0
80
80
80
44
38
ENDCHAR
STARTCHAR uni0405
ENCODING 1029
SWIDTH 500 0
DWIDTH 6 0
BBX 4 11 0 0
BITMAP
70
80
80
80
40
20
10
10
10
10
E0
ENDCHAR
STARTCHAR uni0406
ENCODING 1030
SWIDTH 500 0
DWIDTH 6 0
BBX 1 11 0 0
BITMAP
80
80
80
80
80
80
80
80
80
80
80
ENDCHAR
STARTCHAR uni0407
ENCODING 1031
SWIDTH 500 0
DWIDTH 6 0
BBX 3 11 0 0
BITMAP
A0
00
40
40
40
40
40
40
40
40
40
ENDCHAR
STARTCHAR uni0408
ENCODING 1032
SWIDTH 500 0
DWIDTH 6 0
BBX 5 11 0 0
BITMAP
08
08
08
08
08
08
08
08
08
08
F0
ENDCHAR
STARTCHAR uni0409
ENCODING 1033
SWIDTH 500 0
DWIDTH 6 0
BBX 12 11 0 0
BITMAP
1E00
1200
1200
1200
13C0
1220
1210
1210
2210
2220
C3C0
ENDCHAR
STARTCHAR uni040A
ENCODING 1034
SWIDTH 500 0
DWIDTH 6 0
BBX 11 11 0 0
BITMAP
8400
8400
8400
8400
FF80
8440
8420
8420
8420
8440
8780
ENDCHAR
STARTCHAR uni040B
ENCODING 1035
SWIDTH 500 0
DWIDTH 6 0
BBX 9 11 0 0
BITMAP
FC00
2000
2000
2000
3E00
2100
2080
2080
2080
2080
2080
ENDCHAR
STARTCHAR uni040C
ENCODING 1036
SWIDTH 500 0
DWIDTH 6 0
BBX 4 11 0 0
BITMAP
20
40
00
90
A0
A0
C0
C0
A0
A0
90
ENDCHAR
STARTCHAR uni040D
ENCODING 1037
SWIDTH 500 0
DWIDTH 6 0
BBX 5 11 0 0
BITMAP
40
20
00
88
98
98
A8
A8
C8
88
88
ENDCHAR
STARTCHAR uni040E
ENCODING 1038
SWIDTH 500 0
DWIDTH 6 0
BBX 5 12 0 0
BITMAP
48
30
00
88
88
50
50
50
30
20
20
C0
ENDCHAR
STARTCHAR uni040F
ENCODING 1039
SWIDTH 500 0
DWIDTH 6 0
BBX 7 14 0 -3
BITMAP
82
82
82
82
82
82
82
82
82
82
FE
10
10
10
ENDCHAR
STARTCHAR uni0410
ENCODING 1040
SWIDTH 500 0
DWIDTH 6 0
BBX 7 11 0 0
BITMAP
10
10
28
28
28
44
44
7C
44
82
82
ENDCHAR
STARTCHAR uni0411
ENCODING 1041
SWIDTH 500 0
DWIDTH 6 0
BBX 6 11 0 0
BITMAP
F8
80
80
80
F0
88
84
84
84
88
F0
ENDCHAR
STARTCHAR uni0412
ENCODING 1042
SWIDTH 500 0
DWIDTH 6 0
BBX 6 11 0 0
BITMAP
F0
88
84
84
84
F8
84
84
84
88
F0
ENDCHAR
STARTCHAR uni0413
ENCODING 1043
SWIDTH 500 0
DWIDTH 6 0
BBX 5 11 0 0
BITMAP
F8
80
80
80
80
80
80
80
80
80
80
ENDCHAR
STARTCHAR uni0414
ENCODING 1044
SWIDTH 500 0
DWIDTH 6 0
BBX 8 14 0 -3
BITMAP
1E
12
12
12
12
12
12
22
22
42
FF
81
81
81
ENDCHAR
STARTCHAR uni0415
ENCODING 1045
SWIDTH 500 0
DWIDTH 6 0
BBX 5 11 0 0
BITMAP
F8
80
80
80
80
F0
80
80
80
80
F8
ENDCHAR
STARTCHAR uni0416
ENCODING 1046
SWIDTH 500 0
DWIDTH 6 0
BBX 9 11 0 0
BITMAP
8880
4900
4900
2A00
1C00
1C00
3C00
2A00
4900
4900
8880
ENDCHAR
STARTCHAR uni0417
ENCODING 1047
SWIDTH 500 0
DWIDTH 6 0
BBX 6 11 0 0
BITMAP
F0
08
04
04
08
78
08
04
04
88
70
ENDCHAR
STARTCHAR uni0418
ENCODING 1048
SWIDTH 500 0
DWIDTH 6 0
BBX 7 11 0 0
BITMAP
82
86
86
8A
9A
92
A2
A2
C2
82
82
ENDCHAR
STARTCHAR uni0419
ENCODING 1049
SWIDTH 500 0
DWIDTH 6 0
BBX 6 12 0 0
BITMAP
48
30
00
84
8C
8C
94
A4
A4
C4
84
84
ENDCHAR
STARTCHAR uni041A
ENCODING 1050
SWIDTH 500 0
DWIDTH 6 0
BBX 6 11 0 0
BITMAP
84
88
90
A0
A0
C0
A0
A0
90
88
84
ENDCHAR
STARTCHAR uni041B
ENCODING 1051
SWIDTH 500 0
DWIDTH 6 0
BBX 8 11 0 0
BITMAP
1F
11
11
11
11
11
11
11
21
21
C1
ENDCHAR
STARTCHAR uni041C
ENCODING 1052
SWIDTH 500 0
DWIDTH 6 0
BBX 10 11 0 0
BITMAP
4080
4080
A140
A140
9240
9240
8C40
8C40
8840
8040
8040
ENDCHAR
STARTCHAR uni041D
ENCODING 1053
SWIDTH 500 0
DWIDTH 6 0
BBX 7 11 0 0
BITMAP
82
82
82
82
82
FE
82
82
82
82
82
ENDCHAR
STARTCHAR uni041E
ENCODING 1054
SWIDTH 500 0
DWIDTH 6 0
BBX 8 11 0 0
BITMAP
3C
42
81
81
81
81
81
81
81
42
3C
ENDCHAR
STARTCHAR uni041F
ENCODING 1055
SWIDTH 500 0
DWIDTH 6 0
BBX 7 11 0 0
BITMAP
FE
82
82
82
82
82
82
82
82
82
82
ENDCHAR
STARTCHAR uni0420
ENCODING 1056
SWIDTH 500 0
DWIDTH 6 0
BBX 6 11 0 0
BITMAP
F0
88
84
84
84
88
F0
80
80
80
80
ENDCHAR
STARTCHAR uni0421
ENCODING 1057
SWIDTH 500 0
DWIDTH 6 0
BBX 6 11 0 0
BITMAP
3C
40
80
80
80
80
80
80
80
40
3C
ENDCHAR
STARTCHAR uni0422
ENCODING 1058
SWIDTH 500 0
DWIDTH 6 0
BBX 5 11 0 0
BITMAP
F8
20
20
20
20
20
20
20
20
20
20
ENDCHAR
STARTCHAR uni0423
ENCODING 1059
SWIDTH 500 0
DWIDTH 6 0
BBX 7 11 0 0
BITMAP
82
42
44
44
28
28
18
10
10
20
C0
ENDCHAR
STARTCHAR uni0424
ENCODING 1060
SWIDTH 500 0
DWIDTH 6 0
BBX 8 12 0 0
BITMAP
08
3C
4A
89
89
89
89
89
89
4A
3C
08
ENDCHAR
STARTCHAR uni0425
ENCODING 1061
SWIDTH 500 0
DWIDTH 6 0
BBX 7 11 0 0
BITMAP
82
44
44
28
28
10
28
28
44
44
82
ENDCHAR
STARTCHAR uni0426
ENCODING 1062
SWIDTH 500 0
DWIDTH 6 0
BBX 7 14 0 -3
BITMAP
84
84
84
84
84
84
84
84
84
84
FE
02
02
02
ENDCHAR
STARTCHAR uni0427
ENCODING 1063
SWIDTH 500 0
DWIDTH 6 0
BBX 6 11 0 0
BITMAP
84
84
84
84
84
84
7C
04
04
04
04
ENDCHAR
STARTCHAR uni0428
ENCODING 1064
SWIDTH 500 0
DWIDTH 6 0
BBX 10 11 0 0
BITMAP
8440
8440
8440
8440
8440
8440
8440
8440
8440
8440
FFC0
ENDCHAR
STARTCHAR uni0429
ENCODING 1065
SWIDTH 500 0
DWIDTH 6 0
BBX 11 14 0 -3
BITMAP
8440
8440
8440
8440
8440
8440
8440
8440
8440
8440
FFE0
0020
0020
0020
ENDCHAR
STARTCHAR uni042A
ENCODING 1066
SWIDTH 500 0
DWIDTH 6 0
BBX 8 11 0 0
BITMAP
E0
20
20
20
3C
22
21
21
21
22
3C
ENDCHAR
STARTCHAR uni042B
ENCODING 1067
SWIDTH 500 0
DWIDTH 6 0
BBX 9 11 0 0
BITMAP
8080
8080
8080
8080
F080
8880
8480
8480
8480
8880
F080
ENDCHAR
STARTCHAR uni042C
ENCODING 1068
SWIDTH 500 0
DWIDTH 6 0
BBX 6 11 0 0
BITMAP
80
80
80
80
F0
88
84
84
84
88
F0
ENDCHAR
STARTCHAR uni042D
ENCODING 1069
SWIDTH 500 0
DWIDTH 6 0
BBX 7 11 0 0
BITMAP
F8
04
02
02
02
3E
02
02
02
84
78
ENDCHAR
STARTCHAR uni042E
ENCODING 1070
SWIDTH 500 0
DWIDTH 6 0
BBX 11 11 0 0
BITMAP
8780
8840
8820
9020
9020
F020
9020
9020
9020
8840
8780
ENDCHAR
STARTCHAR uni042F
ENCODING 1071
SWIDTH 500 0
DWIDTH 6 0
BBX 7 11 0 0
BITMAP
1E
22
42
42
42
22
1E
12
22
42
82
ENDCHAR
STARTCHAR uni0430
ENCODING 1072
SWIDTH 500 0
DWIDTH 6 0
BBX 5 8 0 0
BITMAP
70
08
08
78
88
88
88
78
ENDCHAR
STARTCHAR uni0431
ENCODING 1073
SWIDTH 500 0
DWIDTH 6 0
BBX 6 12 0 0
BITMAP
1C
20
40
80
F8
84
84
84
84
84
44
78
ENDCHAR
STARTCHAR uni0432
ENCODING 1074
SWIDTH 500 0
DWIDTH 6 0
BBX 5 8 0 0
BITMAP
F0
88
88
F0
88
88
88
F0
ENDCHAR
STARTCHAR uni0433
ENCODING 1075
SWIDTH 500 0
DWIDTH 6 0
BBX 3 8 0 0
BITMAP
E0
80
80
80
80
80
80
80
ENDCHAR
STARTCHAR uni0434
ENCODING 1076
SWIDTH 500 0
DWIDTH 6 0
BBX 7 10 0 -2
BITMAP
3C
24
24
24
24
24
44
FE
82
82
ENDCHAR
STARTCHAR uni0435
ENCODING 1077
SWIDTH 500 0
DWIDTH 6 0
BBX 5 8 0 0
BITMAP
70
88
88
F8
80
80
80
78
ENDCHAR
STARTCHAR uni0436
ENCODING 1078
SWIDTH 500 0
DWIDTH 6 0
BBX 8 8 0 0
BITMAP
91
52
34
38
34
54
52
91
ENDCHAR
STARTCHAR uni0437
ENCODING 1079
SWIDTH 500 0
DWIDTH 6 0
BBX 5 8 0 0
BITMAP
F0
08
08
70
08
08
08
F0
ENDCHAR
STARTCHAR uni0438
ENCODING 1080
SWIDTH 500 0
DWIDTH 6 0
BBX 6 8 0 0
BITMAP
84
8C
8C
94
A4
A4
C4
C4
ENDCHAR
STARTCHAR uni0439
ENCODING 1081
SWIDTH 500 0
DWIDTH 6 0
BBX 6 12 0 0
BITMAP
48
30
00
00
84
8C
8C
94
A4
A4
C4
C4
ENDCHAR
STARTCHAR uni043A
ENCODING 1082
SWIDTH 500 0
DWIDTH 6 0
BBX 5 8 0 0
BITMAP
88
90
A0
C0
A0
A0
90
88
ENDCHAR
STARTCHAR uni043B
ENCODING 1083
SWIDTH 500 0
DWIDTH 6 0
BBX 7 8 0 0
BITMAP
3E
22
22
22
22
22
42
82
ENDCHAR
STARTCHAR uni043C
ENCODING 1084
SWIDTH 500 0
DWIDTH 6 0
BBX 8 8 0 0
BITMAP
C3
C3
A5
A5
99
99
99
81
ENDCHAR
STARTCHAR uni043D
ENCODING 1085
SWIDTH 500 0
DWIDTH 6 0
BBX 6 8 0 0
BITMAP
84
84
84
FC
84
84
84
84
ENDCHAR
STARTCHAR uni043E
ENCODING 1086
SWIDTH 500 0
DWIDTH 6 0
BBX 5 8 0 0
BITMAP
70
88
88
88
88
88
88
70
ENDCHAR
STARTCHAR uni043F
ENCODING 1087
SWIDTH 500 0
DWIDTH 6 0
BBX 6 8 0 0
BITMAP
FC
84
84
84
84
84
84
84
ENDCHAR
STARTCHAR uni0440
ENCODING 1088
SWIDTH 500 0
DWIDTH 6 0
BBX 5 11 0 -3
BITMAP
F0
88
88
88
88
88
88
F0
80
80
80
ENDCHAR
STARTCHAR uni0441
ENCODING 1089
SWIDTH 500 0
DWIDTH 6 0
BBX 5 8 0 0
BITMAP
38
40
80
80
80
80
40
38
ENDCHAR
STARTCHAR uni0442
ENCODING 1090
SWIDTH 500 0
DWIDTH 6 0
BBX 5 8 0 0
BITMAP
F8
20
20
20
20
20
20
20
ENDCHAR
STARTCHAR uni0443
ENCODING 1091
SWIDTH 500 0
DWIDTH 6 0
BBX 5 11 0 -3
BITMAP
88
88
98
50
50
50
50
20
20
20
C0
ENDCHAR
STARTCHAR uni0444
ENCODING 1092
SWIDTH 500 0
DWIDTH 6 0
BBX 7 15 0 -3
BITMAP
10
10
10
10
38
54
92
92
92
92
54
38
10
10
10
ENDCHAR
STARTCHAR uni0445
ENCODING 1093
SWIDTH 500 0
DWIDTH 6 0
BBX 5 8 0 0
BITMAP
88
50
50
20
20
50
50
88
ENDCHAR
STARTCHAR uni0446
ENCODING 1094
SWIDTH 500 0
DWIDTH 6 0
BBX 6 10 0 -2
BITMAP
88
88
88
88
88
88
88
FC
04
04
ENDCHAR
STARTCHAR uni0447
ENCODING 1095
SWIDTH 500 0
DWIDTH 6 0
BBX 5 8 0 0
BITMAP
88
88
88
88
78
08
08
08
ENDCHAR
STARTCHAR uni0448
ENCODING 1096
SWIDTH 500 0
DWIDTH 6 0
BBX 9 8 0 0
BITMAP
8880
8880
8880
8880
8880
8880
8880
FF80
ENDCHAR
STARTCHAR uni0449
ENCODING 1097
SWIDTH 500 0
DWIDTH 6 0
BBX 9 10 0 -2
BITMAP
8900
8900
8900
8900
8900
8900
8900
FF80
0080
0080
ENDCHAR
STARTCHAR uni044A
ENCODING 1098
SWIDTH 500 0
DWIDTH 6 0
BBX 6 8 0 0
BITMAP
E0
20
20
38
24
24
24
38
ENDCHAR
STARTCHAR uni044B
ENCODING 1099
SWIDTH 500 0
DWIDTH 6 0
BBX 9 8 0 0
BITMAP
8080
8080
8080
F880
8480
8480
8480
F880
ENDCHAR
STARTCHAR uni044C
ENCODING 1100
SWIDTH 500 0
DWIDTH 6 0
BBX 5 8 0 0
BITMAP
80
80
80
F0
88
88
88
F0
ENDCHAR
STARTCHAR uni044D
ENCODING 1101
SWIDTH 500 0
DWIDTH 6 0
BBX 4 8 0 0
BITMAP
E0
10
10
70
10
10
10
E0
ENDCHAR
STARTCHAR uni044E
ENCODING 1102
SWIDTH 500 0
DWIDTH 6 0
BBX 9 8 0 0
BITMAP
8E00
9100
A080
E080
A080
A080
9100
8E00
ENDCHAR
STARTCHAR uni044F
ENCODING 1103
SWIDTH 500 0
DWIDTH 6 0
BBX 5 8 0 0
BITMAP
78
88
88
88
78
48
48
88
ENDCHAR
STARTCHAR uni0450
ENCODING 1104
SWIDTH 500 0
DWIDTH 6 0
BBX 5 12 0 0
BITMAP
40
20
10
00
70
88
88
F8
80
80
80
78
ENDCHAR
STARTCHAR uni0451
ENCODING 1105
SWIDTH 500 0
DWIDTH 6 0
BBX 5 12 0 0
BITMAP
50
50
00
00
70
88
88
F8
80
80
80
78
ENDCHAR
STARTCHAR uni0452
ENCODING 1106
SWIDTH 500 0
DWIDTH 6 0
BBX 7 15 0 -3
BITMAP
40
40
F0
40
7C
42
42
42
42
42
42
42
02
02
1C
ENDCHAR
STARTCHAR uni0453
ENCODING 1107
SWIDTH 500 0
DWIDTH 6 0
BBX 3 12 0 0
BITMAP
20
40
80
00
E0
80
80
80
80
80
80
80
ENDCHAR
STARTCHAR uni0454
ENCODING 1108
SWIDTH 500 0
DWIDTH 6 0
BBX 4 8 0 0
BITMAP
70
80
80
E0
80
80
80
70
ENDCHAR
STARTCHAR uni0455
ENCODING 1109
SWIDTH 500 0
DWIDTH 6 0
BBX 3 8 0 0
BITMAP
60
80
80
40
20
20
20
C0
ENDCHAR
STARTCHAR uni0456
ENCODING 1110
SWIDTH 500 0
DWIDTH 6 0
BBX 1 11 0 0
BITMAP
80
80
00
80
80
80
80
80
80
80
80
ENDCHAR
STARTCHAR uni0457
ENCODING 1111
SWIDTH 500 0
DWIDTH 6 0
BBX 3 12 0 0
BITMAP
A0
A0
00
00
40
40
40
40
40
40
40
40
ENDCHAR
STARTCHAR uni0458
ENCODING 1112
SWIDTH 500 0
DWIDTH 6 0
BBX 3 14 0 -3
BITMAP
20
20
00
20
20
20
20
20
20
20
20
20
20
C0
ENDCHAR
STARTCHAR uni0459
ENCODING 1113
SWIDTH 500 0
DWIDTH 6 0
BBX 10 8 0 0
BITMAP
3C00
2400
2400
2780
2440
2440
4440
8780
ENDCHAR
STARTCHAR uni045A
ENCODING 1114
SWIDTH 500 0
DWIDTH 6 0
BBX 9 8 0 0
BITMAP
8800
8800
8800
FF00
8880
8880
8880
8F00
ENDCHAR
STARTCHAR uni045B
ENCODING 1115
SWIDTH 500 0
DWIDTH 6 0
BBX 7 12 0 0
BITMAP
40
40
F0
40
7C
42
42
42
42
42
42
42
ENDCHAR
STARTCHAR uni045C
ENCODING 1116
SWIDTH 500 0
DWIDTH 6 0
BBX 5 12 0 0
BITMAP
10
20
40
00
88
90
A0
C0
A0
A0
90
88
ENDCHAR
STARTCHAR uni045D
ENCODING 1117
SWIDTH 500 0
DWIDTH 6 0
BBX 6 12 0 0
BITMAP
40
20
10
00
84
8C
8C
94
A4
A4
C4
C4
ENDCHAR
STARTCHAR uni045E
ENCODING 1118
SWIDTH 500 0
DWIDTH 6 0
BBX 5 11 0 -3
BITMAP
88
88
98
50
50
50
50
20
20
20
C0
ENDCHAR
STARTCHAR uni045F
ENCODING 1119
SWIDTH 500 0
DWIDTH 6 0
BBX 6 10 0 -2
BITMAP
84
84
84
84
84
84
84
FC
10
10
ENDCHAR
STARTCHAR uni1E80
ENCODING 7808
SWIDTH 500 0
DWIDTH 6 0
BBX 8 11 0 0
BITMAP
10
08
00
81
89
99
95
95
A5
A5
42
ENDCHAR
STARTCHAR uni1E81
ENCODING 7809
SWIDTH 500 0
DWIDTH 6 0
BBX 9 12 0 0
BITMAP
2000
1000
0800
0000
8880
8880
5500
5500
5500
5500
2200
2200
ENDCHAR
STARTCHAR uni1E82
ENCODING 7810
SWIDTH 500 0
DWIDTH 6 0
BBX 8 11 0 0
BITMAP
08
10
00
81
89
99
95
95
A5
A5
42
ENDCHAR
STARTCHAR uni1E83
ENCODING 7811
SWIDTH 500 0
DWIDTH 6 0
BBX 9 12 0 0
BITMAP
0200
0400
0800
0000
8880
8880
5500
5500
5500
5500
2200
2200
ENDCHAR
STARTCHAR uni4E00
ENCODING 19968
SWIDTH 500 0
DWIDTH 6 0
BBX 14 2 0 6
BITMAP
0008
FFFC
ENDCHAR
STARTCHAR uni4E01
ENCODING 19969
SWIDTH 500 0
DWIDTH 6 0
BBX 14 15 0 -1
BITMAP
0008
FFFC
0100
0100
0100
0100
0100
0100
0100
0100
0100
0100
0900
0700
0200
ENDCHAR
STARTCHAR uni4E03
ENCODING 19971
SWIDTH 500 0
DWIDTH 6 0
BBX 15 15 0 -1
BITMAP
0200
0200
0200
0200
020C
023E
03C0
FE00
0200
0200
0200
0204
0204
0206
01FC
ENDCHAR
STARTCHAR uni4E07
ENCODING 19975
SWIDTH 500 0
DWIDTH 6 0
BBX 14 15 0 -1
BITMAP
0008
FFFC
0400
0400
0400
0410
07F8
0410
0410
0810
0810
1010
2110
40E0
8040
ENDCHAR
STARTCHAR uni4E08
ENCODING 19976
SWIDTH 500 0
DWIDTH 6 0
BBX 14 15 0 -1
BITMAP
0080
0080
0080
0088
FFFC
0080
1080
1080
0880
0900
0500
0200
0580
1860
E01C
ENDCHAR
STARTCHAR uni4E09
ENCODING 19977
SWIDTH 500 0
DWIDTH 6 0
BBX 14 13 0 0
BITMAP
0010
7FF8
0000
0000
0000
0020
3FF0
0000
0000
0000
0000
0008
FFFC
ENDCHAR
STARTCHAR uni4E0A
ENCODING 19978
SWIDTH 500 0
DWIDTH 6 0
BBX 14 15 0 -1
BITMAP
0200
0200
0200
0200
0200
0210
03F8
0200
0200
0200
0200
0200
0200
0208
FFFC
ENDCHAR
STARTCHAR uni4E0B
ENCODING 19979
SWIDTH 500 0
DWIDTH 6 0
BBX 14 15 0 -1
BITMAP
0008
FFFC
0200
0200
0200
0300
0280
0260
0230
0210
0200
0200
0200
0200
0200
ENDCHAR
STARTCHAR uni4E0C
ENCODING 19980
SWIDTH 500 0
DWIDTH 6 0
BBX 14 15 0 -1
BITMAP
0008
FFFC
0840
0840
0840
0840
0840
0840
0840
0840
0840
1040
1040
2040
C040
ENDCHAR
STARTCHAR uni4E0D
ENCODING 19981
SWIDTH 500 0
DWIDTH 6 0
BBX 14 15 0 -1
BITMAP
0008
FFFC
0100
0100
0200
0600
0A40
1220
2218
420C
8204
0200
0200
0200
0200
ENDCHAR
STARTCHAR uni4E0E
ENCODING 19982
SWIDTH 500 0
DWIDTH 6 0
BBX 13 15 0 -1
BITMAP
1800
1000
1010
1FF8
2000
2010
7FF8
0010
0010
0110
FF90
0010
0120
00E0
0040
ENDCHAR
STARTCHAR uni4E0F
ENCODING 19983
SWIDTH 500 0
DWIDTH 6 0
BBX 14 15 0 -1
BITMAP
0008
FFFC
0200
0200
1210
13F8
2210
2210
7FF0
0010
0010
0010
0110
00E0
0040
ENDCHAR
STARTCHAR uni4E10
ENCODING 19984
SWIDTH 500 0
DWIDTH 6 0
BBX 14 15 0 -1
BITMAP
0008
FFFC
0200
0200
3200
23F0
4200
4210
FFF8
0010
0010
0010
0110
00E0
0040
ENDCHAR
STARTCHAR uni4E11
ENCODING 19985
SWIDTH 500 0
DWIDTH 6 0
BBX 14 15 0 -1
BITMAP
0020
7FF0
0420
0420
0420
0420
0420
7FE0
0420
0420
0420
0420
0420
0420
FFFC
ENDCHAR
STARTCHAR uni4E13
ENCODING 19987
SWIDTH 500 0
DWIDTH 6 0
BBX 14 15 0 -1
BITMAP
0600
0400
0410
7FF8
0800
0808
FFFC
1000
1040
3FE0
0040
0E80
0100
00C0
0040
ENDCHAR
STARTCHAR uni4E14
ENCODING 19988
SWIDTH 500 0
DWIDTH 6 0
BBX 14 15 0 -1
BITMAP
0020
1FF0
1020
1020
1020
1FE0
1020
1020
1020
1020
1FE0
1020
1020
1020
FFFC
ENDCHAR
STARTCHAR uni4E15
ENCODING 19989
SWIDTH 500 0
DWIDTH 6 0
BBX 14 15 0 -1
BITMAP
0010
7FF8
0100
0100
0200
0200
0640
0A20
1210
2218
4208
0200
0200
0008
FFFC
ENDCHAR
STARTCHAR uni4E16
ENCODING 19990
SWIDTH 500 0
DWIDTH 6 0
BBX 14 15 0 -1
BITMAP
0220
2220
2220
2220
2220
FFFC
2220
2220
2220
2220
23E0
2220
2008
3FFC
2000
ENDCHAR
STARTCHAR uni4E18
ENCODING 19992
SWIDTH 500 0
DWIDTH 6 0
BBX 14 15 0 -1
BITMAP
0020
1070
1F80
1000
1000
1000
1010
1FF8
1040
1040
1040
1040
1040
1040
FFFC
ENDCHAR
STARTCHAR uni4E19
ENCODING 19993
SWIDTH 500 0
DWIDTH 6 0
BBX 14 15 0 -1
BITMAP
0008
FFFC
0200
0200
0208
7FFC
4208
4308
4288
4468
4428
4808
5048
4038
4010
ENDCHAR
STARTCHAR uni4E1A
ENCODING 19994
SWIDTH 500 0
DWIDTH 6 0
BBX 14 15 0 -1
BITMAP
0480
0480
0480
0480
0480
448C
4488
2490
2490
14A0
14A0
04C0
0480
0480
FFFC
ENDCHAR
STARTCHAR uni4E1B
ENCODING 19995
SWIDTH 500 0
DWIDTH 6 0
BBX 14 15 0 -1
BITMAP
1040
1040
1040
1040
1040
1840
1440
1240
1260
2098
410C
8204
0400
0008
FFFC
ENDCHAR
STARTCHAR uni4E1C
ENCODING 19996
SWIDTH 500 0
DWIDTH 6 0
BBX 14 15 0 -1
BITMAP
0600
0400
0408
FFFC
0800
0900
1100
3FF0
0100
0900
0920
1110
290C
C704
0200
ENDCHAR
STARTCHAR uni4E1D
ENCODING 19997
SWIDTH 500 0
DWIDTH 6 0
BBX 14 15 0 -1
BITMAP
0020
1020
1040
2040
2698
4490
5920
EBE0
1040
2040
2CB8
F3C0
4100
0008
FFFC
ENDCHAR
STARTCHAR uni4E1E
ENCODING 19998
SWIDTH 500 0
DWIDTH 6 0
BBX 14 15 0 -1
BITMAP
0020
3FF0
0020
00C0
010C
7D08
0910
09A0
1140
1120
2910
470C
8204
0000
FFFC
ENDCHAR
STARTCHAR uni4E1F
ENCODING 19999
SWIDTH 500 0
DWIDTH 6 0
BBX 15 15 0 -1
BITMAP
0008
7FFC
0100
0100
0110
3FF8
0100
0104
FFFE
0100
0200
0420
09F0
FE0C
6004
ENDCHAR
STARTCHAR uni4E22
ENCODING 20002
SWIDTH 500 0
DWIDTH 6 0
BBX 14 15 0 -1
BITMAP
0020
0070
7F80
0200
0220
3FF0
0200
0208
FFFC
0200
0480
0840
11E0
7E18
2008
ENDCHAR
STARTCHAR uni4E24
ENCODING 20004
SWIDTH 500 0
DWIDTH 6 0
BBX 14 15 0 -1
BITMAP
0008
FFFC
0880
0880
0888
7FFC
4888
4888
4CC8
52A8
5128
6108
4248
4438
4010
ENDCHAR
STARTCHAR uni4E25
ENCODING 20005
SWIDTH 500 0
DWIDTH 6 0
BBX 15 15 0 -1
BITMAP
0008
3FFC
0240
1248
0A50
2240
3FFE
2000
2000
2000
2000
2000
2000
4000
8000
ENDCHAR
STARTCHAR uni4E26
ENCODING 20006
SWIDTH 500 0
DWIDTH 6 0
BBX 14 15 0 -1
BITMAP
1860
0840
0480
0480
7FF8
0480
4488
4488
2490
2490
14A0
14A0
0480
0488
FFFC
ENDCHAR
STARTCHAR uni4E27
ENCODING 20007
SWIDTH 500 0
DWIDTH 6 0
BBX 14 15 0 -1
BITMAP
0100
0110
7FF8
0100
1110
0920
0920
FFFC
1200
1118
1120
10C0
1440
1830
300C
ENDCHAR
STARTCHAR uni4E28
ENCODING 20008
SWIDTH 500 0
DWIDTH 6 0
BBX 2 15 0 -1
BITMAP
80
C0
80
80
80
80
80
80
80
80
80
80
80
80
80
ENDCHAR
STARTCHAR uni4E2A
ENCODING 20010
SWIDTH 500 0
DWIDTH 6 0
BBX 12 14 0 -1
BITMAP
0400
0600
0900
1080
2060
4430
8410
0400
0400
0400
0400
0400
0400
0400
ENDCHAR
STARTCHAR uni4E2B
ENCODING 20011
SWIDTH 500 0
DWIDTH 6 0
BBX 12 15 0 -1
BITMAP
8030
4020
3040
1880
0900
0200
0400
0400
0400
0400
0400
0400
0400
0400
0400
ENDCHAR
STARTCHAR uni4E2C
ENCODING 20012
SWIDTH 500 0
DWIDTH 6 0
BBX 6 15 0 -1
BITMAP
08
0C
88
48
28
28
08
18
28
C8
88
08
08
08
08
ENDCHAR
STARTCHAR uni4E2D
ENCODING 20013
SWIDTH 500 0
DWIDTH 6 0
BBX 14 15 0 -1
BITMAP
0300
0200
0200
0208
FFFC
8208
8208
8208
FFF8
8208
0200
0200
0200
0200
0200
ENDCHAR
STARTCHAR uni4E2E
ENCODING 20014
SWIDTH 500 0
DWIDTH 6 0
BBX 14 15 0 -1
BITMAP
0020
FFF0
0820
0820
0820
7F20
0820
0820
0820
FFA0
0820
1024
2024
4014
800C
ENDCHAR
STARTCHAR uni4E30
ENCODING 20016
SWIDTH 500 0
DWIDTH 6 0
BBX 14 15 0 -1
BITMAP
0200
0210
7FF8
0200
0200
0220
3FF0
0200
0200
0208
FFFC
0200
0200
0200
0200
ENDCHAR
STARTCHAR uni4E31
ENCODING 20017
SWIDTH 500 0
DWIDTH 6 0
BBX 12 15 0 -1
BITMAP
0900
0900
0900
8910
8910
8910
8910
8910
F9F0
8910
0900
1100
2100
4100
8100
ENDCHAR
STARTCHAR uni4E32
ENCODING 20018
SWIDTH 500 0
DWIDTH 6 0
BBX 14 15 0 -1
BITMAP
0200
0210
7FF8
4210
4210
7FF0
4210
0208
FFFC
8208
8208
FFF8
8208
0200
0200
ENDCHAR
STARTCHAR uni4E33
ENCODING 20019
SWIDTH 500 0
DWIDTH 6 0
BBX 14 15 0 -1
BITMAP
0480
0490
7FF8
4490
4490
7FF0
4490
0488
FFFC
8488
8488
FFF8
8888
3080
C080
ENDCHAR
STARTCHAR uni4E34
ENCODING 20020
SWIDTH 500 0
DWIDTH 6 0
BBX 14 15 0 -1
BITMAP
1100
1100
1108
93FC
9280
9460
9820
9008
93FC
9248
9248
9248
1248
13F8
1208
ENDCHAR
STARTCHAR uni4E36
ENCODING 20022
SWIDTH 500 0
DWIDTH 6 0
BBX 5 6 0 4
BITMAP
80
40
20
10
08
08
ENDCHAR
STARTCHAR uni4E38
ENCODING 20024
SWIDTH 500 0
DWIDTH 6 0
BBX 14 15 0 -1
BITMAP
0400
0400
0400
0440
7FE0
0440
0440
1440
0C40
0440
0A40
0944
1144
2044
C03C
ENDCHAR
STARTCHAR uni4E39
ENCODING 20025
SWIDTH 500 0
DWIDTH 6 0
BBX 14 15 0 -1
BITMAP
0020
1FF0
1020
1020
1220
1120
1120
1020
FFFC
1020
1020
2020
2120
40E0
8040
ENDCHAR
STARTCHAR uni4E3A
ENCODING 20026
SWIDTH 500 0
DWIDTH 6 0
BBX 14 15 0 -1
BITMAP
0200
2200
1A00
0A00
0208
FFFC
0208
0208
0288
0448
0448
0808
1008
20F0
4020
ENDCHAR
STARTCHAR uni4E3B
ENCODING 20027
SWIDTH 500 0
DWIDTH 6 0
BBX 14 15 0 -1
BITMAP
0800
0400
0200
0210
7FF8
0200
0200
0200
0220
3FF0
0200
0200
0200
0208
FFFC
ENDCHAR
STARTCHAR uni4E3C
ENCODING 20028
SWIDTH 500 0
DWIDTH 6 0
BBX 14 15 0 -1
BITMAP
0840
0840
0840
7FF8
0840
0A40
0940
0940
0840
FFFC
0840
0840
1040
2040
4040
ENDCHAR
STARTCHAR uni4E3D
ENCODING 20029
SWIDTH 500 0
DWIDTH 6 0
BBX 14 15 0 -1
BITMAP
0008
FFFC
0000
0000
FCFC
8484
8484
A4A4
9494
9494
8484
8484
A4A4
9C9C
8888
ENDCHAR
STARTCHAR uni4E3E
ENCODING 20030
SWIDTH 500 0
DWIDTH 6 0
BBX 14 15 0 -1
BITMAP
0420
4320
3120
1040
0080
FFFC
1020
2210
420C
9FC4
0200
0220
7FF0
0200
0200
ENDCHAR
STARTCHAR uni4E3F
ENCODING 20031
SWIDTH 500 0
DWIDTH 6 0
BBX 5 15 0 -1
BITMAP
08
08
08
08
08
08
08
08
08
08
10
10
20
40
80
ENDCHAR
STARTCHAR uni4E42
ENCODING 20034
SWIDTH 500 0
DWIDTH 6 0
BBX 14 15 0 -1
BITMAP
0030
2020
2020
1020
1040
1040
0880
0880
0500
0500
0200
0300
0CC0
3030
C00C
ENDCHAR
STARTCHAR uni4E43
ENCODING 20035
SWIDTH 500 0
DWIDTH 6 0
BBX 14 15 0 -1
BITMAP
0020
7FF0
0420
0420
0440
0448
04FC
0408
0808
0808
1008
1008
2088
4070
8020
ENDCHAR
STARTCHAR uni4E45
ENCODING 20037
SWIDTH 500 0
DWIDTH 6 0
BBX 14 15 0 -1
BITMAP
0800
0800
0800
0840
0FE0
1040
2040
4080
0080
0100
0280
0440
0820
301C
C008
ENDCHAR
STARTCHAR uni4E47
ENCODING 20039
SWIDTH 500 0
DWIDTH 6 0
BBX 14 15 0 -1
BITMAP
0020
0070
0380
7C00
0400
0400
0418
043C
07C0
FC00
0400
0408
0408
040C
03F8
ENDCHAR
STARTCHAR uni4E48
ENCODING 20040
SWIDTH 500 0
DWIDTH 6 0
BBX 13 15 0 -1
BITMAP
0400
0600
0400
0800
0800
1180
1100
2100
4200
8200
0420
0810
13F8
7C08
2008
ENDCHAR
STARTCHAR uni4E49
ENCODING 20041
SWIDTH 500 0
DWIDTH 6 0
BBX 14 15 0 -1
BITMAP
0830
2420
2220
1320
1140
1040
0880
0880
0500
0500
0200
0300
0CC0
3030
C00C
ENDCHAR
STARTCHAR uni4E4B
ENCODING 20043
SWIDTH 500 0
DWIDTH 6 0
BBX 14 15 0 -1
BITMAP
0800
0400
0600
0220
7FF0
0040
0080
0100
0200
0400
0800
1000
3000
CC00
83FC
ENDCHAR
STARTCHAR uni4E4C
ENCODING 20044
SWIDTH 500 0
DWIDTH 6 0
BBX 14 15 0 -1
BITMAP
0300
0200
0420
1FF0
1020
1020
11C0
1008
1FFC
1008
0008
FFC8
0088
0070
0020
ENDCHAR
STARTCHAR uni4E4D
ENCODING 20045
SWIDTH 500 0
DWIDTH 6 0
BBX 14 15 0 -1
BITMAP
0800
0800
0808
1FFC
2200
4200
8210
03F8
0200
0200
0208
03FC
0200
0200
0200
ENDCHAR
STARTCHAR uni4E4E
ENCODING 20046
SWIDTH 500 0
DWIDTH 6 0
BBX 14 15 0 -1
BITMAP
0020
00F0
7F00
0110
1110
0920
0940
0100
FFFC
0100
0100
0100
0100
0F00
0200
ENDCHAR
STARTCHAR uni4E4F
ENCODING 20047
SWIDTH 500 0
DWIDTH 6 0
BBX 14 15 0 -1
BITMAP
0020
00F0
7F00
0200
0100
0120
7FF0
0040
0080
0100
0600
1800
2800
C600
81FC
ENDCHAR
STARTCHAR uni4E50
ENCODING 20048
SWIDTH 500 0
DWIDTH 6 0
BBX 14 15 0 -1
BITMAP
0020
20F0
3F00
2000
2100
4100
4108
FFFC
0100
0100
1920
1110
2908
470C
8204
ENDCHAR
STARTCHAR uni4E52
ENCODING 20050
SWIDTH 500 0
DWIDTH 6 0
BBX 14 15 0 -1
BITMAP
0020
1070
1F80
1000
1010
1FF8
1080
1080
1080
1080
FFFC
0000
0C00
3000
C000
ENDCHAR
STARTCHAR uni4E53
ENCODING 20051
SWIDTH 500 0
DWIDTH 6 0
BBX 14 15 0 -1
BITMAP
0020
1070
1F80
1000
1010
1FF8
1080
1080
1080
1080
FFFC
0000
00C0
0030
000C
ENDCHAR
STARTCHAR uni4E54
ENCODING 20052
SWIDTH 500 0
DWIDTH 6 0
BBX 14 15 0 -1
BITMAP
0060
01F0
7E00
0208
FFFC
0480
0840
3030
C84C
0840
0840
0840
0840
1040
2040
ENDCHAR
STARTCHAR uni4E56
ENCODING 20054
SWIDTH 500 0
DWIDTH 6 0
BBX 14 15 0 -1
BITMAP
0020
00F0
3F00
0200
FFFC
0200
0A40
FA48
0A70
0A44
3A44
CA3C
0200
0200
0200
ENDCHAR
STARTCHAR uni4E58
ENCODING 20056
SWIDTH 500 0
DWIDTH 6 0
BBX 14 15 0 -1
BITMAP
0078
7F80
0100
0100
FFFC
0948
F950
0964
3944
CBBC
0540
0920
1118
210C
4104
ENDCHAR
STARTCHAR uni4E59
ENCODING 20057
SWIDTH 500 0
DWIDTH 6 0
BBX 13 13 0 0
BITMAP
0100
FF80
0100
0200
0400
0800
1000
2000
4000
8010
8010
8018
7FF0
ENDCHAR
STARTCHAR uni4E5C
ENCODING 20060
SWIDTH 500 0
DWIDTH 6 0
BBX 14 14 0 -1
BITMAP
1800
1000
1010
1078
1390
1C10
F010
1010
10F0
1020
1008
1008
100C
0FF8
ENDCHAR
STARTCHAR uni4E5D
ENCODING 20061
SWIDTH 500 0
DWIDTH 6 0
BBX 15 15 0 -1
BITMAP
0400
0400
0400
0440
FFE0
0440
0440
0440
0440
0840
0840
1044
1044
2046
C03C
ENDCHAR
STARTCHAR uni4E5E
ENCODING 20062
SWIDTH 500 0
DWIDTH 6 0
BBX 14 15 0 -1
BITMAP
0800
0800
0808
1FFC
2000
4080
9FC0
0080
0100
0200
0400
0808
1008
100C
0FF8
ENDCHAR
STARTCHAR uni4E5F
ENCODING 20063
SWIDTH 500 0
DWIDTH 6 0
BBX 14 15 0 -1
BITMAP
0100
1100
1110
1138
1150
1390
1D10
F110
1110
1170
1120
1108
1008
100C
0FF8
ENDCHAR
STARTCHAR uni4E60
ENCODING 20064
SWIDTH 500 0
DWIDTH 6 0
BBX 13 15 0 -1
BITMAP
0010
FFF8
0010
0010
1010
0810
0410
0410
00D0
0710
7810
2010
0110
00E0
0040
ENDCHAR
STARTCHAR uni4E61
ENCODING 20065
SWIDTH 500 0
DWIDTH 6 0
BBX 12 15 0 -1
BITMAP
0C00
0800
1000
2180
4E00
F400
0830
1020
27C0
F880
4100
0200
0400
1800
E000
ENDCHAR
STARTCHAR uni4E66
ENCODING 20070
SWIDTH 500 0
DWIDTH 6 0
BBX 14 15 0 -1
BITMAP
0220
0218
0208
0220
7FF0
0220
0220
0228
FFFC
0208
0208
0278
0210
0200
0200
ENDCHAR
STARTCHAR uni4E69
ENCODING 20073
SWIDTH 500 0
DWIDTH 6 0
BBX 14 15 0 -1
BITMAP
1040
1040
1040
1040
1F40
1040
1040
1240
FF40
8240
8240
8244
8244
FE44
823C
ENDCHAR
STARTCHAR uni4E70
ENCODING 20080
SWIDTH 500 0
DWIDTH 6 0
BBX 14 15 0 -1
BITMAP
0008
FFFC
0008
1110
0D00
4500
3100
1100
0100
FFFC
0100
0300
0CC0
3030
C00C
ENDCHAR
STARTCHAR uni4E71
ENCODING 20081
SWIDTH 500 0
DWIDTH 6 0
BBX 14 15 0 -1
BITMAP
0440
0E40
F040
1040
1040
FF40
1040
1040
FE40
8240
8240
8248
8248
FE4C
8238
ENDCHAR
STARTCHAR uni4E73
ENCODING 20083
SWIDTH 500 0
DWIDTH 6 0
BBX 14 15 0 -1
BITMAP
0440
0E60
F140
9140
4A40
4840
FF40
0440
0840
0F40
F840
4848
0848
784C
1038
ENDCHAR
STARTCHAR uni4E7E
ENCODING 20094
SWIDTH 500 0
DWIDTH 6 0
BBX 15 15 0 -1
BITMAP
0820
0820
FF20
087E
7E80
4208
7E7C
4208
7E10
4A10
0820
FF24
0844
0846
083C
ENDCHAR
STARTCHAR uni4E7F
ENCODING 20095
SWIDTH 500 0
DWIDTH 6 0
BBX 15 15 0 -1
BITMAP
0220
0720
78A0
48A0
2520
2820
1220
7C20
0820
1120
7F20
0422
2522
5CE2
885E
ENDCHAR
STARTCHAR uni4E82
ENCODING 20098
SWIDTH 500 0
DWIDTH 6 0
BBX 15 15 0 -1
BITMAP
0720
F920
9120
4A20
FF20
1420
FFA0
92A0
BDA0
80A0
BEA0
94A2
8CA2
92A2
A39E
ENDCHAR
STARTCHAR uni4E83
ENCODING 20099
SWIDTH 500 0
DWIDTH 6 0
BBX 15 15 0 -1
BITMAP
4490
2490
1510
FFD0
1510
2490
C450
2110
3FD0
4910
CD10
3512
17D2
2112
410E
ENDCHAR
STARTCHAR uni4E84
ENCODING 20100
SWIDTH 500 0
DWIDTH 6 0
BBX 15 15 0 -1
BITMAP
0840
FFC0
0840
7F40
0040
FF40
8140
7E40
0040
7E40
4240
7E44
4244
2446
FF3C
ENDCHAR
STARTCHAR uni4E85
ENCODING 20101
SWIDTH 500 0
DWIDTH 6 0
BBX 4 14 0 -1
BITMAP
10
10
10
10
10
10
10
10
10
10
10
10
F0
10
ENDCHAR
STARTCHAR uni4E86
ENCODING 20102
SWIDTH 500 0
DWIDTH 6 0
BBX 12 15 0 -1
BITMAP
0020
FFF0
0020
0040
0080
0300
0200
0200
0200
0200
0200
0200
2200
1E00
0400
ENDCHAR
STARTCHAR uni4E88
ENCODING 20104
SWIDTH 500 0
DWIDTH 6 0
BBX 14 15 0 -1
BITMAP
0020
3FF0
0040
0480
0300
0108
FFFC
0110
0120
0100
0100
0100
0900
0700
0200
ENDCHAR
STARTCHAR uni4E89
ENCODING 20105
SWIDTH 500 0
DWIDTH 6 0
BBX 14 15 0 -1
BITMAP
1000
1080
1FC0
2100
4210
BFF0
0210
FFFC
0210
0210
7FF0
0200
0200
1E00
0400
ENDCHAR
STARTCHAR uni4E8B
ENCODING 20107
SWIDTH 500 0
DWIDTH 6 0
BBX 14 15 0 -1
BITMAP
0200
FFFC
0200
3FE0
2220
3FE0
0200
7FF0
0210
FFFC
0210
7FF0
0210
1E00
0400
ENDCHAR
STARTCHAR uni4E8C
ENCODING 20108
SWIDTH 500 0
DWIDTH 6 0
BBX 14 12 0 0
BITMAP
0020
3FF0
0000
0000
0000
0000
0000
0000
0000
0000
0008
FFFC
ENDCHAR
STARTCHAR uni4E8D
ENCODING 20109
SWIDTH 500 0
DWIDTH 6 0
BBX 14 15 0 -1
BITMAP
0020
3FF0
0000
0000
0008
FFFC
0100
0100
0100
0100
0100
0100
0900
0700
0200
ENDCHAR
STARTCHAR uni4E8E
ENCODING 20110
SWIDTH 500 0
DWIDTH 6 0
BBX 14 15 0 -1
BITMAP
0010
7FF8
0200
0200
0200
0208
FFFC
0200
0200
0200
0200
0200
1200
0E00
0400
ENDCHAR
STARTCHAR uni4E8F
ENCODING 20111
SWIDTH 500 0
DWIDTH 6 0
BBX 14 15 0 -1
BITMAP
0020
3FF0
0000
0000
0008
FFFC
0800
1020
3FF0
0020
0020
0020
0220
01C0
0080
ENDCHAR
STARTCHAR uni4E91
ENCODING 20113
SWIDTH 500 0
DWIDTH 6 0
BBX 14 15 0 -1
BITMAP
0020
3FF0
0000
0000
0000
0008
FFFC
0200
0200
0400
0840
1020
23F0
FC08
4008
ENDCHAR
STARTCHAR uni4E92
ENCODING 20114
SWIDTH 500 0
DWIDTH 6 0
BBX 14 15 0 -1
BITMAP
0008
FFFC
0800
0800
0840
0FE0
0840
0840
0840
0840
1FC0
0040
0040
0048
FFFC
ENDCHAR
STARTCHAR uni4E93
ENCODING 20115
SWIDTH 500 0
DWIDTH 6 0
BBX 14 15 0 -1
BITMAP
0020
3FF0
0000
0000
0008
FFFC
0840
0840
0840
0840
0840
1040
1040
2040
C040
ENDCHAR
STARTCHAR uni4E94
ENCODING 20116
SWIDTH 500 0
DWIDTH 6 0
BBX 14 15 0 -1
BITMAP
0010
7FF8
0200
0200
0200
0200
0220
3FF0
0420
0420
0420
0820
0820
0820
FFFC
ENDCHAR
STARTCHAR uni4E95
ENCODING 20117
SWIDTH 500 0
DWIDTH 6 0
BBX 14 15 0 -1
BITMAP
0840
0840
0840
0840
7FF8
0840
0840
0840
0840
FFFC
0840
0840
1040
2040
4040
ENDCHAR
STARTCHAR uni4E98
ENCODING 20120
SWIDTH 500 0
DWIDTH 6 0
BBX 14 15 0 -1
BITMAP
0010
7FF8
0000
0020
1FF0
1020
1020
1020
1FE0
1020
1020
1FE0
1020
0008
FFFC
ENDCHAR
STARTCHAR uni4E99
ENCODING 20121
SWIDTH 500 0
DWIDTH 6 0
BBX 14 15 0 -1
BITMAP
0010
FFF8
0800
0820
0FF0
1020
1220
1120
2140
2440
2240
0280
0080
0080
FFFC
ENDCHAR
STARTCHAR uni4E9A
ENCODING 20122
SWIDTH 500 0
DWIDTH 6 0
BBX 14 15 0 -1
BITMAP
0010
FFF8
0880
0880
8888
8888
4890
4890
28A0
28A0
28A0
0880
0880
0880
FFFC
ENDCHAR
STARTCHAR uni4E9B
ENCODING 20123
SWIDTH 500 0
DWIDTH 6 0
BBX 14 15 0 -1
BITMAP
0880
0880
0898
48B0
4EC0
4880
4884
4E84
787C
C000
0020
1FF0
0000
0008
FFFC
ENDCHAR
STARTCHAR uni4E9E
ENCODING 20126
SWIDTH 500 0
DWIDTH 6 0
BBX 14 15 0 -1
BITMAP
0008
FFFC
0480
0480
0480
7CF8
4008
4008
4008
7CF8
4488
0480
0480
0488
FFFC
ENDCHAR
STARTCHAR uni4E9F
ENCODING 20127
SWIDTH 500 0
DWIDTH 6 0
BBX 14 15 0 -1
BITMAP
0010
7FF8
0400
0800
1F00
01F8
7910
4910
4960
4930
7948
4748
0280
0008
FFFC
ENDCHAR
STARTCHAR uni4EA0
ENCODING 20128
SWIDTH 500 0
DWIDTH 6 0
BBX 14 4 0 6
BITMAP
0200
0100
0108
FFFC
ENDCHAR
STARTCHAR uni4EA1
ENCODING 20129
SWIDTH 500 0
DWIDTH 6 0
BBX 14 15 0 -1
BITMAP
0200
0100
0108
FFFC
1000
1000
1000
1000
1000
1000
1000
1000
1010
1FF8
1000
ENDCHAR
STARTCHAR uni4EA2
ENCODING 20130
SWIDTH 500 0
DWIDTH 6 0
BBX 14 15 0 -1
BITMAP
0200
0100
0108
FFFC
0000
0040
0FE0
0840
0840
0840
0840
1048
1048
204C
4038
ENDCHAR
STARTCHAR uni4EA4
ENCODING 20132
SWIDTH 500 0
DWIDTH 6 0
BBX 14 15 0 -1
BITMAP
0400
0200
0208
FFFC
0840
1020
2018
48C8
0880
0880
0500
0200
0D80
3060
C01C
ENDCHAR
STARTCHAR uni4EA5
ENCODING 20133
SWIDTH 500 0
DWIDTH 6 0
BBX 14 15 0 -1
BITMAP
0200
0100
0108
FFFC
0400
08C0
1080
3F30
0220
0440
0880
3100
0220
0C18
7008
ENDCHAR
STARTCHAR uni4EA6
ENCODING 20134
SWIDTH 500 0
DWIDTH 6 0
BBX 14 15 0 -1
BITMAP
0200
0100
0108
FFFC
0440
0440
2440
2450
4448
4444
8844
0840
1240
21C0
C080
ENDCHAR
STARTCHAR uni4EA7
ENCODING 20135
SWIDTH 500 0
DWIDTH 6 0
BBX 14 15 0 -1
BITMAP
0200
0110
7FF8
0840
0440
0480
3FFC
2000
2000
2000
2000
2000
2000
4000
8000
ENDCHAR
STARTCHAR uni4EA8
ENCODING 20136
SWIDTH 500 0
DWIDTH 6 0
BBX 14 15 0 -1
BITMAP
0200
0108
FFFC
0000
1FE0
1020
1FE0
0000
7FF0
0040
0180
0100
0900
0700
0200
ENDCHAR
STARTCHAR uni4EA9
ENCODING 20137
SWIDTH 500 0
DWIDTH 6 0
BBX 14 15 0 -1
BITMAP
0400
0200
0208
FFFC
0000
0010
7FF8
4210
4210
7FF0
4210
4210
4210
7FF0
4010
ENDCHAR
STARTCHAR uni4EAB
ENCODING 20139
SWIDTH 500 0
DWIDTH 6 0
BBX 14 15 0 -1
BITMAP
0200
0108
FFFC
0000
1FE0
1020
1FE0
0000
3FF0
0080
0100
FFFC
0100
0F00
0200
ENDCHAR
STARTCHAR uni4EAC
ENCODING 20140
SWIDTH 500 0
DWIDTH 6 0
BBX 15 15 0 -1
BITMAP
0100
0084
7FFE
0000
0010
0FF8
0810
0810
0FF0
0890
0080
04A0
0890
338E
C104
ENDCHAR
STARTCHAR uni4EAD
ENCODING 20141
SWIDTH 500 0
DWIDTH 6 0
BBX 14 15 0 -1
BITMAP
0400
0208
FFFC
0000
1FE0
1020
1FE0
0000
7FFC
4004
BFE8
0100
0100
0F00
0200
ENDCHAR
STARTCHAR uni4EAE
ENCODING 20142
SWIDTH 500 0
DWIDTH 6 0
BBX 14 15 0 -1
BITMAP
0400
0208
FFFC
0000
1FE0
1020
1FE0
0000
7FFC
4004
8F88
0880
0884
3084
C07C
ENDCHAR
STARTCHAR uni4EB2
ENCODING 20146
SWIDTH 500 0
DWIDTH 6 0
BBX 15 15 0 -1
BITMAP
0200
0108
3FFC
0000
0420
0240
7FFE
0100
0100
1FF8
0100
0540
0920
3718
C206
ENDCHAR
STARTCHAR uni4EB3
ENCODING 20147
SWIDTH 500 0
DWIDTH 6 0
BBX 15 15 0 -1
BITMAP
0100
0080
7FFE
0000
0FF0
0810
0FF0
0000
7FFE
4022
9FC4
0100
7FF2
0102
00FE
ENDCHAR
STARTCHAR uni4EB5
ENCODING 20149
SWIDTH 500 0
DWIDTH 6 0
BBX 14 15 0 -1
BITMAP
0200
0100
FFFC
2080
FBF0
2090
3990
E154
220C
6204
0D10
30A0
D040
1630
380C
ENDCHAR
STARTCHAR uni4EB6
ENCODING 20150
SWIDTH 500 0
DWIDTH 6 0
BBX 14 15 0 -1
BITMAP
0200
0100
FFFC
2010
2790
2490
2790
2010
3FF0
1020
1FE0
1020
1FE0
0000
FFFC
ENDCHAR
STARTCHAR uni4EB9
ENCODING 20153
SWIDTH 500 0
DWIDTH 6 0
BBX 15 15 0 -1
BITMAP
0100
FFFE
2444
47C4
745C
47C4
755C
4544
FFFE
9012
9FF2
1010
1FF0
1010
FFFE
ENDCHAR
STARTCHAR uni4EBA
ENCODING 20154
SWIDTH 500 0
DWIDTH 6 0
BBX 14 15 0 -1
BITMAP
0200
0200
0200
0200
0200
0200
0200
0200
0200
0500
0880
1040
2020
401C
8008
ENDCHAR
STARTCHAR uni4EBB
ENCODING 20155
SWIDTH 500 0
DWIDTH 6 0
BBX 5 15 0 -1
BITMAP
08
08
08
10
10
30
50
90
10
10
10
10
10
10
10
ENDCHAR
STARTCHAR uni4EBF
ENCODING 20159
SWIDTH 500 0
DWIDTH 6 0
BBX 15 15 0 -1
BITMAP
0800
0808
0BFC
1008
1010
3020
5040
9040
1080
1100
1100
1204
1204
1206
11FC
ENDCHAR
STARTCHAR uni4EC0
ENCODING 20160
SWIDTH 500 0
DWIDTH 6 0
BBX 15 15 0 -1
BITMAP
0840
0840
0840
1040
1040
3040
57FE
9040
1040
1040
1040
1040
1040
1040
1040
ENDCHAR
STARTCHAR uni4EC1
ENCODING 20161
SWIDTH 500 0
DWIDTH 6 0
BBX 15 15 0 -1
BITMAP
0800
0800
0808
13FC
1000
3000
5000
9000
1000
1000
1000
1000
1004
17FE
1000
ENDCHAR
STARTCHAR uni4EC2
ENCODING 20162
SWIDTH 500 0
DWIDTH 6 0
BBX 15 15 0 -1
BITMAP
0840
0840
0840
1044
13FE
1044
3044
5044
9044
1044
1084
1084
1124
121C
1408
ENDCHAR
STARTCHAR uni4EC3
ENCODING 20163
SWIDTH 500 0
DWIDTH 6 0
BBX 15 15 0 -1
BITMAP
0800
0804
0BFE
1020
1020
1020
3020
5020
9020
1020
1020
1020
1120
10E0
1040
ENDCHAR
STARTCHAR uni4EC4
ENCODING 20164
SWIDTH 500 0
DWIDTH 6 0
BBX 15 14 0 -1
BITMAP
0004
1FFE
1080
1080
1080
1080
1080
1080
10C0
1120
2210
240C
4806
9002
ENDCHAR
STARTCHAR uni4EC5
ENCODING 20165
SWIDTH 500 0
DWIDTH 6 0
BBX 15 15 0 -1
BITMAP
0800
0808
0BFC
1108
1108
1108
3088
5090
9090
1060
1020
1060
1090
110C
1606
ENDCHAR
STARTCHAR uni4EC6
ENCODING 20166
SWIDTH 500 0
DWIDTH 6 0
BBX 14 15 0 -1
BITMAP
0880
0880
0880
1080
1080
10C0
30A0
5098
908C
1084
1080
1080
1080
1080
1080
ENDCHAR
STARTCHAR uni4EC7
ENCODING 20167
SWIDTH 500 0
DWIDTH 6 0
BBX 15 15 0 -1
BITMAP
0880
0880
0880
1090
17F8
1090
3090
5090
9090
1090
1110
1112
1212
1412
180E
ENDCHAR
STARTCHAR uni4EC8
ENCODING 20168
SWIDTH 500 0
DWIDTH 6 0
BBX 15 15 0 -1
BITMAP
0860
0820
0820
11A0
1120
1120
3120
5110
9110
1208
1208
1404
1404
1802
1002
ENDCHAR
STARTCHAR uni4EC9
ENCODING 20169
SWIDTH 500 0
DWIDTH 6 0
BBX 15 15 0 -1
BITMAP
0800
0810
09F8
1110
1110
1110
3110
5110
9110
1110
1110
1212
1212
1412
180E
ENDCHAR
STARTCHAR uni4ECA
ENCODING 20170
SWIDTH 500 0
DWIDTH 6 0
BBX 14 15 0 -1
BITMAP
0100
0300
0480
0840
1020
2210
C10C
0100
0020
3FF0
0020
0040
0080
0100
0200
ENDCHAR
STARTCHAR uni4ECB
ENCODING 20171
SWIDTH 500 0
DWIDTH 6 0
BBX 14 15 0 -1
BITMAP
0200
0300
0480
0840
1020
2010
484C
8844
0840
0840
0840
1040
1040
2040
C040
ENDCHAR
STARTCHAR uni4ECD
ENCODING 20173
SWIDTH 500 0
DWIDTH 6 0
BBX 15 15 0 -1
BITMAP
0800
0808
0BFC
1088
1088
1090
30BE
5082
9082
1082
1102
1102
1222
121C
1408
ENDCHAR
STARTCHAR uni4ECE
ENCODING 20174
SWIDTH 500 0
DWIDTH 6 0
BBX 14 15 0 -1
BITMAP
0060
1840
1040
1040
1040
1040
1840
1440
1640
1240
20C0
2120
4218
440C
8804
ENDCHAR
STARTCHAR uni4ED1
ENCODING 20177
SWIDTH 500 0
DWIDTH 6 0
BBX 14 15 0 -1
BITMAP
0100
0280
0440
0820
1010
200C
C004
0860
0840
0980
0E00
0810
0810
0818
07F0
ENDCHAR
STARTCHAR uni4ED3
ENCODING 20179
SWIDTH 500 0
DWIDTH 6 0
BBX 14 15 0 -1
BITMAP
0100
0280
0440
0820
1010
204C
5FE4
9040
1040
1040
1040
1188
1008
100C
0FF8
ENDCHAR
STARTCHAR uni4ED4
ENCODING 20180
SWIDTH 500 0
DWIDTH 6 0
BBX 15 15 0 -1
BITMAP
0808
0BFC
0808
1010
1020
1020
3020
57FE
9020
1020
1020
1020
1120
10E0
1040
ENDCHAR
STARTCHAR uni4ED5
ENCODING 20181
SWIDTH 500 0
DWIDTH 6 0
BBX 15 15 0 -1
BITMAP
0840
0840
0840
1040
1040
3044
57FE
9040
1040
1040
1040
1040
1040
13FC
1000
ENDCHAR
STARTCHAR uni4ED6
ENCODING 20182
SWIDTH 500 0
DWIDTH 6 0
BBX 15 15 0 -1
BITMAP
1000
1080
1080
2488
24BC
27C8
7C88
A488
2488
24B8
2490
2484
2404
2406
23FC
ENDCHAR
STARTCHAR uni4ED7
ENCODING 20183
SWIDTH 500 0
DWIDTH 6 0
BBX 15 15 0 -1
BITMAP
0820
0820
0820
1020
17FE
1020
3120
5120
90A0
10A0
1040
1040
10A0
1318
1C06
ENDCHAR
STARTCHAR uni4ED8
ENCODING 20184
SWIDTH 500 0
DWIDTH 6 0
BBX 15 15 0 -1
BITMAP
0810
0810
0810
1010
17FE
1010
3010
5110
9090
1090
1090
1010
1090
1070
1020
ENDCHAR
STARTCHAR uni4ED9
ENCODING 20185
SWIDTH 500 0
DWIDTH 6 0
BBX 15 15 0 -1
BITMAP
0820
0820
0820
1020
1222
1222
3222
5222
9222
1222
1222
1222
1222
13FE
1202
ENDCHAR
STARTCHAR uni4EDA
ENCODING 20186
SWIDTH 500 0
DWIDTH 6 0
BBX 14 15 0 -1
BITMAP
0200
0300
0480
0840
1020
2010
420C
8204
4210
4210
4210
4210
4210
7FF0
4010
ENDCHAR
STARTCHAR uni4EDC
ENCODING 20188
SWIDTH 500 0
DWIDTH 6 0
BBX 15 15 0 -1
BITMAP
0800
0800
0808
13FC
1020
3020
5020
9020
1020
1020
1020
1020
1020
17FE
1000
ENDCHAR
STARTCHAR uni4EDD
ENCODING 20189
SWIDTH 500 0
DWIDTH 6 0
BBX 14 15 0 -1
BITMAP
0200
0300
0480
0840
1020
2010
400C
8024
3FF0
0200
0200
0200
0200
0208
FFFC
ENDCHAR
STARTCHAR uni4EDE
ENCODING 20190
SWIDTH 500 0
DWIDTH 6 0
BBX 15 15 0 -1
BITMAP
0800
0802
0BFE
1022
1022
1122
3122
5122
9222
1042
1042
1082
10A2
111C
1208
ENDCHAR
STARTCHAR uni4EDF
ENCODING 20191
SWIDTH 500 0
DWIDTH 6 0
BBX 15 15 0 -1
BITMAP
0808
081C
0BE0
1020
1020
1020
3020
57FE
9020
1020
1020
1020
1020
1020
1020
ENDCHAR
STARTCHAR uni4EE1
ENCODING 20193
SWIDTH 500 0
DWIDTH 6 0
BBX 15 15 0 -1
BITMAP
0900
0900
0908
11FC
1200
1400
33F0
5020
9040
1080
1080
1104
1204
1206
11FC
ENDCHAR
STARTCHAR uni4EE3
ENCODING 20195
SWIDTH 500 0
DWIDTH 6 0
BBX 15 15 0 -1
BITMAP
0840
0850
084C
1044
1040
107E
37C0
5040
9040
1040
1020
1022
1012
100A
1006
ENDCHAR
STARTCHAR uni4EE4
ENCODING 20196
SWIDTH 500 0
DWIDTH 6 0
BBX 14 15 0 -1
BITMAP
0100
0300
0480
0840
1220
2110
410C
8024
3FF0
0020
0040
0C80
0300
0180
0080
ENDCHAR
STARTCHAR uni4EE5
ENCODING 20197
SWIDTH 500 0
DWIDTH 6 0
BBX 14 15 0 -1
BITMAP
0010
2018
2410
2210
2310
2110
2010
2010
2010
2220
2420
3850
E088
430C
0C04
ENDCHAR
STARTCHAR uni4EE8
ENCODING 20200
SWIDTH 500 0
DWIDTH 6 0
BBX 15 15 0 -1
BITMAP
0800
0800
0808
13FC
1000
1000
3000
5010
91F8
1000
1000
1000
1004
17FE
1000
ENDCHAR
STARTCHAR uni4EE9
ENCODING 20201
SWIDTH 500 0
DWIDTH 6 0
BBX 15 15 0 -1
BITMAP
0840
0840
0840
1040
1040
1040
307E
5040
9040
1040
1040
1040
1040
1040
17FE
ENDCHAR
STARTCHAR uni4EEA
ENCODING 20202
SWIDTH 500 0
DWIDTH 6 0
BBX 15 15 0 -1
BITMAP
0800
0880
0848
1248
1208
1208
3208
5110
9110
10A0
1040
1060
1090
1108
1606
ENDCHAR
STARTCHAR uni4EEB
ENCODING 20203
SWIDTH 500 0
DWIDTH 6 0
BBX 15 15 0 -1
BITMAP
0800
0860
0840
1080
1080
1118
3110
5220
9420
1040
1088
1084
111E
17E2
1202
ENDCHAR
STARTCHAR uni4EEC
ENCODING 20204
SWIDTH 500 0
DWIDTH 6 0
BBX 15 15 0 -1
BITMAP
0A00
09BE
0882
1002
1202
1202
3202
5202
9202
1202
1202
1202
1212
120E
1204
ENDCHAR
STARTCHAR uni4EF0
ENCODING 20208
SWIDTH 500 0
DWIDTH 6 0
BBX 15 15 0 -1
BITMAP
0800
0840
0B82
123E
1222
1222
3222
5222
9222
12A2
1322
162E
1024
1020
1020
ENDCHAR
STARTCHAR uni4EF1
ENCODING 20209
SWIDTH 500 0
DWIDTH 6 0
BBX 15 15 0 -1
BITMAP
0840
0840
08A0
1110
1208
1486
3042
5040
9008
13FC
1008
1010
1020
1040
1080
ENDCHAR
STARTCHAR uni4EF2
ENCODING 20210
SWIDTH 500 0
DWIDTH 6 0
BBX 15 15 0 -1
BITMAP
0820
0820
0820
1020
13FE
1222
3222
5222
93FE
1222
1020
1020
1020
1020
1020
ENDCHAR
STARTCHAR uni4EF3
ENCODING 20211
SWIDTH 500 0
DWIDTH 6 0
BBX 15 15 0 -1
BITMAP
0810
0A10
0A10
1210
1216
1214
33D8
5210
9210
1210
1210
1252
1292
1712
120E
ENDCHAR
STARTCHAR uni4EF4
ENCODING 20212
SWIDTH 500 0
DWIDTH 6 0
BBX 15 15 0 -1
BITMAP
0804
09FE
0904
1104
1104
11FC
3104
5104
9104
11FC
1104
1104
1224
121C
1408
ENDCHAR
STARTCHAR uni4EF5
ENCODING 20213
SWIDTH 500 0
DWIDTH 6 0
BBX 15 15 0 -1
BITMAP
0900
0900
0908
11FC
1120
1220
3020
5020
97FE
1020
1020
1020
1020
1020
1020
ENDCHAR
STARTCHAR uni4EF6
ENCODING 20214
SWIDTH 500 0
DWIDTH 6 0
BBX 15 15 0 -1
BITMAP
0820
0820
0920
1120
11FC
1220
3220
5020
9020
17FE
1020
1020
1020
1020
1020
ENDCHAR
STARTCHAR uni4EF7
ENCODING 20215
SWIDTH 500 0
DWIDTH 6 0
BBX 15 15 0 -1
BITMAP
0840
0840
08A0
1110
120C
1406
3912
5110
9110
1110
1110
1110
1110
1210
1410
ENDCHAR
STARTCHAR uni4EFB
ENCODING 20219
SWIDTH 500 0
DWIDTH 6 0
BBX 15 15 0 -1
BITMAP
0808
081C
0BE0
1020
1020
1020
3024
57FE
9020
1020
1020
1020
1020
1024
13FE
ENDCHAR
STARTCHAR uni4EFD
ENCODING 20221
SWIDTH 500 0
DWIDTH 6 0
BBX 15 15 0 -1
BITMAP
0810
0890
0890
1108
1108
1206
3402
5BF8
9088
1088
1088
1108
1148
1238
1410
ENDCHAR
STARTCHAR uni4EFF
ENCODING 20223
SWIDTH 500 0
DWIDTH 6 0
BBX 15 15 0 -1
BITMAP
0840
0820
0820
1004
17FE
1080
3084
50FE
9084
1084
1084
1104
1124
121C
1408
ENDCHAR
STARTCHAR uni4F00
ENCODING 20224
SWIDTH 500 0
DWIDTH 6 0
BBX 15 15 0 -1
BITMAP
0800
0810
0890
1090
1110
1108
3208
5446
9042
1080
1090
1110
1178
1784
1204
ENDCHAR
STARTCHAR uni4F01
ENCODING 20225
SWIDTH 500 0
DWIDTH 6 0
BBX 14 15 0 -1
BITMAP
0100
0300
0480
0840
1020
2110
410C
8104
1100
11F0
1100
1100
1100
1108
FFFC
ENDCHAR
STARTCHAR uni4F02
ENCODING 20226
SWIDTH 500 0
DWIDTH 6 0
BBX 15 15 0 -1
BITMAP
0820
0820
0820
17FE
1020
1020
33FE
5222
9222
1222
1222
122E
1224
1020
1020
ENDCHAR
STARTCHAR uni4F04
ENCODING 20228
SWIDTH 500 0
DWIDTH 6 0
BBX 15 15 0 -1
BITMAP
0804
0BFE
0844
1044
1244
13FC
3240
5440
97FE
1042
1042
105E
1044
1040
1040
ENDCHAR
STARTCHAR uni4F05
ENCODING 20229
SWIDTH 500 0
DWIDTH 6 0
BBX 15 15 0 -1
BITMAP
0840
0840
0840
17FE
1040
1248
3248
5248
9248
13F8
1248
1042
1042
1042
103E
ENDCHAR
STARTCHAR uni4F08
ENCODING 20232
SWIDTH 500 0
DWIDTH 6 0
BBX 15 15 0 -1
BITMAP
0800
0840
0820
1010
1090
1080
3080
5284
9282
1282
1482
1088
1088
108C
1078
ENDCHAR
STARTCHAR uni4F09
ENCODING 20233
SWIDTH 500 0
DWIDTH 6 0
BBX 15 15 0 -1
BITMAP
0880
0840
0840
17FE
1000
1010
31F8
5110
9110
1110
1110
1112
1112
1212
1C0E
ENDCHAR
STARTCHAR uni4F0A
ENCODING 20234
SWIDTH 500 0
DWIDTH 6 0
BBX 15 15 0 -1
BITMAP
0800
0808
0BFC
1088
1088
17FE
3088
5088
9088
13F8
1088
1080
1100
1200
1C00
ENDCHAR
STARTCHAR uni4F0B
ENCODING 20235
SWIDTH 500 0
DWIDTH 6 0
BBX 15 15 0 -1
BITMAP
0810
0BF8
0890
1090
1090
1090
30BC
5084
9084
1148
1128
1210
1230
1448
1986
ENDCHAR
STARTCHAR uni4F0D
ENCODING 20237
SWIDTH 500 0
DWIDTH 6 0
BBX 15 15 0 -1
BITMAP
0800
0804
0BFE
1040
1040
1040
3048
53FC
9088
1088
1088
1088
1088
1088
17FE
ENDCHAR
STARTCHAR uni4F0E
ENCODING 20238
SWIDTH 500 0
DWIDTH 6 0
BBX 15 15 0 -1
BITMAP
0840
0840
0840
17FE
1040
1040
33FC
5108
9108
1108
1090
1060
1090
110E
1604
ENDCHAR
STARTCHAR uni4F0F
ENCODING 20239
SWIDTH 500 0
DWIDTH 6 0
BBX 15 15 0 -1
BITMAP
0840
0850
084C
1044
1040
17FE
3040
5040
9040
1040
10A0
1110
1208
1406
1802
ENDCHAR
STARTCHAR uni4F10
ENCODING 20240
SWIDTH 500 0
DWIDTH 6 0
BBX 15 15 0 -1
BITMAP
08A0
0898
0888
1080
1086
10F8
37C0
504C
9048
1050
1060
1024
1054
118E
1604
ENDCHAR
STARTCHAR uni4F11
ENCODING 20241
SWIDTH 500 0
DWIDTH 6 0
BBX 15 15 0 -1
BITMAP
0840
0840
0840
1040
17FE
1040
30E0
5150
9150
1248
1248
1446
1842
1040
1040
ENDCHAR
STARTCHAR uni4F12
ENCODING 20242
SWIDTH 500 0
DWIDTH 6 0
BBX 15 15 0 -1
BITMAP
0808
091C
09E0
1100
1100
1100
31FE
5110
9110
1110
1110
1110
1210
1410
1810
ENDCHAR
STARTCHAR uni4F13
ENCODING 20243
SWIDTH 500 0
DWIDTH 6 0
BBX 15 15 0 -1
BITMAP
0800
0804
0BFE
1020
1040
1040
30D0
514C
9246
1442
1840
1040
1040
1040
1040
ENDCHAR
STARTCHAR uni4F14
ENCODING 20244
SWIDTH 500 0
DWIDTH 6 0
BBX 15 15 0 -1
BITMAP
0800
0BFE
0A02
1404
1010
11F8
3110
5110
9110
1110
1110
1110
1112
1212
140E
ENDCHAR
STARTCHAR uni4F15
ENCODING 20245
SWIDTH 500 0
DWIDTH 6 0
BBX 15 15 0 -1
BITMAP
0840
0840
0840
1040
13FC
1040
3040
57FE
9040
1040
10A0
1110
1208
1406
1802
ENDCHAR
STARTCHAR uni4F17
ENCODING 20247
SWIDTH 500 0
DWIDTH 6 0
BBX 14 15 0 -1
BITMAP
0200
0200
0500
0880
1060
201C
D048
1040
1040
1040
2840
24A0
4510
420C
8404
ENDCHAR
STARTCHAR uni4F18
ENCODING 20248
SWIDTH 500 0
DWIDTH 6 0
BBX 15 15 0 -1
BITMAP
0850
084C
0844
1040
17FE
1040
3060
5060
90A0
10A0
10A0
1124
1124
1226
141C
ENDCHAR
STARTCHAR uni4F19
ENCODING 20249
SWIDTH 500 0
DWIDTH 6 0
BBX 15 15 0 -1
BITMAP
0840
0840
0840
1040
104C
1248
3250
5260
9440
1040
10A0
1110
120C
1406
1802
ENDCHAR
STARTCHAR uni4F1A
ENCODING 20250
SWIDTH 500 0
DWIDTH 6 0
BBX 14 15 0 -1
BITMAP
0200
0300
0480
0840
1020
2090
4FCC
8004
0010
7FF8
0200
0440
09E0
7E30
2010
ENDCHAR
STARTCHAR uni4F1B
ENCODING 20251
SWIDTH 500 0
DWIDTH 6 0
BBX 15 15 0 -1
BITMAP
0804
0BFE
0A00
1200
1208
1288
3250
5220
9210
1228
1244
1284
1200
1204
13FE
ENDCHAR
STARTCHAR uni4F1D
ENCODING 20253
SWIDTH 500 0
DWIDTH 6 0
BBX 15 15 0 -1
BITMAP
0800
0810
0BF8
1000
1000
1004
37FE
5040
9040
1080
1090
1108
117C
1784
1204
ENDCHAR
STARTCHAR uni4F1E
ENCODING 20254
SWIDTH 500 0
DWIDTH 6 0
BBX 15 15 0 -1
BITMAP
0100
0280
0440
0820
3018
C106
1130
0D20
0540
0100
7FFE
0100
0100
0100
0100
ENDCHAR
STARTCHAR uni4F1F
ENCODING 20255
SWIDTH 500 0
DWIDTH 6 0
BBX 15 15 0 -1
BITMAP
0840
0840
0FFE
1040
1040
13FC
3040
5040
97FE
1042
1042
105C
1048
1040
1040
ENDCHAR
STARTCHAR uni4F20
ENCODING 20256
SWIDTH 500 0
DWIDTH 6 0
BBX 15 15 0 -1
BITMAP
0840
0840
0840
13FC
1080
1080
37FE
5080
91FC
1008
1010
11A0
1040
1030
1010
ENDCHAR
STARTCHAR uni4F22
ENCODING 20258
SWIDTH 500 0
DWIDTH 6 0
BBX 15 15 0 -1
BITMAP
0800
0804
0BFE
1110
1110
1210
3210
57FE
9030
1050
1090
1110
1210
14F0
1020
ENDCHAR
STARTCHAR uni4F24
ENCODING 20260
SWIDTH 500 0
DWIDTH 6 0
BBX 15 15 0 -1
BITMAP
0900
0900
0904
11FE
1200
1440
3044
53FE
9044
1044
1044
1084
1124
121C
1408
ENDCHAR
STARTCHAR uni4F25
ENCODING 20261
SWIDTH 500 0
DWIDTH 6 0
BBX 15 15 0 -1
BITMAP
0900
090C
0908
1110
1120
11C0
3104
57FE
9120
1120
1120
1110
1148
1186
1302
ENDCHAR
STARTCHAR uni4F26
ENCODING 20262
SWIDTH 500 0
DWIDTH 6 0
BBX 15 15 0 -1
BITMAP
0840
0840
08C0
10A0
1110
1208
3406
5102
9118
1130
11C0
1100
1104
1104
10FC
ENDCHAR
STARTCHAR uni4F27
ENCODING 20263
SWIDTH 500 0
DWIDTH 6 0
BBX 15 15 0 -1
BITMAP
0860
0840
0840
10A0
1110
1208
3406
59FA
9108
1108
1130
1104
1104
1106
10FC
ENDCHAR
STARTCHAR uni4F2A
ENCODING 20266
SWIDTH 500 0
DWIDTH 6 0
BBX 15 15 0 -1
BITMAP
0860
0C40
0B40
1140
1040
17FE
3042
5042
9052
104A
108A
1082
1112
120E
1404
ENDCHAR
STARTCHAR uni4F2B
ENCODING 20267
SWIDTH 500 0
DWIDTH 6 0
BBX 15 15 0 -1
BITMAP
0880
0860
0820
1000
13FE
1202
3404
5000
9000
1000
1000
1004
17FE
1000
1000
ENDCHAR
STARTCHAR uni4F2C
ENCODING 20268
SWIDTH 500 0
DWIDTH 6 0
BBX 15 15 0 -1
BITMAP
0804
09FE
0904
1104
1104
1104
31FC
5144
9140
1140
1120
1220
1210
140C
1806
ENDCHAR
STARTCHAR uni4F2D
ENCODING 20269
SWIDTH 500 0
DWIDTH 6 0
BBX 15 15 0 -1
BITMAP
0880
0860
0820
1004
17FE
1080
3118
5110
9260
17C0
1050
1088
113C
17C4
1204
ENDCHAR
STARTCHAR uni4F2F
ENCODING 20271
SWIDTH 500 0
DWIDTH 6 0
BBX 15 15 0 -1
BITMAP
0860
0840
0844
11FE
1104
1104
3104
5104
91FC
1104
1104
1104
1104
11FC
1104
ENDCHAR
STARTCHAR uni4F30
ENCODING 20272
SWIDTH 500 0
DWIDTH 6 0
BBX 15 15 0 -1
BITMAP
0840
0840
0840
1040
17FE
1040
3040
5040
93FC
1204
1204
1204
1204
13FC
1204
ENDCHAR
STARTCHAR uni4F32
ENCODING 20274
SWIDTH 500 0
DWIDTH 6 0
BBX 15 15 0 -1
BITMAP
0800
0BFC
0A04
1204
13FC
1204
3200
528C
9288
1290
12E0
1284
1484
1486
187C
ENDCHAR
STARTCHAR uni4F33
ENCODING 20275
SWIDTH 500 0
DWIDTH 6 0
BBX 15 15 0 -1
BITMAP
0800
0A48
0A48
1248
1248
17FE
3248
5248
9248
1248
1278
1248
1200
1204
13FE
ENDCHAR
STARTCHAR uni4F34
ENCODING 20276
SWIDTH 500 0
DWIDTH 6 0
BBX 15 15 0 -1
BITMAP
0840
0840
0A4C
1148
1150
1040
33FC
5040
9040
1040
17FE
1040
1040
1040
1040
ENDCHAR
STARTCHAR uni4F36
ENCODING 20278
SWIDTH 500 0
DWIDTH 6 0
BBX 15 15 0 -1
BITMAP
0840
0840
08A0
1110
1208
1486
3842
5048
93FC
1008
1010
11A0
1040
1020
1020
ENDCHAR
STARTCHAR uni4F38
ENCODING 20280
SWIDTH 500 0
DWIDTH 6 0
BBX 15 15 0 -1
BITMAP
0820
0820
0820
13FE
1222
1222
33FE
5222
9222
13FE
1222
1020
1020
1020
1020
ENDCHAR
STARTCHAR uni4F3A
ENCODING 20282
SWIDTH 500 0
DWIDTH 6 0
BBX 15 15 0 -1
BITMAP
0800
0BFE
0802
1002
17F2
1002
3002
53E2
9222
1222
13E2
1222
1002
101E
1004
ENDCHAR
STARTCHAR uni4F3B
ENCODING 20283
SWIDTH 500 0
DWIDTH 6 0
BBX 15 15 0 -1
BITMAP
0804
0BFE
0820
1124
1124
10A8
30A8
5020
97FE
1020
1020
1020
1020
1020
1020
ENDCHAR
STARTCHAR uni4F3C
ENCODING 20284
SWIDTH 500 0
DWIDTH 6 0
BBX 15 15 0 -1
BITMAP
0800
0804
0A04
1244
1224
1224
3224
5204
9204
1244
1288
1718
1224
1042
1182
ENDCHAR
STARTCHAR uni4F3D
ENCODING 20285
SWIDTH 500 0
DWIDTH 6 0
BBX 15 15 0 -1
BITMAP
0A00
0A00
0A00
12BE
17E2
12A2
32A2
52A2
92A2
12A2
12A2
14A2
14BE
1B22
1122
ENDCHAR
STARTCHAR uni4F3E
ENCODING 20286
SWIDTH 500 0
DWIDTH 6 0
BBX 15 15 0 -1
BITMAP
0804
0FFE
0820
1020
1040
1040
30C8
5146
9242
1440
1040
1040
1040
1004
17FE
ENDCHAR
STARTCHAR uni4F3F
ENCODING 20287
SWIDTH 500 0
DWIDTH 6 0
BBX 15 15 0 -1
BITMAP
0800
0804
09FE
1104
1104
1104
3104
5104
91FC
1104
1010
1088
1084
1102
1202
ENDCHAR
STARTCHAR uni4F41
ENCODING 20289
SWIDTH 500 0
DWIDTH 6 0
BBX 14 15 0 -1
BITMAP
0840
0840
0880
1088
1108
37FC
5204
9000
13FC
1204
1204
1204
1204
13FC
1204
ENDCHAR
STARTCHAR uni4F43
ENCODING 20291
SWIDTH 500 0
DWIDTH 6 0
BBX 15 15 0 -1
BITMAP
0800
0A02
0BFE
1222
1222
3222
5222
93FE
1222
1222
1222
1222
1222
13FE
1202
ENDCHAR
STARTCHAR uni4F46
ENCODING 20294
SWIDTH 500 0
DWIDTH 6 0
BBX 15 15 0 -1
BITMAP
0800
0A08
0BFC
1208
1208
3208
53F8
9208
1208
1208
13F8
1208
1000
1004
17FE
ENDCHAR
STARTCHAR uni4F47
ENCODING 20295
SWIDTH 500 0
DWIDTH 6 0
BBX 15 15 0 -1
BITMAP
0840
0820
0A22
13FE
1404
3000
5004
97FE
1020
1020
1020
1020
1120
10E0
1040
ENDCHAR
STARTCHAR uni4F48
ENCODING 20296
SWIDTH 500 0
DWIDTH 6 0
BBX 15 16 0 -2
BITMAP
0840
0840
0844
17FE
1080
30A0
5122
93FE
1522
1922
1122
1122
112E
1124
1020
0020
ENDCHAR
STARTCHAR uni4F49
ENCODING 20297
SWIDTH 500 0
DWIDTH 6 0
BBX 15 15 0 -1
BITMAP
0840
0840
0848
13FC
1040
3040
5044
97FE
1040
1040
1080
1088
1104
17FE
1202
ENDCHAR
STARTCHAR uni4F4C
ENCODING 20300
SWIDTH 500 0
DWIDTH 6 0
BBX 15 15 0 -1
BITMAP
0810
0910
0910
1110
1516
3514
55D8
9510
1510
1510
1510
1512
15D2
1612
180E
ENDCHAR
STARTCHAR uni4F4D
ENCODING 20301
SWIDTH 500 0
DWIDTH 6 0
BBX 15 15 0 -1
BITMAP
0840
0820
0820
1004
17FE
3000
5208
9108
1110
1090
1090
10A0
1020
1020
17FE
ENDCHAR
STARTCHAR uni4F4E
ENCODING 20302
SWIDTH 500 0
DWIDTH 6 0
BBX 15 15 0 -1
BITMAP
0804
0A0E
0BF0
1220
1220
3224
53FE
9220
1220
1220
1222
1252
128A
1366
1222
ENDCHAR
STARTCHAR uni4F4F
ENCODING 20303
SWIDTH 500 0
DWIDTH 6 0
BBX 15 15 0 -1
BITMAP
0880
0840
0804
17FE
1040
3040
5040
9048
13FC
1040
1040
1040
1040
1044
17FE
ENDCHAR
STARTCHAR uni4F50
ENCODING 20304
SWIDTH 500 0
DWIDTH 6 0
BBX 15 15 0 -1
BITMAP
0880
0880
0880
1084
17FE
3080
5080
9108
11FC
1220
1420
1820
1020
1024
17FE
ENDCHAR
STARTCHAR uni4F51
ENCODING 20305
SWIDTH 500 0
DWIDTH 6 0
BBX 15 15 0 -1
BITMAP
0840
0840
0840
1044
17FE
3080
5080
9084
11FE
1284
1484
1884
1084
10FC
1084
ENDCHAR
STARTCHAR uni4F52
ENCODING 20306
SWIDTH 500 0
DWIDTH 6 0
BBX 15 15 0 -1
BITMAP
0840
0840
0A48
13FC
1248
3248
5248
9248
1FFE
1040
1040
10A0
1118
120C
1404
ENDCHAR
STARTCHAR uni4F53
ENCODING 20307
SWIDTH 500 0
DWIDTH 6 0
BBX 15 15 0 -1
BITMAP
0840
0840
0844
17FE
1040
3040
50E0
9150
1248
1446
1842
13F8
1040
1040
1040
ENDCHAR
STARTCHAR uni4F54
ENCODING 20308
SWIDTH 500 0
DWIDTH 6 0
BBX 15 15 0 -1
BITMAP
0840
0840
0840
1044
107E
3040
5040
9244
13FE
1204
1204
1204
1204
13FC
1204
ENDCHAR
STARTCHAR uni4F55
ENCODING 20309
SWIDTH 500 0
DWIDTH 6 0
BBX 15 15 0 -1
BITMAP
0800
0804
0BFE
1008
1008
33E8
5228
9228
1228
13E8
1228
1008
1008
1078
1010
ENDCHAR
STARTCHAR uni4F56
ENCODING 20310
SWIDTH 500 0
DWIDTH 6 0
BBX 15 15 0 -1
BITMAP
0800
0840
0828
1028
1088
3088
5088
9290
1294
14A2
14A2
10C8
1088
1188
167C
ENDCHAR
STARTCHAR uni4F57
ENCODING 20311
SWIDTH 500 0
DWIDTH 6 0
BBX 15 15 0 -1
BITMAP
0840
0820
0A22
13FE
1404
3000
5100
9118
1130
11C0
1100
1102
1104
1104
10FE
ENDCHAR
STARTCHAR uni4F58
ENCODING 20312
SWIDTH 500 0
DWIDTH 6 0
BBX 14 15 0 -1
BITMAP
0300
0480
0840
1020
2010
5FEC
8004
0010
7FF8
0100
1940
1120
2910
4708
8208
ENDCHAR
STARTCHAR uni4F59
ENCODING 20313
SWIDTH 500 0
DWIDTH 6 0
BBX 14 15 0 -1
BITMAP
0300
0480
0840
1020
2010
5FEC
8104
0110
7FF8
0100
1940
1120
2910
4708
8208
ENDCHAR
STARTCHAR uni4F5A
ENCODING 20314
SWIDTH 500 0
DWIDTH 6 0
BBX 15 15 0 -1
BITMAP
0840
0A40
0A40
1248
13FC
3440
5040
9044
17FE
1040
10A0
1110
1208
1406
1802
ENDCHAR
STARTCHAR uni4F5B
ENCODING 20315
SWIDTH 500 0
DWIDTH 6 0
BBX 15 15 0 -1
BITMAP
0890
0894
0BFE
1094
1094
33FC
5290
9490
17FE
1092
1092
1112
111C
1210
1410
ENDCHAR
STARTCHAR uni4F5C
ENCODING 20316
SWIDTH 500 0
DWIDTH 6 0
BBX 15 15 0 -1
BITMAP
0880
0880
0884
11FE
1140
3240
5444
907E
1040
1044
107E
1040
1040
1040
1040
ENDCHAR
STARTCHAR uni4F5D
ENCODING 20317
SWIDTH 500 0
DWIDTH 6 0
BBX 15 15 0 -1
BITMAP
0900
0900
0904
11FE
1204
3204
55E4
9124
1124
1124
11E4
1124
1004
103C
1008
ENDCHAR
STARTCHAR uni4F5E
ENCODING 20318
SWIDTH 500 0
DWIDTH 6 0
BBX 15 15 0 -1
BITMAP
0808
0BFC
0800
1004
17FE
3040
5040
9084
1FFE
1110
1110
13A0
1060
1098
1706
ENDCHAR
STARTCHAR uni4F5F
ENCODING 20319
SWIDTH 500 0
DWIDTH 6 0
BBX 15 15 0 -1
BITMAP
0900
0908
09FC
1108
1310
34A0
5040
90A0
1318
1C46
1030
1010
1180
1060
1018
ENDCHAR
STARTCHAR uni4F60
ENCODING 20320
SWIDTH 500 0
DWIDTH 6 0
BBX 15 15 0 -1
BITMAP
0900
0900
0902
11FE
1124
3224
5420
9020
11A8
1124
1222
1422
1120
10E0
1040
ENDCHAR
STARTCHAR uni4F61
ENCODING 20321
SWIDTH 500 0
DWIDTH 6 0
BBX 15 15 0 -1
BITMAP
0840
0840
08A0
1110
1208
3446
5842
9040
1444
1444
1444
1444
1444
17FC
1404
ENDCHAR
STARTCHAR uni4F62
ENCODING 20322
SWIDTH 500 0
DWIDTH 6 0
BBX 15 15 0 -1
BITMAP
0A04
0BFE
0A00
1200
1208
33FC
5208
9208
1208
13F8
1208
1200
1200
1204
13FE
ENDCHAR
STARTCHAR uni4F63
ENCODING 20323
SWIDTH 500 0
DWIDTH 6 0
BBX 15 15 0 -1
BITMAP
0A02
0BFE
0A22
1222
1222
33FE
5222
9222
1222
13FE
1222
1222
1222
142E
1822
ENDCHAR
STARTCHAR uni4F64
ENCODING 20324
SWIDTH 500 0
DWIDTH 6 0
BBX 15 15 0 -1
BITMAP
0804
0FFE
0900
1100
1110
33F8
5210
9210
1290
1250
1250
1210
1292
1312
120E
ENDCHAR
STARTCHAR uni4F65
ENCODING 20325
SWIDTH 500 0
DWIDTH 6 0
BBX 14 15 0 -1
BITMAP
0100
0300
0480
0840
1020
2010
404C
9FE4
0000
0210
1220
1120
0940
0848
FFFC
ENDCHAR
STARTCHAR uni4F67
ENCODING 20327
SWIDTH 500 0
DWIDTH 6 0
BBX 15 15 0 -1
BITMAP
0840
0840
0848
107C
1040
3044
57FE
9040
1040
1070
104C
1044
1040
1040
1040
ENDCHAR
STARTCHAR uni4F69
ENCODING 20329
SWIDTH 500 0
DWIDTH 6 0
BBX 15 15 0 -1
BITMAP
2808
2FFC
2808
2BE8
2888
2888
6AA8
ABF8
2AA8
2AA8
2AA8
2AA8
2AEA
2886
3082
ENDCHAR
STARTCHAR uni4F6A
ENCODING 20330
SWIDTH 500 0
DWIDTH 6 0
BBX 15 15 0 -1
BITMAP
0A02
0BFE
0A02
1202
1292
32FA
5292
9292
1292
12F2
1292
1202
1202
13FE
1202
ENDCHAR
STARTCHAR uni4F6B
ENCODING 20331
SWIDTH 500 0
DWIDTH 6 0
BBX 15 15 0 -1
BITMAP
0900
0908
09FC
1308
1490
3060
5090
9108
1206
15FA
1108
1108
1108
11F8
1108
ENDCHAR
STARTCHAR uni4F6C
ENCODING 20332
SWIDTH 500 0
DWIDTH 6 0
BBX 15 15 0 -1
BITMAP
0880
0880
0886
13F4
1088
3090
57FE
9020
1040
1088
1190
12E2
1482
1082
107E
ENDCHAR
STARTCHAR uni4F6E
ENCODING 20334
SWIDTH 500 0
DWIDTH 6 0
BBX 15 15 0 -1
BITMAP
0840
0840
08A0
1110
1208
3406
59F2
9000
1208
13FC
1208
1208
1208
13F8
1208
ENDCHAR
STARTCHAR uni4F6F
ENCODING 20335
SWIDTH 500 0
DWIDTH 6 0
BBX 15 15 0 -1
BITMAP
0908
0908
0890
10A4
17FE
3040
5048
93FC
1040
1044
17FE
1040
1040
1040
1040
ENDCHAR
STARTCHAR uni4F70
ENCODING 20336
SWIDTH 500 0
DWIDTH 6 0
BBX 15 15 0 -1
BITMAP
0804
0BFE
0820
1020
1244
33FE
5204
9204
1204
13FC
1204
1204
1204
13FC
1204
ENDCHAR
STARTCHAR uni4F73
ENCODING 20339
SWIDTH 500 0
DWIDTH 6 0
BBX 15 15 0 -1
BITMAP
0840
0848
0BFC
1040
1040
3044
57FE
9000
1040
1048
13FC
1040
1040
1044
17FE
ENDCHAR
STARTCHAR uni4F74
ENCODING 20340
SWIDTH 500 0
DWIDTH 6 0
BBX 15 15 0 -1
BITMAP
0804
0FFE
0908
1108
1108
31F8
5108
9108
1108
11F8
1108
110E
11F8
1708
1008
ENDCHAR
STARTCHAR uni4F75
ENCODING 20341
SWIDTH 500 0
DWIDTH 6 0
BBX 15 15 0 -1
BITMAP
0908
0888
0890
1010
17FC
3090
5090
9090
17FE
1090
1090
1090
1110
1210
1410
ENDCHAR
STARTCHAR uni4F76
ENCODING 20342
SWIDTH 500 0
DWIDTH 6 0
BBX 15 15 0 -1
BITMAP
0840
0840
0844
17FE
1040
3048
53FC
9000
1204
13FE
1204
1204
1204
13FC
1204
ENDCHAR
STARTCHAR uni4F77
ENCODING 20343
SWIDTH 500 0
DWIDTH 6 0
BBX 15 15 0 -1
BITMAP
0A08
0BFC
0A08
1208
13F8
3208
53F8
9248
1244
1248
1230
1210
1288
1306
1602
ENDCHAR
STARTCHAR uni4F78
ENCODING 20344
SWIDTH 500 0
DWIDTH 6 0
BBX 15 15 0 -1
BITMAP
0808
081C
0BE0
1040
1044
37FE
5040
9040
1444
17FE
1404
1404
1404
17FC
1404
ENDCHAR
STARTCHAR uni4F79
ENCODING 20345
SWIDTH 500 0
DWIDTH 6 0
BBX 15 15 0 -1
BITMAP
0908
09FC
0908
1110
1224
37FE
5A00
927C
1244
1244
1244
1258
1242
1442
183E
ENDCHAR
STARTCHAR uni4F7A
ENCODING 20346
SWIDTH 500 0
DWIDTH 6 0
BBX 15 15 0 -1
BITMAP
0840
0840
08A0
1110
1208
3406
5BFA
9040
1040
1048
17FC
1040
1040
1044
1FFE
ENDCHAR
STARTCHAR uni4F7B
ENCODING 20347
SWIDTH 500 0
DWIDTH 6 0
BBX 15 15 0 -1
BITMAP
0890
0890
0890
1096
1494
3298
5290
9090
119C
1692
1090
1110
1112
1212
140E
ENDCHAR
STARTCHAR uni4F7C
ENCODING 20348
SWIDTH 500 0
DWIDTH 6 0
BBX 15 15 0 -1
BITMAP
0880
0840
0844
17FE
1110
3208
5414
9010
1120
1120
10C0
1040
10A0
1318
1C06
ENDCHAR
STARTCHAR uni4F7D
ENCODING 20349
SWIDTH 500 0
DWIDTH 6 0
BBX 15 15 0 -1
BITMAP
0840
0840
0C42
127E
1042
3094
5110
9210
1210
1C10
1410
1428
1444
1086
1102
ENDCHAR
STARTCHAR uni4F7E
ENCODING 20350
SWIDTH 500 0
DWIDTH 6 0
BBX 15 15 0 -1
BITMAP
0810
0990
0908
1204
17FA
3A0A
5208
93F8
1208
1208
13F8
1208
1248
1438
1810
ENDCHAR
STARTCHAR uni4F7F
ENCODING 20351
SWIDTH 500 0
DWIDTH 6 0
BBX 15 15 0 -1
BITMAP
0820
0824
0FFE
1020
1224
33FE
5224
9224
13FC
1224
1120
10C0
10A0
1318
1C06
ENDCHAR
STARTCHAR uni4F80
ENCODING 20352
SWIDTH 500 0
DWIDTH 6 0
BBX 15 15 0 -1
BITMAP
1002
1042
1FE2
2292
2292
2292
6292
AFF2
2292
2292
2292
2292
2482
249E
2884
ENDCHAR
STARTCHAR uni4F81
ENCODING 20353
SWIDTH 500 0
DWIDTH 6 0
BBX 15 15 0 -1
BITMAP
0840
0A40
0A48
13FC
1440
3040
5044
97FE
1090
1090
1090
1090
1112
1212
140E
ENDCHAR
STARTCHAR uni4F82
ENCODING 20354
SWIDTH 500 0
DWIDTH 6 0
BBX 15 15 0 -1
BITMAP
1040
1424
17FE
2400
2418
6460
A5A0
2424
243E
25E0
2420
2422
2822
2822
301E
ENDCHAR
STARTCHAR uni4F83
ENCODING 20355
SWIDTH 500 0
DWIDTH 6 0
BBX 15 15 0 -1
BITMAP
0A04
0BFE
0A04
1204
1204
33FC
5204
9000
1248
1248
1248
1248
124A
144A
184E
ENDCHAR
STARTCHAR uni4F84
ENCODING 20356
SWIDTH 500 0
DWIDTH 6 0
BBX 15 15 0 -1
BITMAP
0804
0BFE
0840
1040
1088
3104
53FE
9002
1040
1048
13FC
1040
1040
1044
17FE
ENDCHAR
STARTCHAR uni4F85
ENCODING 20357
SWIDTH 500 0
DWIDTH 6 0
BBX 15 15 0 -1
BITMAP
0840
0820
0824
17FE
1080
3098
5110
93E0
104C
1088
1110
1630
104C
1082
1302
ENDCHAR
STARTCHAR uni4F86
ENCODING 20358
SWIDTH 500 0
DWIDTH 6 0
BBX 14 15 0 -1
BITMAP
0200
0208
FFFC
0200
2220
2220
2220
5250
8708
0A80
1240
2220
4218
8208
0200
ENDCHAR
STARTCHAR uni4F87
ENCODING 20359
SWIDTH 500 0
DWIDTH 6 0
BBX 15 15 0 -1
BITMAP
0840
0844
0FFE
1040
17FC
3044
57FC
9440
17FE
1042
10A2
10AC
1110
1208
1406
ENDCHAR
STARTCHAR uni4F88
ENCODING 20360
SWIDTH 500 0
DWIDTH 6 0
BBX 15 15 0 -1
BITMAP
0844
08FE
0904
1688
1050
3020
5040
9180
1644
10FE
1104
1688
1050
1020
17C0
ENDCHAR
STARTCHAR uni4F89
ENCODING 20361
SWIDTH 500 0
DWIDTH 6 0
BBX 15 15 0 -1
BITMAP
0840
0844
0FFE
1110
1208
3404
59F2
9000
17FC
1100
13FC
1008
1008
10F0
1020
ENDCHAR
STARTCHAR uni4F8B
ENCODING 20363
SWIDTH 500 0
DWIDTH 6 0
BBX 15 15 0 -1
BITMAP
0800
0842
0FE2
1212
1252
33F2
5452
9652
1952
1092
1092
1112
1102
121E
1404
ENDCHAR
STARTCHAR uni4F8D
ENCODING 20365
SWIDTH 500 0
DWIDTH 6 0
BBX 15 15 0 -1
BITMAP
0840
0840
0848
13FC
1040
3044
57FE
9010
1014
17FE
1210
1110
1110
1070
1020
ENDCHAR
STARTCHAR uni4F8F
ENCODING 20367
SWIDTH 500 0
DWIDTH 6 0
BBX 15 15 0 -1
BITMAP
0820
0920
0928
11FC
1220
3420
5024
97FE
1020
1070
10A8
1124
1222
1422
1020
ENDCHAR
STARTCHAR uni4F90
ENCODING 20368
SWIDTH 500 0
DWIDTH 6 0
BBX 15 15 0 -1
BITMAP
1040
1040
1080
2904
2FFE
6924
A924
2924
2924
2924
2924
2924
2924
2924
3FFE
ENDCHAR
STARTCHAR uni4F91
ENCODING 20369
SWIDTH 500 0
DWIDTH 6 0
BBX 15 15 0 -1
BITMAP
0840
0844
0FFE
1080
1084
31FE
5104
9304
15FC
1904
1104
11FC
1104
111C
1108
ENDCHAR
STARTCHAR uni4F92
ENCODING 20370
SWIDTH 500 0
DWIDTH 6 0
BBX 15 15 0 -1
BITMAP
0840
0820
0A22
13FE
1244
3440
5044
97FE
1090
1110
1110
10E0
1030
10C8
1706
ENDCHAR
STARTCHAR uni4F94
ENCODING 20372
SWIDTH 500 0
DWIDTH 6 0
BBX 15 15 0 -1
BITMAP
0840
0840
0888
1104
13FE
3022
5128
91FC
1220
1024
17FE
1020
1020
1020
1020
ENDCHAR
STARTCHAR uni4F95
ENCODING 20373
SWIDTH 500 0
DWIDTH 6 0
BBX 15 15 0 -1
BITMAP
0800
0804
0FFE
1040
1484
37FE
54A4
94A4
14A4
14A4
14A4
14A4
14A4
14A4
140C
ENDCHAR
STARTCHAR uni4F96
ENCODING 20374
SWIDTH 500 0
DWIDTH 6 0
BBX 14 14 0 -1
BITMAP
0300
0480
0840
3030
CFCC
2010
3FF8
2490
2490
3FF0
2490
2490
2490
2430
ENDCHAR
STARTCHAR uni4F97
ENCODING 20375
SWIDTH 500 0
DWIDTH 6 0
BBX 15 15 0 -1
BITMAP
0A04
0BFE
0A04
1204
12F4
3204
52F4
9294
1294
1294
12F4
1294
1204
121C
1208
ENDCHAR
STARTCHAR uni4F98
ENCODING 20376
SWIDTH 500 0
DWIDTH 6 0
BBX 15 15 0 -1
BITMAP
0840
0820
0A22
13FE
1204
3438
53C0
9040
1046
1078
17C0
1040
1042
1042
103E
ENDCHAR
STARTCHAR uni4F9A
ENCODING 20378
SWIDTH 500 0
DWIDTH 6 0
BBX 15 15 0 -1
BITMAP
0900
0900
0902
11FE
1202
35F2
5912
9112
11F2
1112
1112
11F2
1112
101E
1004
ENDCHAR
STARTCHAR uni4F9B
ENCODING 20379
SWIDTH 500 0
DWIDTH 6 0
BBX 15 15 0 -1
BITMAP
0890
0890
0890
1090
17FE
3090
5090
9090
1090
17FE
1000
1090
110C
1206
1402
ENDCHAR
STARTCHAR uni4F9C
ENCODING 20380
SWIDTH 500 0
DWIDTH 6 0
BBX 15 15 0 -1
BITMAP
0840
0948
09FC
1108
1148
3128
5108
97FE
1108
1148
1128
1128
1208
1238
1408
ENDCHAR
STARTCHAR uni4F9D
ENCODING 20381
SWIDTH 500 0
DWIDTH 6 0
BBX 15 15 0 -1
BITMAP
0880
0840
0844
17FE
1040
30A0
50A4
9128
1330
1520
1910
1108
1146
1182
1100
ENDCHAR
STARTCHAR uni4F9E
ENCODING 20382
SWIDTH 500 0
DWIDTH 6 0
BBX 15 15 0 -1
BITMAP
0A00
0A00
0A12
125E
1FF2
3252
5252
9252
1492
1492
1312
1112
129E
1452
1840
ENDCHAR
STARTCHAR uni4FA0
ENCODING 20384
SWIDTH 500 0
DWIDTH 6 0
BBX 15 15 0 -1
BITMAP
0840
0848
0FFC
1040
1248
3150
5150
9040
17FE
1040
1040
10A0
1110
1208
1C06
ENDCHAR
STARTCHAR uni4FA3
ENCODING 20387
SWIDTH 500 0
DWIDTH 6 0
BBX 15 15 0 -1
BITMAP
0904
09FE
0904
1104
1104
3104
51FC
9104
1000
13FE
1202
1202
1202
13FE
1202
ENDCHAR
STARTCHAR uni4FA5
ENCODING 20389
SWIDTH 500 0
DWIDTH 6 0
BBX 15 15 0 -1
BITMAP
0900
090C
0FF0
1088
1092
3062
519E
9600
1004
17FE
1120
1120
1122
1222
141E
ENDCHAR
STARTCHAR uni4FA6
ENCODING 20390
SWIDTH 500 0
DWIDTH 6 0
BBX 15 15 0 -1
BITMAP
0840
0844
087E
1040
13FC
3204
5244
9244
1244
1244
1244
1244
1090
1108
1606
ENDCHAR
STARTCHAR uni4FA7
ENCODING 20391
SWIDTH 500 0
DWIDTH 6 0
BBX 15 15 0 -1
BITMAP
0802
0802
0FD2
1452
1552
3552
5552
9552
1552
1552
1552
1102
1292
144E
1824
ENDCHAR
STARTCHAR uni4FA8
ENCODING 20392
SWIDTH 500 0
DWIDTH 6 0
BBX 15 15 0 -1
BITMAP
0808
081C
0BE0
1044
17FE
3090
5108
9206
1512
1110
1110
1110
1110
1210
1410
ENDCHAR
STARTCHAR uni4FA9
ENCODING 20393
SWIDTH 500 0
DWIDTH 6 0
BBX 15 15 0 -1
BITMAP
0840
0840
08A0
1110
1208
3406
59F2
9000
1004
17FE
1040
1090
1108
17FC
1204
ENDCHAR
STARTCHAR uni4FAA
ENCODING 20394
SWIDTH 500 0
DWIDTH 6 0
BBX 15 15 0 -1
BITMAP
0880
0844
0FFE
1108
1090
3060
5198
9606
1108
1108
1108
1108
1108
1208
1408
ENDCHAR
STARTCHAR uni4FAC
ENCODING 20396
SWIDTH 500 0
DWIDTH 6 0
BBX 15 15 0 -1
BITMAP
0820
0820
0A22
13FE
1444
3444
50A0
9126
1324
1518
1910
1108
1128
1146
1182
ENDCHAR
STARTCHAR uni4FAE
ENCODING 20398
SWIDTH 500 0
DWIDTH 6 0
BBX 15 15 0 -1
BITMAP
0900
0904
0BFE
1400
13F8
3288
5248
9208
1FFE
1288
1248
1208
17FE
1008
1070
ENDCHAR
STARTCHAR uni4FAF
ENCODING 20399
SWIDTH 500 0
DWIDTH 6 0
BBX 15 15 0 -1
BITMAP
0810
0BF8
0810
1010
17FE
3200
53FC
9440
1044
1FFE
1040
10A0
1110
1208
1406
ENDCHAR
STARTCHAR uni4FB2
ENCODING 20402
SWIDTH 500 0
DWIDTH 6 0
BBX 15 15 0 -1
BITMAP
0A04
0BFE
0A00
1208
12FC
3200
5200
93FE
1290
1292
1294
1288
14A8
14C6
1882
ENDCHAR
STARTCHAR uni4FB3
ENCODING 20403
SWIDTH 500 0
DWIDTH 6 0
BBX 15 15 0 -1
BITMAP
0840
0840
0A48
1248
1248
3348
54D4
9862
1040
1048
13FC
1040
1040
1044
17FE
ENDCHAR
STARTCHAR uni4FB5
ENCODING 20405
SWIDTH 500 0
DWIDTH 6 0
BBX 15 15 0 -1
BITMAP
0BFC
0804
09FC
1004
13FC
3000
57FE
9402
1BFC
1108
1088
1050
1060
1198
1606
ENDCHAR
STARTCHAR uni4FB6
ENCODING 20406
SWIDTH 500 0
DWIDTH 6 0
BBX 15 15 0 -1
BITMAP
0904
09FE
0904
1104
1104
31FC
5124
9040
13FE
1202
1202
1202
1202
13FE
1202
ENDCHAR
STARTCHAR uni4FB7
ENCODING 20407
SWIDTH 500 0
DWIDTH 6 0
BBX 15 15 0 -1
BITMAP
0A04
0BFE
0A04
1204
13FC
3200
53FE
9202
12F2
1292
1292
12F2
1292
1402
181C
ENDCHAR
STARTCHAR uni4FB9
ENCODING 20409
SWIDTH 500 0
DWIDTH 6 0
BBX 15 15 0 -1
BITMAP
1104
1F8E
1170
2210
2210
6414
AF7E
2110
2110
2110
2914
25FE
2200
2500
28FE
ENDCHAR
STARTCHAR uni4FBA
ENCODING 20410
SWIDTH 500 0
DWIDTH 6 0
BBX 15 15 0 -1
BITMAP
0820
0A22
0A22
13FE
1222
3060
5090
9108
1246
1422
13FC
1008
1010
1020
1040
ENDCHAR
STARTCHAR uni4FBB
ENCODING 20411
SWIDTH 500 0
DWIDTH 6 0
BBX 15 15 0 -1
BITMAP
0A18
0910
08A0
1224
13FE
3204
5204
93FC
1204
10A0
10A0
10A0
1122
1222
141E
ENDCHAR
STARTCHAR uni4FBF
ENCODING 20415
SWIDTH 500 0
DWIDTH 6 0
BBX 15 15 0 -1
BITMAP
1004
17FE
1040
2444
27FE
2444
67FC
A444
27FC
2444
2240
2140
2080
2140
2E3E
ENDCHAR
STARTCHAR uni4FC0
ENCODING 20416
SWIDTH 500 0
DWIDTH 6 0
BBX 15 15 0 -1
BITMAP
0808
083C
0BC2
1042
1224
3128
5040
9044
17FE
1090
1110
1110
10E0
1058
1786
ENDCHAR
STARTCHAR uni4FC1
ENCODING 20417
SWIDTH 500 0
DWIDTH 6 0
BBX 15 15 0 -1
BITMAP
11F8
1108
1108
1508
15F8
3400
57FC
9444
1044
1044
1FFE
10A0
1110
1208
1C06
ENDCHAR
STARTCHAR uni4FC2
ENCODING 20418
SWIDTH 500 0
DWIDTH 6 0
BBX 15 15 0 -1
BITMAP
0808
083C
0BC0
1040
1088
33F0
5048
9084
13FE
1022
1128
1124
1222
14E2
1020
ENDCHAR
STARTCHAR uni4FC3
ENCODING 20419
SWIDTH 500 0
DWIDTH 6 0
BBX 15 15 0 -1
BITMAP
0904
09FE
0904
1104
1104
31FC
5124
9020
1220
1224
123E
1220
1320
14A0
187E
ENDCHAR
STARTCHAR uni4FC4
ENCODING 20420
SWIDTH 500 0
DWIDTH 6 0
BBX 15 15 0 -1
BITMAP
0820
09A8
0F24
1124
1120
37FE
5120
9164
11A4
1328
1510
1112
112A
1746
1282
ENDCHAR
STARTCHAR uni4FC5
ENCODING 20421
SWIDTH 500 0
DWIDTH 6 0
BBX 15 15 0 -1
BITMAP
0840
0850
0848
1040
17FE
3040
5244
9168
1150
10D0
1148
1244
1446
11C2
1040
ENDCHAR
STARTCHAR uni4FC7
ENCODING 20423
SWIDTH 500 0
DWIDTH 6 0
BBX 15 15 0 -1
BITMAP
1000
1184
157E
2210
2510
6910
A110
2310
257C
2910
2110
2110
2110
2F14
22FE
ENDCHAR
STARTCHAR uni4FC9
ENCODING 20425
SWIDTH 500 0
DWIDTH 6 0
BBX 15 15 0 -1
BITMAP
0BFC
0840
0848
13FC
1088
3088
5088
97FE
1000
11FC
1104
1104
1104
11FC
1104
ENDCHAR
STARTCHAR uni4FCA
ENCODING 20426
SWIDTH 500 0
DWIDTH 6 0
BBX 15 15 0 -1
BITMAP
0840
0888
0904
17FE
1002
3118
5204
9482
10F8
1108
1290
1490
1060
1198
1606
ENDCHAR
STARTCHAR uni4FCB
ENCODING 20427
SWIDTH 500 0
DWIDTH 6 0
BBX 15 15 0 -1
BITMAP
0908
09FC
0908
1108
11F8
3000
53FC
9244
1244
13FC
1204
1200
1202
1202
11FE
ENDCHAR
STARTCHAR uni4FCD
ENCODING 20429
SWIDTH 500 0
DWIDTH 6 0
BBX 15 15 0 -1
BITMAP
0880
0848
0BFC
1208
1208
33F8
5208
9208
13F8
1244
1248
1230
1288
1304
1202
ENDCHAR
STARTCHAR uni4FCE
ENCODING 20430
SWIDTH 500 0
DWIDTH 6 0
BBX 15 15 0 -1
BITMAP
1084
10FE
1084
1084
2884
26FC
4284
9084
1084
1084
18FC
2684
2284
4084
87FE
ENDCHAR
STARTCHAR uni4FCF
ENCODING 20431
SWIDTH 500 0
DWIDTH 6 0
BBX 15 15 0 -1
BITMAP
0A22
0924
0924
1020
13FE
3202
5202
93FE
1202
1202
13FE
1202
1202
121E
1204
ENDCHAR
STARTCHAR uni4FD0
ENCODING 20432
SWIDTH 500 0
DWIDTH 6 0
BBX 15 15 0 -1
BITMAP
0842
08E2
0F02
1112
1112
3FF2
5112
9192
1352
1552
1912
1102
1102
111E
1104
ENDCHAR
STARTCHAR uni4FD1
ENCODING 20433
SWIDTH 500 0
DWIDTH 6 0
BBX 15 15 0 -1
BITMAP
0BFC
0804
0888
1050
13FE
3222
5222
93FE
1222
1222
13FE
1222
1222
122E
1202
ENDCHAR
STARTCHAR uni4FD3
ENCODING 20435
SWIDTH 500 0
DWIDTH 6 0
BBX 15 15 0 -1
BITMAP
0804
0FFE
0A48
1248
1490
3490
5248
9248
1000
17FC
1040
1040
1040
1044
1FFE
ENDCHAR
STARTCHAR uni4FD4
ENCODING 20436
SWIDTH 500 0
DWIDTH 6 0
BBX 15 15 0 -1
BITMAP
0BFC
0A04
0A04
13FC
1204
3204
53FC
9204
1204
13FC
1294
1090
1092
1112
160E
ENDCHAR
STARTCHAR uni4FD6
ENCODING 20438
SWIDTH 500 0
DWIDTH 6 0
BBX 15 15 0 -1
BITMAP
0804
0BFE
0810
1020
1068
30A4
5122
9222
1104
11FE
1104
1104
1104
11FC
1104
ENDCHAR
STARTCHAR uni4FD7
ENCODING 20439
SWIDTH 500 0
DWIDTH 6 0
BBX 15 15 0 -1
BITMAP
0890
0890
090C
1204
1440
30A0
5110
9208
1406
1BFA
1208
1208
1208
13F8
1208
ENDCHAR
STARTCHAR uni4FD8
ENCODING 20440
SWIDTH 500 0
DWIDTH 6 0
BBX 15 15 0 -1
BITMAP
0808
081C
0FE2
1242
1124
3120
57FC
9010
1020
1024
17FE
1020
1020
11E0
1040
ENDCHAR
STARTCHAR uni4FD9
ENCODING 20441
SWIDTH 500 0
DWIDTH 6 0
BBX 15 15 0 -1
BITMAP
0904
0888
0870
118C
1040
37FE
50A0
9122
13FE
1522
1922
1122
112E
1122
1020
ENDCHAR
STARTCHAR uni4FDA
ENCODING 20442
SWIDTH 500 0
DWIDTH 6 0
BBX 15 15 0 -1
BITMAP
0A04
0BFE
0A44
1244
13FC
3244
5244
93FC
1244
1040
1048
13FC
1040
1044
17FE
ENDCHAR
STARTCHAR uni4FDB
ENCODING 20443
SWIDTH 500 0
DWIDTH 6 0
BBX 15 15 0 -1
BITMAP
0900
0910
09F8
1224
17FE
3A44
5244
9244
13FC
1244
1040
10A0
1122
1222
141E
ENDCHAR
STARTCHAR uni4FDC
ENCODING 20444
SWIDTH 500 0
DWIDTH 6 0
BBX 15 15 0 -1
BITMAP
0840
0A44
0BFE
1244
13FC
3244
53FC
9000
17FE
1100
13FC
1008
1008
10F0
1020
ENDCHAR
STARTCHAR uni4FDD
ENCODING 20445
SWIDTH 500 0
DWIDTH 6 0
BBX 15 15 0 -1
BITMAP
0A08
0BFC
0A08
1208
1208
33F8
5248
9044
1FFE
10C0
1160
1250
144C
1844
1040
ENDCHAR
STARTCHAR uni4FDE
ENCODING 20446
SWIDTH 500 0
DWIDTH 6 0
BBX 14 15 0 -1
BITMAP
0300
0480
0840
3030
CFCC
0000
4208
7F48
4248
7E48
4248
7E48
4248
4238
4E10
ENDCHAR
STARTCHAR uni4FDF
ENCODING 20447
SWIDTH 500 0
DWIDTH 6 0
BBX 15 15 0 -1
BITMAP
0840
0880
0908
13FC
1004
3100
5108
93FC
1440
1044
17FE
10A0
1110
120C
1C06
ENDCHAR
STARTCHAR uni4FE0
ENCODING 20448
SWIDTH 500 0
DWIDTH 6 0
BBX 15 15 0 -1
BITMAP
0840
0840
0844
17FE
1040
3248
5248
924C
1552
1860
10A0
1090
110C
1206
1402
ENDCHAR
STARTCHAR uni4FE1
ENCODING 20449
SWIDTH 500 0
DWIDTH 6 0
BBX 15 15 0 -1
BITMAP
0840
0824
0FFE
1000
1008
33FC
5000
9008
13FC
1000
13FC
1204
1204
13FC
1204
ENDCHAR
STARTCHAR uni4FE3
ENCODING 20451
SWIDTH 500 0
DWIDTH 6 0
BBX 15 15 0 -1
BITMAP
0A08
0BFC
0A08
1208
13F8
3208
5004
97FE
1040
1044
17FE
1040
10A0
1318
1C06
ENDCHAR
STARTCHAR uni4FE6
ENCODING 20454
SWIDTH 500 0
DWIDTH 6 0
BBX 15 15 0 -1
BITMAP
0880
0888
0FFC
1080
17F8
3100
57FE
9110
1214
13FE
1510
1890
1010
1070
1020
ENDCHAR
STARTCHAR uni4FE8
ENCODING 20456
SWIDTH 500 0
DWIDTH 6 0
BBX 15 15 0 -1
BITMAP
0804
0BFE
0850
1252
1154
3050
53FE
9200
1200
1200
1200
1200
1200
1400
1800
ENDCHAR
STARTCHAR uni4FE9
ENCODING 20457
SWIDTH 500 0
DWIDTH 6 0
BBX 15 15 0 -1
BITMAP
0804
0FFE
0890
1090
1492
37FE
5492
9492
1492
155A
1626
1422
1442
148E
1402
ENDCHAR
STARTCHAR uni4FEA
ENCODING 20458
SWIDTH 500 0
DWIDTH 6 0
BBX 15 15 0 -1
BITMAP
1000
1004
1FFE
2000
2FBE
68A2
A8A2
2CB2
2AAA
2AAA
28A2
28A2
28A2
29AE
28A4
ENDCHAR
STARTCHAR uni4FEC
ENCODING 20460
SWIDTH 500 0
DWIDTH 6 0
BBX 15 15 0 -1
BITMAP
1048
10E8
1708
2108
2108
6FF0
A110
2190
2350
2550
2924
2924
2122
217E
2102
ENDCHAR
STARTCHAR uni4FED
ENCODING 20461
SWIDTH 500 0
DWIDTH 6 0
BBX 15 15 0 -1
BITMAP
0820
0860
0890
1108
1206
3412
53F8
9000
1088
1048
1248
1110
1110
1000
17FE
ENDCHAR
STARTCHAR uni4FEE
ENCODING 20462
SWIDTH 500 0
DWIDTH 6 0
BBX 15 15 0 -1
BITMAP
0880
0888
08FC
1488
1550
3620
54D8
9706
1420
1448
1592
1464
1598
1060
1380
ENDCHAR
STARTCHAR uni4FEF
ENCODING 20463
SWIDTH 500 0
DWIDTH 6 0
BBX 15 15 0 -1
BITMAP
0840
0A24
0BFE
1240
1244
3284
52FE
9384
12A4
1294
1294
1284
14A4
149C
1888
ENDCHAR
STARTCHAR uni4FF1
ENCODING 20465
SWIDTH 500 0
DWIDTH 6 0
BBX 15 15 0 -1
BITMAP
0A08
0BFC
0A08
1208
13F8
3208
53F8
9208
13F8
1208
1208
1FFE
1090
1108
1606
ENDCHAR
STARTCHAR uni4FF3
ENCODING 20467
SWIDTH 500 0
DWIDTH 6 0
BBX 15 15 0 -1
BITMAP
0890
0890
0890
179E
1090
3090
5090
979E
1090
1090
1090
179E
1090
1090
1090
ENDCHAR
STARTCHAR uni4FF4
ENCODING 20468
SWIDTH 500 0
DWIDTH 6 0
BBX 15 15 0 -1
BITMAP
08A0
0890
0886
17F8
1050
3062
5792
90CE
10A0
109E
17E0
1058
1062
10B2
170E
ENDCHAR
STARTCHAR uni4FF5
ENCODING 20469
SWIDTH 500 0
DWIDTH 6 0
BBX 15 15 0 -1
BITMAP
0840
0848
0FFC
1040
1048
33FC
5040
9044
1FFE
1224
1618
1A10
1248
1286
1302
ENDCHAR
STARTCHAR uni4FF6
ENCODING 20470
SWIDTH 500 0
DWIDTH 6 0
BBX 15 15 0 -1
BITMAP
1204
127E
1224
23E4
2224
6224
AFE4
2224
2214
2698
2A48
3248
2214
2E26
2242
ENDCHAR
STARTCHAR uni4FF7
ENCODING 20471
SWIDTH 500 0
DWIDTH 6 0
BBX 15 15 0 -1
BITMAP
14A2
17BE
14AA
24AA
24AA
67AA
A4AA
24BE
27A2
24A0
24A0
24A2
28A2
28A2
339E
ENDCHAR
STARTCHAR uni4FF8
ENCODING 20472
SWIDTH 500 0
DWIDTH 6 0
BBX 15 15 0 -1
BITMAP
0840
0844
0FFE
1040
13FC
3080
57FE
9148
1244
15FA
1840
1044
17FE
1040
1040
ENDCHAR
STARTCHAR uni4FFA
ENCODING 20474
SWIDTH 500 0
DWIDTH 6 0
BBX 15 15 0 -1
BITMAP
0880
0884
0FFE
1110
1248
3444
5FFE
9444
17FC
1444
17FC
1444
1042
1042
103E
ENDCHAR
STARTCHAR uni4FFE
ENCODING 20478
SWIDTH 500 0
DWIDTH 6 0
BBX 15 15 0 -1
BITMAP
0820
0A44
0BFE
1224
1224
33FC
5224
93FC
1244
10A0
1124
1FFE
1020
1020
1020
ENDCHAR
STARTCHAR uni5000
ENCODING 20480
SWIDTH 500 0
DWIDTH 6 0
BBX 15 15 0 -1
BITMAP
0904
09FE
0900
1100
11FC
3100
51FC
9100
17FE
1120
1122
1114
1148
1186
1302
ENDCHAR
STARTCHAR uni5005
ENCODING 20485
SWIDTH 500 0
DWIDTH 6 0
BBX 15 15 0 -1
BITMAP
0880
0840
0844
17FE
1110
3110
5110
92A8
1444
1040
1FFE
1040
1040
1040
1040
ENDCHAR
STARTCHAR uni5006
ENCODING 20486
SWIDTH 500 0
DWIDTH 6 0
BBX 15 15 0 -1
BITMAP
0804
0FFE
0840
1040
1442
37FE
5442
954A
154A
154A
16D6
1462
1442
144E
1404
ENDCHAR
STARTCHAR uni5007
ENCODING 20487
SWIDTH 500 0
DWIDTH 6 0
BBX 15 15 0 -1
BITMAP
1080
1040
1442
27FE
2804
6224
A3FC
24A4
24A4
2AA4
312C
2124
2222
2422
283E
ENDCHAR
STARTCHAR uni5009
ENCODING 20489
SWIDTH 500 0
DWIDTH 6 0
BBX 14 15 0 -1
BITMAP
0300
0480
0840
1220
2110
DFEC
1020
1FE0
1020
1FE0
1010
2FF8
2810
4FF0
8810
ENDCHAR
STARTCHAR uni500B
ENCODING 20491
SWIDTH 500 0
DWIDTH 6 0
BBX 15 15 0 -1
BITMAP
0A02
0BFE
0A02
1222
13FE
3222
5222
92FA
128A
128A
12FA
128A
1202
13FE
1202
ENDCHAR
STARTCHAR uni500C
ENCODING 20492
SWIDTH 500 0
DWIDTH 6 0
BBX 15 15 0 -1
BITMAP
0840
0820
0A22
13FE
1404
31F8
5108
9108
11F8
1100
11FC
1104
1104
11FC
1104
ENDCHAR
STARTCHAR uni500D
ENCODING 20493
SWIDTH 500 0
DWIDTH 6 0
BBX 15 15 0 -1
BITMAP
0840
0820
0824
13FE
1108
3088
5090
97FE
1000
11FC
1104
1104
1104
11FC
1104
ENDCHAR
STARTCHAR uni500E
ENCODING 20494
SWIDTH 500 0
DWIDTH 6 0
BBX 15 15 0 -1
BITMAP
10A0
10A0
14A4
27FE
24A4
64A4
A4A4
27FC
24A4
24A4
2FFE
2000
2308
2406
2802
ENDCHAR
STARTCHAR uni500F
ENCODING 20495
SWIDTH 500 0
DWIDTH 6 0
BBX 15 15 0 -1
BITMAP
0880
0888
08FC
1088
1550
3430
5448
9586
1428
1424
17FE
1450
1088
1106
1202
ENDCHAR
STARTCHAR uni5011
ENCODING 20497
SWIDTH 500 0
DWIDTH 6 0
BBX 15 15 0 -1
BITMAP
0BDE
0A52
0A52
13DE
1252
3252
53DE
9202
1202
1202
1202
1202
1212
120E
1204
ENDCHAR
STARTCHAR uni5012
ENCODING 20498
SWIDTH 500 0
DWIDTH 6 0
BBX 15 15 0 -1
BITMAP
0842
0FE2
0902
1112
1252
3FD2
5432
9112
1112
17D2
1112
1102
11D2
170E
1204
ENDCHAR
STARTCHAR uni5013
ENCODING 20499
SWIDTH 500 0
DWIDTH 6 0
BBX 15 15 0 -1
BITMAP
0840
084C
0A48
1250
14A0
3098
5106
9640
104C
1248
1250
14A0
1090
1108
1606
ENDCHAR
STARTCHAR uni5014
ENCODING 20500
SWIDTH 500 0
DWIDTH 6 0
BBX 15 15 0 -1
BITMAP
0A04
0BFE
0A04
1204
13FC
3210
5292
9292
12FE
1292
1210
1292
1492
14FE
1882
ENDCHAR
STARTCHAR uni5015
ENCODING 20501
SWIDTH 500 0
DWIDTH 6 0
BBX 15 15 0 -1
BITMAP
0808
081C
0FE0
1044
17FE
3248
5248
9248
17FE
1248
1248
17FE
1040
1040
17FC
ENDCHAR
STARTCHAR uni5016
ENCODING 20502
SWIDTH 500 0
DWIDTH 6 0
BBX 15 15 0 -1
BITMAP
0840
0848
0BFC
1040
1044
37FE
5110
90A0
17FC
1040
1044
17FE
1040
1040
1040
ENDCHAR
STARTCHAR uni5017
ENCODING 20503
SWIDTH 500 0
DWIDTH 6 0
BBX 15 15 0 -1
BITMAP
0A52
0BDE
0A52
1252
1252
33DE
5252
9252
13DE
1252
1252
1252
1252
1462
18C6
ENDCHAR
STARTCHAR uni5018
ENCODING 20504
SWIDTH 500 0
DWIDTH 6 0
BBX 15 15 0 -1
BITMAP
0820
0A24
0924
1128
1020
33FE
5202
928A
12FA
128A
128A
12FA
128A
120E
1202
ENDCHAR
STARTCHAR uni5019
ENCODING 20505
SWIDTH 500 0
DWIDTH 6 0
BBX 15 15 0 -1
BITMAP
0808
09FC
0808
1408
15FE
3480
5488
94FC
1520
1424
17FE
1450
1488
1106
1202
ENDCHAR
STARTCHAR uni501A
ENCODING 20506
SWIDTH 500 0
DWIDTH 6 0
BBX 15 15 0 -1
BITMAP
0840
0844
0FFE
10A0
1110
3208
57FE
9004
13E4
1224
1224
13E4
1224
101C
1008
ENDCHAR
STARTCHAR uni501B
ENCODING 20507
SWIDTH 500 0
DWIDTH 6 0
BBX 15 15 0 -1
BITMAP
0908
0908
0FFE
1108
1108
31F8
5108
9108
11F8
1108
1108
17FE
1108
1206
1402
ENDCHAR
STARTCHAR uni501C
ENCODING 20508
SWIDTH 500 0
DWIDTH 6 0
BBX 15 15 0 -1
BITMAP
0A02
0BFE
0A22
1222
12F2
3222
52F2
9202
12F2
1292
1292
12F2
1492
180E
1004
ENDCHAR
STARTCHAR uni501E
ENCODING 20510
SWIDTH 500 0
DWIDTH 6 0
BBX 15 15 0 -1
BITMAP
0880
0840
0844
17FE
1000
33F8
5208
9208
13F8
1248
1150
1248
1446
19C2
1080
ENDCHAR
STARTCHAR uni501F
ENCODING 20511
SWIDTH 500 0
DWIDTH 6 0
BBX 15 15 0 -1
BITMAP
0890
0890
0FFE
1090
1090
37FE
5000
93FC
1204
1204
13FC
1204
1204
13FC
1204
ENDCHAR
STARTCHAR uni5020
ENCODING 20512
SWIDTH 500 0
DWIDTH 6 0
BBX 15 15 0 -1
BITMAP
0940
0920
0A24
13FE
1220
3620
5A20
93FC
1220
1220
13FC
1220
1220
1224
13FE
ENDCHAR
STARTCHAR uni5021
ENCODING 20513
SWIDTH 500 0
DWIDTH 6 0
BBX 15 15 0 -1
BITMAP
09FC
0904
0904
11FC
1104
31FC
5104
9000
13FE
1202
1202
13FE
1202
13FE
1202
ENDCHAR
STARTCHAR uni5022
ENCODING 20514
SWIDTH 500 0
DWIDTH 6 0
BBX 15 15 0 -1
BITMAP
0840
0844
0FFE
1040
13F8
3048
57FE
9048
13F8
1040
1248
127C
1240
1540
18FE
ENDCHAR
STARTCHAR uni5023
ENCODING 20515
SWIDTH 500 0
DWIDTH 6 0
BBX 15 15 0 -1
BITMAP
1410
1210
1290
2FD4
241E
64B4
A7D4
2494
2494
2494
2488
2488
2494
2BA6
3142
ENDCHAR
STARTCHAR uni5025
ENCODING 20517
SWIDTH 500 0
DWIDTH 6 0
BBX 15 15 0 -1
BITMAP
0840
0820
0A22
13FE
1404
3088
5104
9202
1008
13FC
1020
1020
1020
1024
17FE
ENDCHAR
STARTCHAR uni5026
ENCODING 20518
SWIDTH 500 0
DWIDTH 6 0
BBX 15 15 0 -1
BITMAP
0840
0A48
0950
1150
13FC
3080
57FE
9108
13F6
1512
1910
1110
1162
1102
10FE
ENDCHAR
STARTCHAR uni5027
ENCODING 20519
SWIDTH 500 0
DWIDTH 6 0
BBX 15 15 0 -1
BITMAP
0880
0840
0A42
13FE
1404
3410
51F8
9004
17FE
1040
1248
1244
1442
19C2
1080
ENDCHAR
STARTCHAR uni5028
ENCODING 20520
SWIDTH 500 0
DWIDTH 6 0
BBX 15 15 0 -1
BITMAP
0A04
0BFE
0A04
1204
13FC
3214
5210
93FE
1210
1292
12FE
1282
1482
14FE
1882
ENDCHAR
STARTCHAR uni5029
ENCODING 20521
SWIDTH 500 0
DWIDTH 6 0
BBX 15 15 0 -1
BITMAP
0844
0BFE
0840
13FC
1040
37FE
5000
93FC
1204
13FC
1204
13FC
1204
1204
121C
ENDCHAR
STARTCHAR uni502A
ENCODING 20522
SWIDTH 500 0
DWIDTH 6 0
BBX 15 15 0 -1
BITMAP
08C0
0B1E
0A02
1202
13DE
3202
5202
93FE
1292
1090
1090
1090
1112
1212
140E
ENDCHAR
STARTCHAR uni502B
ENCODING 20523
SWIDTH 500 0
DWIDTH 6 0
BBX 15 15 0 -1
BITMAP
0840
0860
0890
1108
1216
35FA
5000
97FE
1492
1492
17FE
1492
1492
1492
1486
ENDCHAR
STARTCHAR uni502C
ENCODING 20524
SWIDTH 500 0
DWIDTH 6 0
BBX 15 15 0 -1
BITMAP
0840
0844
087E
1040
17F8
3408
57F8
9408
17F8
1448
1044
1FFE
1040
1040
1040
ENDCHAR
STARTCHAR uni502D
ENCODING 20525
SWIDTH 500 0
DWIDTH 6 0
BBX 15 15 0 -1
BITMAP
081C
0BE0
0840
1044
17FE
3150
5248
9406
1084
1FFE
1110
1210
11A0
1078
1F86
ENDCHAR
STARTCHAR uni502E
ENCODING 20526
SWIDTH 500 0
DWIDTH 6 0
BBX 15 15 0 -1
BITMAP
1404
17FE
1444
2444
27FC
6444
A7FC
2444
2040
2FFE
2040
2150
2248
2446
2842
ENDCHAR
STARTCHAR uni502F
ENCODING 20527
SWIDTH 500 0
DWIDTH 6 0
BBX 15 15 0 -1
BITMAP
1208
1208
1228
2228
2FA4
6244
A252
2312
2690
2A90
3220
2228
2244
23FE
2282
ENDCHAR
STARTCHAR uni5030
ENCODING 20528
SWIDTH 500 0
DWIDTH 6 0
BBX 15 15 0 -1
BITMAP
0848
0BFC
0840
1044
17FE
3108
5204
9482
10F8
1108
1288
1490
1060
1198
1606
ENDCHAR
STARTCHAR uni5031
ENCODING 20529
SWIDTH 500 0
DWIDTH 6 0
BBX 15 15 0 -1
BITMAP
0A04
0BFE
0A04
13FC
1204
33FC
5204
9020
1226
13E4
1228
1230
12A2
1322
161E
ENDCHAR
STARTCHAR uni5033
ENCODING 20531
SWIDTH 500 0
DWIDTH 6 0
BBX 15 15 0 -1
BITMAP
0844
0FFE
0840
13FC
1244
33FC
5040
97FC
1044
1FFE
1044
17FC
1244
11C0
1080
ENDCHAR
STARTCHAR uni5035
ENCODING 20533
SWIDTH 500 0
DWIDTH 6 0
BBX 15 15 0 -1
BITMAP
1010
1098
17D4
2014
2010
6FFE
A110
2110
2510
25D0
2510
250A
25EA
2706
2C02
ENDCHAR
STARTCHAR uni5037
ENCODING 20535
SWIDTH 500 0
DWIDTH 6 0
BBX 15 15 0 -1
BITMAP
1080
1084
1FFE
2120
2210
6408
ABF6
3002
2000
27FC
2248
2444
2842
31C2
2080
ENDCHAR
STARTCHAR uni503A
ENCODING 20538
SWIDTH 500 0
DWIDTH 6 0
BBX 15 15 0 -1
BITMAP
1040
17FE
1040
23FC
2040
6FFE
A000
27FC
2404
2444
2444
2444
2444
20B0
270E
ENDCHAR
STARTCHAR uni503C
ENCODING 20540
SWIDTH 500 0
DWIDTH 6 0
BBX 15 15 0 -1
BITMAP
0840
0844
0FFE
1040
1248
33FC
5208
93F8
1208
13F8
1208
13F8
1208
1208
1FFE
ENDCHAR
STARTCHAR uni503E
ENCODING 20542
SWIDTH 500 0
DWIDTH 6 0
BBX 15 15 0 -1
BITMAP
1004
11FE
1810
2820
28FE
6882
AF92
2892
2892
2892
2A92
2C92
2810
2068
2186
ENDCHAR
STARTCHAR uni5040
ENCODING 20544
SWIDTH 500 0
DWIDTH 6 0
BBX 15 15 0 -1
BITMAP
1110
1114
1FFE
2110
2040
6248
A3FC
2248
2248
2248
2FFE
2090
2108
2206
2C02
ENDCHAR
STARTCHAR uni5041
ENCODING 20545
SWIDTH 500 0
DWIDTH 6 0
BBX 15 15 0 -1
BITMAP
081C
0BE0
0886
1244
1108
3040
57FC
9444
17FC
1444
1FFE
1404
1404
143C
1408
ENDCHAR
STARTCHAR uni5043
ENCODING 20547
SWIDTH 500 0
DWIDTH 6 0
BBX 15 15 0 -1
BITMAP
0BFE
0A00
0AFC
1284
12FC
3284
52FC
9220
13FE
1248
1278
1210
12E8
1204
13FE
ENDCHAR
STARTCHAR uni5045
ENCODING 20549
SWIDTH 500 0
DWIDTH 6 0
BBX 15 15 0 -1
BITMAP
0810
0838
0BC0
1044
17FE
3040
57FC
9444
17FC
1444
17FC
1040
17FC
1040
1FFE
ENDCHAR
STARTCHAR uni5046
ENCODING 20550
SWIDTH 500 0
DWIDTH 6 0
BBX 15 15 0 -1
BITMAP
0840
0844
0FFE
1080
13FC
3100
57FE
9208
17FC
1A0A
1208
13F8
1208
13F8
1208
ENDCHAR
STARTCHAR uni5047
ENCODING 20551
SWIDTH 500 0
DWIDTH 6 0
BBX 15 15 0 -1
BITMAP
0A04
0BDE
0A44
1244
13DC
3244
5200
93FE
1222
1224
13D4
1208
1218
1226
12C2
ENDCHAR
STARTCHAR uni5048
ENCODING 20552
SWIDTH 500 0
DWIDTH 6 0
BBX 15 15 0 -1
BITMAP
0A04
0BFE
0A04
13FC
1204
33FC
5244
9080
11FE
1222
1E22
1252
128A
13F2
101C
ENDCHAR
STARTCHAR uni5049
ENCODING 20553
SWIDTH 500 0
DWIDTH 6 0
BBX 15 15 0 -1
BITMAP
0880
0888
0BFC
1088
17FE
3000
53F8
9208
13F8
1024
17FE
1220
17FE
1020
1020
ENDCHAR
STARTCHAR uni504A
ENCODING 20554
SWIDTH 500 0
DWIDTH 6 0
BBX 15 15 0 -1
BITMAP
081C
0BE0
0820
13FC
1224
33FC
5224
9020
17FE
1422
142A
1436
15C2
1402
140C
ENDCHAR
STARTCHAR uni504B
ENCODING 20555
SWIDTH 500 0
DWIDTH 6 0
BBX 15 15 0 -1
BITMAP
1404
17FE
1404
27FC
2404
2488
6450
A5FC
2450
2454
27FE
2450
2890
2910
3210
ENDCHAR
STARTCHAR uni504C
ENCODING 20556
SWIDTH 500 0
DWIDTH 6 0
BBX 15 15 0 -1
BITMAP
0908
0908
0FFE
1108
1108
3040
5044
9FFE
1080
11FC
1304
1504
1904
11FC
1104
ENDCHAR
STARTCHAR uni504D
ENCODING 20557
SWIDTH 500 0
DWIDTH 6 0
BBX 15 15 0 -1
BITMAP
0BF8
0A08
0BF8
1208
13F8
3208
5000
97FE
1020
1124
113E
1120
1320
14A0
187E
ENDCHAR
STARTCHAR uni504E
ENCODING 20558
SWIDTH 500 0
DWIDTH 6 0
BBX 15 15 0 -1
BITMAP
0A04
0BFE
0A44
13FC
1244
33FC
5204
9000
17FE
1240
1244
1228
1210
1288
1306
ENDCHAR
STARTCHAR uni504F
ENCODING 20559
SWIDTH 500 0
DWIDTH 6 0
BBX 15 15 0 -1
BITMAP
0840
0A24
0BFE
1204
1204
33FC
5200
92FE
12AA
12AA
12FE
12AA
12AA
14AA
1886
ENDCHAR
STARTCHAR uni5051
ENCODING 20561
SWIDTH 500 0
DWIDTH 6 0
BBX 15 15 0 -1
BITMAP
1404
17FE
1414
243C
25C4
6444
A5F4
2554
2554
25F4
2554
2444
2452
287A
338A
ENDCHAR
STARTCHAR uni5053
ENCODING 20563
SWIDTH 500 0
DWIDTH 6 0
BBX 15 15 0 -1
BITMAP
0A04
0BFE
0A04
13FC
1200
33FE
5240
9288
13FC
1204
1220
15FC
1420
1820
13FE
ENDCHAR
STARTCHAR uni5055
ENCODING 20565
SWIDTH 500 0
DWIDTH 6 0
BBX 15 15 0 -1
BITMAP
0A20
0A22
0A24
13E8
1232
32A2
531E
9640
11FC
1104
1104
11FC
1104
11FC
1104
ENDCHAR
STARTCHAR uni5057
ENCODING 20567
SWIDTH 500 0
DWIDTH 6 0
BBX 15 15 0 -1
BITMAP
0840
0948
0944
124A
1452
3020
50FC
9704
1104
11FC
1104
11FC
1104
11FC
1104
ENDCHAR
STARTCHAR uni505A
ENCODING 20570
SWIDTH 500 0
DWIDTH 6 0
BBX 15 15 0 -1
BITMAP
0810
0910
0910
1114
17DE
3124
5164
97A4
14A4
1494
1488
1788
1494
1426
10C2
ENDCHAR
STARTCHAR uni505B
ENCODING 20571
SWIDTH 500 0
DWIDTH 6 0
BBX 15 15 0 -1
BITMAP
0808
083C
0FC0
1044
1FFE
3040
5144
965E
1444
1444
17DC
1444
1444
17FC
1404
ENDCHAR
STARTCHAR uni505C
ENCODING 20572
SWIDTH 500 0
DWIDTH 6 0
BBX 15 15 0 -1
BITMAP
0880
0844
0FFE
1000
11F8
3108
51F8
9402
17FE
1804
13FC
1020
1020
11E0
1040
ENDCHAR
STARTCHAR uni505D
ENCODING 20573
SWIDTH 500 0
DWIDTH 6 0
BBX 15 15 0 -1
BITMAP
08A0
08AC
0FA8
10B2
11A2
369E
5000
93FC
1204
13FC
1204
13FC
1204
1204
121C
ENDCHAR
STARTCHAR uni505E
ENCODING 20574
SWIDTH 500 0
DWIDTH 6 0
BBX 15 15 0 -1
BITMAP
0948
0948
0FFE
1148
1148
3178
5148
9104
11FE
1040
17FE
1150
1248
1446
1842
ENDCHAR
STARTCHAR uni505F
ENCODING 20575
SWIDTH 500 0
DWIDTH 6 0
BBX 15 15 0 -1
BITMAP
0840
0A88
0BFC
1208
13F8
3208
53F8
9004
17FE
1040
1040
13FC
1040
1044
1FFE
ENDCHAR
STARTCHAR uni5060
ENCODING 20576
SWIDTH 500 0
DWIDTH 6 0
BBX 15 15 0 -1
BITMAP
0804
0FFE
0890
17FE
1492
3492
57FE
9442
1044
17FE
1088
1110
10E0
1058
1786
ENDCHAR
STARTCHAR uni5061
ENCODING 20577
SWIDTH 500 0
DWIDTH 6 0
BBX 15 15 0 -1
BITMAP
0908
0908
0FFE
1108
11F8
3108
51F8
9108
1108
1FFE
1250
128C
1304
1200
13FE
ENDCHAR
STARTCHAR uni5062
ENCODING 20578
SWIDTH 500 0
DWIDTH 6 0
BBX 15 15 0 -1
BITMAP
1108
1388
1E08
2228
222A
6FAC
A228
2348
2688
2A88
3208
2208
2214
2222
2242
ENDCHAR
STARTCHAR uni5063
ENCODING 20579
SWIDTH 500 0
DWIDTH 6 0
BBX 15 15 0 -1
BITMAP
0880
0844
0FFE
1210
1110
30A4
5FFE
9000
13FC
1204
1204
13FC
1204
13FC
1204
ENDCHAR
STARTCHAR uni5064
ENCODING 20580
SWIDTH 500 0
DWIDTH 6 0
BBX 15 15 0 -1
BITMAP
1210
1110
10A0
2FFE
20A0
64A4
A7FE
24A4
2524
263C
2404
27FC
2404
27FC
2404
ENDCHAR
STARTCHAR uni5065
ENCODING 20581
SWIDTH 500 0
DWIDTH 6 0
BBX 15 15 0 -1
BITMAP
1020
1024
1EFE
2224
25FE
6424
A8FC
2E20
22FC
2220
2BFE
2A20
2420
2A00
31FE
ENDCHAR
STARTCHAR uni5068
ENCODING 20584
SWIDTH 500 0
DWIDTH 6 0
BBX 15 15 0 -1
BITMAP
1120
1120
1124
25F8
2522
6524
A5DE
2E40
2044
2FFE
2160
2250
244E
2844
2040
ENDCHAR
STARTCHAR uni5069
ENCODING 20585
SWIDTH 500 0
DWIDTH 6 0
BBX 15 15 0 -1
BITMAP
0900
0910
09F8
1210
1224
37FE
5204
93FC
1204
13FC
1204
13FC
1204
1198
1606
ENDCHAR
STARTCHAR uni506A
ENCODING 20586
SWIDTH 500 0
DWIDTH 6 0
BBX 15 15 0 -1
BITMAP
0804
0BFE
0800
11FC
1104
3104
51FC
9000
13FE
1222
13FE
1222
1222
13FE
1202
ENDCHAR
STARTCHAR uni506B
ENCODING 20587
SWIDTH 500 0
DWIDTH 6 0
BBX 15 15 0 -1
BITMAP
1110
1110
12FE
2410
2910
61FE
A200
2608
2BFE
2288
2248
2248
2208
2238
2210
ENDCHAR
STARTCHAR uni506C
ENCODING 20588
SWIDTH 500 0
DWIDTH 6 0
BBX 15 15 0 -1
BITMAP
0900
0902
09FE
1252
1592
30E2
5132
9242
109C
1040
1124
1522
150A
1908
10FC
ENDCHAR
STARTCHAR uni506D
ENCODING 20589
SWIDTH 500 0
DWIDTH 6 0
BBX 15 15 0 -1
BITMAP
1004
17FE
1040
2482
27FE
6492
A492
24F2
2492
2492
24F2
2492
2492
27FE
2402
ENDCHAR
STARTCHAR uni506E
ENCODING 20590
SWIDTH 500 0
DWIDTH 6 0
BBX 15 15 0 -1
BITMAP
0A08
0BFC
0A08
13F8
1208
3004
5FFE
9208
13F8
1208
13F8
1208
127E
1F88
1008
ENDCHAR
STARTCHAR uni506F
ENCODING 20591
SWIDTH 500 0
DWIDTH 6 0
BBX 15 15 0 -1
BITMAP
1080
1044
17FE
2000
23FC
6204
A204
23FC
22A4
20A2
2114
2318
2D28
2146
2182
ENDCHAR
STARTCHAR uni5070
ENCODING 20592
SWIDTH 500 0
DWIDTH 6 0
BBX 15 15 0 -1
BITMAP
1200
127E
1F92
2212
2F92
6212
AFAE
2244
2240
2044
2FFE
20A0
2110
220E
2C04
ENDCHAR
STARTCHAR uni5072
ENCODING 20594
SWIDTH 500 0
DWIDTH 6 0
BBX 15 15 0 -1
BITMAP
0A02
0BFE
0A22
1222
13FE
3222
5222
93FE
1202
1020
1294
1282
128A
1488
107C
ENDCHAR
STARTCHAR uni5073
ENCODING 20595
SWIDTH 500 0
DWIDTH 6 0
BBX 15 15 0 -1
BITMAP
0840
0A44
0A44
1244
13FC
3000
57FE
9040
17FE
1492
1492
1492
1492
1492
1406
ENDCHAR
STARTCHAR uni5074
ENCODING 20596
SWIDTH 500 0
DWIDTH 6 0
BBX 15 15 0 -1
BITMAP
1442
17E2
1442
2452
27D2
6452
A452
27D2
2452
2452
27D2
2452
2302
24DE
2844
ENDCHAR
STARTCHAR uni5075
ENCODING 20597
SWIDTH 500 0
DWIDTH 6 0
BBX 15 15 0 -1
BITMAP
0844
087E
0840
13FC
1204
3204
53FC
9204
1204
13FC
1204
1204
13FC
1110
1E0E
ENDCHAR
STARTCHAR uni5076
ENCODING 20598
SWIDTH 500 0
DWIDTH 6 0
BBX 15 15 0 -1
BITMAP
0A04
0BFE
0A44
13FC
1244
33FC
5244
9040
17FE
1442
1452
147A
15CA
140E
1404
ENDCHAR
STARTCHAR uni5077
ENCODING 20599
SWIDTH 500 0
DWIDTH 6 0
BBX 15 15 0 -1
BITMAP
0860
0890
0908
1206
15FA
3800
57C2
9452
1452
17D2
1452
17D2
1452
144E
14C4
ENDCHAR
STARTCHAR uni507A
ENCODING 20602
SWIDTH 500 0
DWIDTH 6 0
BBX 15 15 0 -1
BITMAP
0A08
0A48
0BEC
144A
1A4A
3188
5148
923E
1400
1BFC
1204
13FC
1204
13FC
1204
ENDCHAR
STARTCHAR uni507B
ENCODING 20603
SWIDTH 500 0
DWIDTH 6 0
BBX 15 15 0 -1
BITMAP
0A44
0948
0948
1040
17FE
3150
5248
9446
1040
1FFE
1110
1220
11C0
10B0
170E
ENDCHAR
STARTCHAR uni507D
ENCODING 20605
SWIDTH 500 0
DWIDTH 6 0
BBX 15 15 0 -1
BITMAP
0A60
0940
0840
17F8
1090
3090
50FC
9108
1108
13FE
1402
1802
1352
12AA
14AC
ENDCHAR
STARTCHAR uni507E
ENCODING 20606
SWIDTH 500 0
DWIDTH 6 0
BBX 15 15 0 -1
BITMAP
0840
0FFC
0840
1148
17FE
3108
5000
97FC
1404
1444
1444
1444
1444
1198
1E06
ENDCHAR
STARTCHAR uni507F
ENCODING 20607
SWIDTH 500 0
DWIDTH 6 0
BBX 15 15 0 -1
BITMAP
0A24
0928
0928
1422
17FE
3804
5000
91F8
1004
17FE
1040
1040
1088
113C
17C4
ENDCHAR
STARTCHAR uni5080
ENCODING 20608
SWIDTH 500 0
DWIDTH 6 0
BBX 15 15 0 -1
BITMAP
0840
0884
0FFE
1444
1444
37FC
5444
9444
17FC
1444
10A8
10B4
112A
1222
141E
ENDCHAR
STARTCHAR uni5082
ENCODING 20610
SWIDTH 500 0
DWIDTH 6 0
BBX 15 15 0 -1
BITMAP
1008
141C
17E0
243E
2420
65FE
A524
25FA
2522
253E
2500
2978
294A
328A
250E
ENDCHAR
STARTCHAR uni5083
ENCODING 20611
SWIDTH 500 0
DWIDTH 6 0
BBX 15 15 0 -1
BITMAP
0844
0FFE
0840
13FC
1040
37FE
5080
9130
17C0
1108
17FC
1044
1240
15D8
1886
ENDCHAR
STARTCHAR uni5085
ENCODING 20613
SWIDTH 500 0
DWIDTH 6 0
BBX 15 15 0 -1
BITMAP
0850
0848
0FFE
1040
17FC
3444
57FC
9444
17FC
1448
1FFE
1108
1088
10B8
1010
ENDCHAR
STARTCHAR uni5087
ENCODING 20615
SWIDTH 500 0
DWIDTH 6 0
BBX 15 15 0 -1
BITMAP
1110
1110
1FFE
2110
2004
6FFE
A210
23F0
2210
23F0
2210
221E
23F0
2E10
2010
ENDCHAR
STARTCHAR uni5088
ENCODING 20616
SWIDTH 500 0
DWIDTH 6 0
BBX 15 15 0 -1
BITMAP
0FFE
0890
0890
17FE
1492
3492
57FE
9402
1044
17FE
1150
1248
1446
1842
1040
ENDCHAR
STARTCHAR uni508B
ENCODING 20619
SWIDTH 500 0
DWIDTH 6 0
BBX 15 15 0 -1
BITMAP
1110
1FFE
1110
27FC
2110
6FFE
A040
27FC
2444
27FC
2444
2FFE
2404
2404
241C
ENDCHAR
STARTCHAR uni508C
ENCODING 20620
SWIDTH 500 0
DWIDTH 6 0
BBX 15 15 0 -1
BITMAP
1404
17FE
1440
2448
27FC
6440
A7FC
2440
2442
27FE
2002
22A2
2552
2552
280C
ENDCHAR
STARTCHAR uni508D
ENCODING 20621
SWIDTH 500 0
DWIDTH 6 0
BBX 15 15 0 -1
BITMAP
0880
0844
0FFE
1108
1492
37FE
5844
9020
17FE
1080
10FC
1084
1104
1278
1410
ENDCHAR
STARTCHAR uni508E
ENCODING 20622
SWIDTH 500 0
DWIDTH 6 0
BBX 15 15 0 -1
BITMAP
1044
1FFE
1040
23F8
2208
63F8
A208
23F8
2208
23F8
2208
2FFE
20A0
2318
2C06
ENDCHAR
STARTCHAR uni5091
ENCODING 20625
SWIDTH 500 0
DWIDTH 6 0
BBX 15 15 0 -1
BITMAP
0A08
0A88
0BFE
1488
1AA8
30BE
5108
9648
1040
1FFE
1150
1248
1446
1842
1040
ENDCHAR
STARTCHAR uni5092
ENCODING 20626
SWIDTH 500 0
DWIDTH 6 0
BBX 15 15 0 -1
BITMAP
1010
1038
17C4
2244
22C8
6110
A3E0
2088
2108
27FC
2044
27FE
20A0
2318
2C06
ENDCHAR
STARTCHAR uni5094
ENCODING 20628
SWIDTH 500 0
DWIDTH 6 0
BBX 15 15 0 -1
BITMAP
1210
1120
1124
2FFE
2120
67F8
A128
2FFE
2128
27F8
2120
2330
2528
2926
3122
ENDCHAR
STARTCHAR uni5095
ENCODING 20629
SWIDTH 500 0
DWIDTH 6 0
BBX 15 15 0 -1
BITMAP
1040
1242
13FE
2484
2120
61FE
A220
2228
27FC
2A20
2228
23FC
2220
2224
23FE
ENDCHAR
STARTCHAR uni5096
ENCODING 20630
SWIDTH 500 0
DWIDTH 6 0
BBX 15 15 0 -1
BITMAP
0840
08A0
0910
0A88
1446
13F8
3208
53F8
9208
13F8
1200
13FC
1504
19FC
1104
ENDCHAR
STARTCHAR uni5098
ENCODING 20632
SWIDTH 500 0
DWIDTH 6 0
BBX 14 15 0 -1
BITMAP
0300
0480
0840
3230
D24C
1240
2AA0
4710
1220
2A50
4688
FFFC
0200
0200
0200
ENDCHAR
STARTCHAR uni5099
ENCODING 20633
SWIDTH 500 0
DWIDTH 6 0
BBX 15 15 0 -1
BITMAP
0890
0890
0FFC
1090
1090
3FFE
5200
93FC
1624
1BFC
1224
13FC
1224
1224
122C
ENDCHAR
STARTCHAR uni509A
ENCODING 20634
SWIDTH 500 0
DWIDTH 6 0
BBX 15 15 0 -1
BITMAP
1210
1110
1110
2FD4
201E
62A4
A464
2924
2524
2214
2308
2488
2894
3026
20C2
ENDCHAR
STARTCHAR uni509B
ENCODING 20635
SWIDTH 500 0
DWIDTH 6 0
BBX 15 15 0 -1
BITMAP
0880
0A42
0BFE
1404
1090
3108
5264
9490
1108
13FC
150A
1108
1108
11F8
1108
ENDCHAR
STARTCHAR uni509C
ENCODING 20636
SWIDTH 500 0
DWIDTH 6 0
BBX 15 15 0 -1
BITMAP
1080
1088
11FC
2E88
2250
6120
AFC0
2208
23FC
2440
2FFE
2040
2444
27FC
2404
ENDCHAR
STARTCHAR uni509D
ENCODING 20637
SWIDTH 500 0
DWIDTH 6 0
BBX 15 15 0 -1
BITMAP
1204
13FE
1204
23FC
2204
63FC
A204
2FBE
28A2
2492
2186
228A
2CB2
2082
238E
ENDCHAR
STARTCHAR uni509E
ENCODING 20638
SWIDTH 500 0
DWIDTH 6 0
BBX 15 15 0 -1
BITMAP
1210
1110
1124
27FE
2040
6040
A3FC
2040
2FFE
2100
21FC
2220
2420
2824
27FE
ENDCHAR
STARTCHAR uni50A2
ENCODING 20642
SWIDTH 500 0
DWIDTH 6 0
BBX 15 15 0 -1
BITMAP
0860
0A22
0BFE
1204
1408
33FC
5080
9146
1668
10B0
1768
10A4
1724
10E2
1042
ENDCHAR
STARTCHAR uni50A3
ENCODING 20643
SWIDTH 500 0
DWIDTH 6 0
BBX 15 15 0 -1
BITMAP
1080
1088
1FFC
2080
23F8
6100
AFFE
2250
2448
2A5C
3162
2150
2E4C
21C4
2080
ENDCHAR
STARTCHAR uni50A5
ENCODING 20645
SWIDTH 500 0
DWIDTH 6 0
BBX 15 15 0 -1
BITMAP
2898
2490
22A0
2FFC
2804
7008
A7F0
2410
2410
27F0
2550
2144
2144
2246
2C3C
ENDCHAR
STARTCHAR uni50A7
ENCODING 20647
SWIDTH 500 0
DWIDTH 6 0
BBX 15 15 0 -1
BITMAP
0880
0A42
0BFE
1204
1434
33C0
5208
93FC
1220
1220
1224
1FFE
10A0
1318
1C06
ENDCHAR
STARTCHAR uni50A8
ENCODING 20648
SWIDTH 500 0
DWIDTH 6 0
BBX 15 15 0 -1
BITMAP
1020
1820
1622
22FE
2024
6028
ADFE
2420
247C
24C4
2544
24FC
2544
267C
2044
ENDCHAR
STARTCHAR uni50A9
ENCODING 20649
SWIDTH 500 0
DWIDTH 6 0
BBX 15 15 0 -1
BITMAP
1028
1024
1F44
217E
21C8
6948
A97E
2648
2248
2248
257E
2948
3148
207E
2040
ENDCHAR
STARTCHAR uni50AC
ENCODING 20652
SWIDTH 500 0
DWIDTH 6 0
BBX 15 15 0 -1
BITMAP
1020
1224
1224
13FC
2240
2120
6124
A3FE
2220
27FC
2A20
23FC
2220
23FE
2200
ENDCHAR
STARTCHAR uni50AD
ENCODING 20653
SWIDTH 500 0
DWIDTH 6 0
BBX 15 15 0 -1
BITMAP
1424
17FE
1420
25F8
2428
67FE
A428
25FC
2524
25FC
2524
25FC
2524
2924
310C
ENDCHAR
STARTCHAR uni50AE
ENCODING 20654
SWIDTH 500 0
DWIDTH 6 0
BBX 15 15 0 -1
BITMAP
0894
0FFE
0890
17FE
1492
37FE
5492
97FE
1000
13FC
1204
13FC
1204
13FC
1204
ENDCHAR
STARTCHAR uni50AF
ENCODING 20655
SWIDTH 500 0
DWIDTH 6 0
BBX 15 15 0 -1
BITMAP
0820
0A44
0BFE
1244
137C
3294
5364
9294
13FC
1204
1040
12A4
128A
148A
10FC
ENDCHAR
STARTCHAR uni50B0
ENCODING 20656
SWIDTH 500 0
DWIDTH 6 0
BBX 15 15 0 -1
BITMAP
0820
0A22
0A22
13FE
1000
33DE
5252
9252
13DE
1252
13DE
1252
1252
1452
18E6
ENDCHAR
STARTCHAR uni50B1
ENCODING 20657
SWIDTH 500 0
DWIDTH 6 0
BBX 15 15 0 -1
BITMAP
1248
1248
1248
244C
2AB2
6322
A200
2410
2C94
349E
2490
2490
2490
2550
263E
ENDCHAR
STARTCHAR uni50B2
ENCODING 20658
SWIDTH 500 0
DWIDTH 6 0
BBX 15 15 0 -1
BITMAP
1220
12A0
1FE0
2224
223E
6F94
A254
3FD4
2414
2794
2488
2488
2494
2BA6
3142
ENDCHAR
STARTCHAR uni50B3
ENCODING 20659
SWIDTH 500 0
DWIDTH 6 0
BBX 15 15 0 -1
BITMAP
0824
0FFE
0820
13FC
1224
33FC
5224
93FC
1024
17FA
1008
17FE
1108
1088
10B8
ENDCHAR
STARTCHAR uni50B4
ENCODING 20660
SWIDTH 500 0
DWIDTH 6 0
BBX 15 15 0 -1
BITMAP
1404
17FE
1400
24F8
2488
6488
A4F8
2400
25DC
2554
2554
25DC
2554
2400
27FE
ENDCHAR
STARTCHAR uni50B5
ENCODING 20661
SWIDTH 500 0
DWIDTH 6 0
BBX 15 15 0 -1
BITMAP
0844
0FFE
0840
13FC
1040
37FE
5204
93FC
1204
13FC
1204
13FC
1204
1198
1606
ENDCHAR
STARTCHAR uni50B6
ENCODING 20662
SWIDTH 500 0
DWIDTH 6 0
BBX 15 15 0 -1
BITMAP
1018
1014
1414
17FE
2490
2490
64F2
A492
27F2
2494
25D4
26AA
288A
3396
2122
ENDCHAR
STARTCHAR uni50B7
ENCODING 20663
SWIDTH 500 0
DWIDTH 6 0
BBX 15 15 0 -1
BITMAP
0904
09FE
0A00
15F8
1108
31F8
5108
91F8
1004
1FFE
1200
17FE
1892
1122
16CC
ENDCHAR
STARTCHAR uni50B8
ENCODING 20664
SWIDTH 500 0
DWIDTH 6 0
BBX 15 15 0 -1
BITMAP
1040
1044
1FFE
2040
2554
6248
A554
2040
2554
2248
2554
20A0
2110
260E
3804
ENDCHAR
STARTCHAR uni50BA
ENCODING 20666
SWIDTH 500 0
DWIDTH 6 0
BBX 15 15 0 -1
BITMAP
1220
13FE
14A2
2694
2988
7488
A304
22FA
2400
2FFC
2020
2128
2224
24E2
2822
ENDCHAR
STARTCHAR uni50BB
ENCODING 20667
SWIDTH 500 0
DWIDTH 6 0
BBX 15 15 0 -1
BITMAP
0840
0A84
0BFE
1294
1264
3294
53FC
9204
1188
16F6
1090
1150
1260
1090
170E
ENDCHAR
STARTCHAR uni50BD
ENCODING 20669
SWIDTH 500 0
DWIDTH 6 0
BBX 15 15 0 -1
BITMAP
1040
17FC
1110
20A0
2FFE
6000
A3F8
2208
23F8
2208
23F8
2044
2FFE
2040
2040
ENDCHAR
STARTCHAR uni50BE
ENCODING 20670
SWIDTH 500 0
DWIDTH 6 0
BBX 15 15 0 -1
BITMAP
1004
11FE
1410
247C
2444
6444
A77C
2444
2444
247C
2544
2644
247C
2048
2186
ENDCHAR
STARTCHAR uni50BF
ENCODING 20671
SWIDTH 500 0
DWIDTH 6 0
BBX 15 15 0 -1
BITMAP
1004
17FE
1040
2278
2240
6FFE
A100
23F8
2200
27FE
2024
2294
2554
2544
2838
ENDCHAR
STARTCHAR uni50C1
ENCODING 20673
SWIDTH 500 0
DWIDTH 6 0
BBX 15 15 0 -1
BITMAP
101C
17E0
1048
2250
2154
6FFE
A150
2248
2444
2802
2140
2524
250A
290A
20F8
ENDCHAR
STARTCHAR uni50C2
ENCODING 20674
SWIDTH 500 0
DWIDTH 6 0
BBX 15 15 0 -1
BITMAP
1040
13F8
1248
2FFE
2248
63F8
A040
27FC
2444
27FC
2080
2FFE
2110
20F8
2F86
ENDCHAR
STARTCHAR uni50C4
ENCODING 20676
SWIDTH 500 0
DWIDTH 6 0
BBX 15 15 0 -1
BITMAP
1004
1FFE
10A0
27FC
24A4
64A4
A7FC
2000
23F8
2004
2FFE
2040
2248
25C6
2842
ENDCHAR
STARTCHAR uni50C5
ENCODING 20677
SWIDTH 500 0
DWIDTH 6 0
BBX 15 15 0 -1
BITMAP
1110
1114
1FFE
2110
21F0
6040
A7FC
2444
27FC
2040
2FFE
2040
27FC
2040
2FFE
ENDCHAR
STARTCHAR uni50C6
ENCODING 20678
SWIDTH 500 0
DWIDTH 6 0
BBX 15 15 0 -1
BITMAP
1010
1010
15FE
2210
22FE
6092
A2FE
2E92
22FE
2292
2210
22FE
2210
2D10
28FE
ENDCHAR
STARTCHAR uni50C7
ENCODING 20679
SWIDTH 500 0
DWIDTH 6 0
BBX 15 15 0 -1
BITMAP
17BE
1082
169A
2186
228A
6492
A8E2
2110
2228
2C46
2390
2064
2388
2030
23C0
ENDCHAR
STARTCHAR uni50C8
ENCODING 20680
SWIDTH 500 0
DWIDTH 6 0
BBX 15 15 0 -1
BITMAP
13FC
1204
13FC
2204
23FC
6000
A7FE
2492
27FE
2000
27FC
2110
20A0
20E0
2F1E
ENDCHAR
STARTCHAR uni50C9
ENCODING 20681
SWIDTH 500 0
DWIDTH 6 0
BBX 14 15 0 -1
BITMAP
0300
0480
0840
1020
2090
CFCC
0000
7CF8
4488
4488
7CF8
1020
1830
2448
C588
ENDCHAR
STARTCHAR uni50CA
ENCODING 20682
SWIDTH 500 0
DWIDTH 6 0
BBX 15 15 0 -1
BITMAP
1004
17FE
1090
27FE
2492
6492
A7FE
2080
2FFE
2208
27F4
2A12
2270
2204
21FC
ENDCHAR
STARTCHAR uni50CB
ENCODING 20683
SWIDTH 500 0
DWIDTH 6 0
BBX 15 15 0 -1
BITMAP
0860
0890
0948
1246
17FA
3810
53FC
9204
13FC
1204
13FC
1204
13FC
1108
1606
ENDCHAR
STARTCHAR uni50CE
ENCODING 20686
SWIDTH 500 0
DWIDTH 6 0
BBX 15 15 0 -1
BITMAP
17BC
14A4
17BC
2420
2462
63DE
A000
2110
27FE
2110
2110
2FFE
20A0
2318
2C06
ENDCHAR
STARTCHAR uni50CF
ENCODING 20687
SWIDTH 500 0
DWIDTH 6 0
BBX 15 15 0 -1
BITMAP
0890
08F8
0910
1220
17FC
3A44
53FC
9080
114C
16E8
1130
1668
11A4
16E2
1042
ENDCHAR
STARTCHAR uni50D1
ENCODING 20689
SWIDTH 500 0
DWIDTH 6 0
BBX 15 15 0 -1
BITMAP
081C
0FE0
0844
17FE
1108
33F4
5512
99F0
1000
17FE
1402
14F2
1492
14F2
1496
ENDCHAR
STARTCHAR uni50D3
ENCODING 20691
SWIDTH 500 0
DWIDTH 6 0
BBX 15 15 0 -1
BITMAP
1040
17FC
1444
27FC
2040
6FFE
A208
23F8
2208
23F8
2208
23F8
2000
2318
2C06
ENDCHAR
STARTCHAR uni50D4
ENCODING 20692
SWIDTH 500 0
DWIDTH 6 0
BBX 15 15 0 -1
BITMAP
1208
1110
17FE
20A0
27FC
64A4
A73C
2404
27FC
2404
27FC
2010
2FFE
2210
2170
ENDCHAR
STARTCHAR uni50D5
ENCODING 20693
SWIDTH 500 0
DWIDTH 6 0
BBX 15 15 0 -1
BITMAP
14A4
14A4
12A8
20A0
2FFE
6110
A0A4
27FE
2040
27FC
2040
2FFE
20A0
2318
2C06
ENDCHAR
STARTCHAR uni50D6
ENCODING 20694
SWIDTH 500 0
DWIDTH 6 0
BBX 15 15 0 -1
BITMAP
1044
1FFE
1040
27FC
2000
63F8
A208
23F8
2110
2FFE
2000
27FC
2404
27FC
2404
ENDCHAR
STARTCHAR uni50D7
ENCODING 20695
SWIDTH 500 0
DWIDTH 6 0
BBX 15 15 0 -1
BITMAP
1108
156A
15AC
2948
2294
2462
6800
A7FE
2482
2884
27F8
2088
2148
2238
2C10
ENDCHAR
STARTCHAR uni50DA
ENCODING 20698
SWIDTH 500 0
DWIDTH 6 0
BBX 15 15 0 -1
BITMAP
0840
0844
0FFE
10A2
1514
33F8
560C
9BFA
1208
13F8
1040
1248
1444
19C2
1042
ENDCHAR
STARTCHAR uni50DB
ENCODING 20699
SWIDTH 500 0
DWIDTH 6 0
BBX 15 15 0 -1
BITMAP
1490
1490
1FD2
249E
24AA
67AA
A488
2488
2788
2488
2488
3FC8
2494
2862
3042
ENDCHAR
STARTCHAR uni50DD
ENCODING 20701
SWIDTH 500 0
DWIDTH 6 0
BBX 15 15 0 -1
BITMAP
17FC
1404
17FC
2404
25F8
6420
A7FE
2420
2420
27DE
2484
24C8
27BE
2888
33B8
ENDCHAR
STARTCHAR uni50E0
ENCODING 20704
SWIDTH 500 0
DWIDTH 6 0
BBX 15 15 0 -1
BITMAP
1008
103C
17C8
2250
2154
67FE
A150
2248
27FE
2A4A
2248
23F8
2248
23F8
2208
ENDCHAR
STARTCHAR uni50E3
ENCODING 20707
SWIDTH 500 0
DWIDTH 6 0
BBX 15 15 0 -1
BITMAP
1210
1210
1FBE
2210
2FBE
6210
A318
24A6
3BFA
2208
2208
23F8
2208
23F8
2208
ENDCHAR
STARTCHAR uni50E4
ENCODING 20708
SWIDTH 500 0
DWIDTH 6 0
BBX 15 15 0 -1
BITMAP
179E
1492
1492
279E
2000
67FC
A444
27FC
2444
27FC
2444
2040
2FFE
2040
2040
ENDCHAR
STARTCHAR uni50E5
ENCODING 20709
SWIDTH 500 0
DWIDTH 6 0
BBX 15 15 0 -1
BITMAP
1040
1048
13FC
2040
27FE
6210
AFBC
2210
2FBE
2000
2FFE
2120
2122
2222
2C1E
ENDCHAR
STARTCHAR uni50E6
ENCODING 20710
SWIDTH 500 0
DWIDTH 6 0
BBX 15 15 0 -1
BITMAP
1210
1118
1114
2FF4
2010
67FE
A490
2490
2790
2110
2590
2568
292A
374A
2186
ENDCHAR
STARTCHAR uni50E7
ENCODING 20711
SWIDTH 500 0
DWIDTH 6 0
BBX 15 15 0 -1
BITMAP
0908
0890
0810
13FE
1222
3326
52AA
93FE
1000
11FC
1104
11FC
1104
11FC
1104
ENDCHAR
STARTCHAR uni50E8
ENCODING 20712
SWIDTH 500 0
DWIDTH 6 0
BBX 15 15 0 -1
BITMAP
1040
17FC
1040
2150
2FFE
6110
A7FC
2404
27FC
2404
27FC
2404
27FC
2208
2C06
ENDCHAR
STARTCHAR uni50E9
ENCODING 20713
SWIDTH 500 0
DWIDTH 6 0
BBX 15 15 0 -1
BITMAP
2FBE
28A2
2FBE
28A2
2FBE
68A2
A802
29F2
2912
29F2
2912
29F2
2912
2A7E
2C24
ENDCHAR
STARTCHAR uni50EA
ENCODING 20714
SWIDTH 500 0
DWIDTH 6 0
BBX 15 15 0 -1
BITMAP
13FC
1088
1052
2FFE
20A4
6728
A024
27FE
24A4
2514
260C
25F4
2514
25F4
240C
ENDCHAR
STARTCHAR uni50EC
ENCODING 20716
SWIDTH 500 0
DWIDTH 6 0
BBX 15 15 0 -1
BITMAP
0A40
0A24
0BFE
1220
1628
3BFC
5220
9228
13FC
1220
1224
13FE
12A4
1292
1492
ENDCHAR
STARTCHAR uni50ED
ENCODING 20717
SWIDTH 500 0
DWIDTH 6 0
BBX 15 15 0 -1
BITMAP
1084
17FE
1528
2528
2FFE
6108
A39A
252E
2840
23FC
2204
23FC
2204
23FC
2204
ENDCHAR
STARTCHAR uni50EE
ENCODING 20718
SWIDTH 500 0
DWIDTH 6 0
BBX 15 15 0 -1
BITMAP
0840
0FFE
0908
1090
17FE
3000
57FC
9444
17FC
1444
17FC
1040
17FC
1040
1FFE
ENDCHAR
STARTCHAR uni50EF
ENCODING 20719
SWIDTH 500 0
DWIDTH 6 0
BBX 15 15 0 -1
BITMAP
0A48
0A48
0950
17FE
1150
3248
5C46
9208
13FE
1488
1AA8
1128
117E
1208
1408
ENDCHAR
STARTCHAR uni50F0
ENCODING 20720
SWIDTH 500 0
DWIDTH 6 0
BBX 14 15 0 -1
BITMAP
1020
1020
FDFC
1020
FDFC
9524
952C
3870
54A8
9324
0200
0300
0480
1860
E01C
ENDCHAR
STARTCHAR uni50F1
ENCODING 20721
SWIDTH 500 0
DWIDTH 6 0
BBX 15 15 0 -1
BITMAP
0840
0A22
0BFE
1202
13FE
3222
5290
92FE
1290
13FE
1290
12FE
1490
14FE
1880
ENDCHAR
STARTCHAR uni50F3
ENCODING 20723
SWIDTH 500 0
DWIDTH 6 0
BBX 15 15 0 -1
BITMAP
0804
0FFE
0890
17FE
1492
3492
57FE
9248
1150
1054
1FFE
1150
1248
1446
1842
ENDCHAR
STARTCHAR uni50F5
ENCODING 20725
SWIDTH 500 0
DWIDTH 6 0
BBX 15 15 0 -1
BITMAP
1FFE
1000
17FC
2444
27FC
6444
AFFE
2000
27FC
2444
27FC
2444
27FC
2000
2FFE
ENDCHAR
STARTCHAR uni50F6
ENCODING 20726
SWIDTH 500 0
DWIDTH 6 0
BBX 15 15 0 -1
BITMAP
17FC
14A4
14A4
27BC
20A0
67BC
A4A4
27BC
24A4
24A4
27BC
24A4
20A2
20A2
207E
ENDCHAR
STARTCHAR uni50F8
ENCODING 20728
SWIDTH 500 0
DWIDTH 6 0
BBX 15 15 0 -1
BITMAP
1110
1110
1FFE
2110
23B8
6554
A952
2008
27FC
2000
2FFE
2248
2444
29C2
2080
ENDCHAR
STARTCHAR uni50F9
ENCODING 20729
SWIDTH 500 0
DWIDTH 6 0
BBX 15 15 0 -1
BITMAP
1FFE
1090
17FE
1492
27FE
2000
63FC
A204
23FC
2204
23FC
2204
23FC
2090
270E
ENDCHAR
STARTCHAR uni50FB
ENCODING 20731
SWIDTH 500 0
DWIDTH 6 0
BBX 15 15 0 -1
BITMAP
1010
1788
1488
14BE
24A2
2794
6488
A47E
2788
2488
2CBE
3488
2488
2788
2488
ENDCHAR
STARTCHAR uni50FD
ENCODING 20733
SWIDTH 500 0
DWIDTH 6 0
BBX 15 15 0 -1
BITMAP
1088
11C8
1E08
222A
2FAC
6248
A708
2A94
3262
2000
2140
2524
250A
290A
20F8
ENDCHAR
STARTCHAR uni50FE
ENCODING 20734
SWIDTH 500 0
DWIDTH 6 0
BBX 15 15 0 -1
BITMAP
080C
0FF2
0A42
1124
17FE
3442
54A4
928A
14FA
1100
13FC
1508
1890
1060
179E
ENDCHAR
STARTCHAR uni50FF
ENCODING 20735
SWIDTH 500 0
DWIDTH 6 0
BBX 15 15 0 -1
BITMAP
1080
1042
17FE
2514
2FFC
6110
A3F8
2110
2FFE
2248
2444
2BFA
2040
2044
2FFE
ENDCHAR
STARTCHAR uni5100
ENCODING 20736
SWIDTH 500 0
DWIDTH 6 0
BBX 15 15 0 -1
BITMAP
1110
17FE
1040
23FC
2040
67FE
A080
2728
2124
2FFE
2120
21E4
2F2A
2112
276E
ENDCHAR
STARTCHAR uni5102
ENCODING 20738
SWIDTH 500 0
DWIDTH 6 0
BBX 15 15 0 -1
BITMAP
1090
13FC
1294
23FC
2294
67FE
A400
25FC
2400
27FE
2524
2528
2510
2948
3186
ENDCHAR
STARTCHAR uni5103
ENCODING 20739
SWIDTH 500 0
DWIDTH 6 0
BBX 15 15 0 -1
BITMAP
1080
1044
1FFE
2514
25F4
6404
A7FC
2404
23F8
2208
23F8
2208
23F8
2000
2FFE
ENDCHAR
STARTCHAR uni5104
ENCODING 20740
SWIDTH 500 0
DWIDTH 6 0
BBX 15 15 0 -1
BITMAP
1040
17FC
1110
1FFE
2000
23F8
6208
A3F8
2208
23F8
2000
2544
252A
250A
28F8
ENDCHAR
STARTCHAR uni5105
ENCODING 20741
SWIDTH 500 0
DWIDTH 6 0
BBX 15 15 0 -1
BITMAP
144C
1248
1150
1FFE
2802
2BFA
6208
A3F8
2000
27FC
2444
27FC
2444
27FC
2404
ENDCHAR
STARTCHAR uni5106
ENCODING 20742
SWIDTH 500 0
DWIDTH 6 0
BBX 15 15 0 -1
BITMAP
1490
1490
1490
2FDE
24B4
6414
A7D4
2854
3754
2554
2548
2748
2054
23A6
20C2
ENDCHAR
STARTCHAR uni5107
ENCODING 20743
SWIDTH 500 0
DWIDTH 6 0
BBX 15 15 0 -1
BITMAP
0BFE
0A52
0A52
13FE
1000
37FE
5000
93FC
1204
13FC
10A2
1314
1508
1946
1182
ENDCHAR
STARTCHAR uni5108
ENCODING 20744
SWIDTH 500 0
DWIDTH 6 0
BBX 15 15 0 -1
BITMAP
10E0
1110
1208
25F4
2802
67FC
A514
24A4
27FC
2000
23F8
2208
23F8
2208
23F8
ENDCHAR
STARTCHAR uni5109
ENCODING 20745
SWIDTH 500 0
DWIDTH 6 0
BBX 15 15 0 -1
BITMAP
0840
08A0
0910
1208
15F6
3802
57BC
94A4
14A4
17BC
1108
1108
1294
14A2
1842
ENDCHAR
STARTCHAR uni510A
ENCODING 20746
SWIDTH 500 0
DWIDTH 6 0
BBX 15 15 0 -1
BITMAP
1208
1208
1FBE
2208
271C
6AAA
B248
27FE
2044
2240
2248
227C
2540
28C0
303E
ENDCHAR
STARTCHAR uni510B
ENCODING 20747
SWIDTH 500 0
DWIDTH 6 0
BBX 15 15 0 -1
BITMAP
0910
09F8
0A10
13FE
1688
32A4
53FE
9200
12FC
1200
12FC
1200
14FC
1484
18FC
ENDCHAR
STARTCHAR uni510C
ENCODING 20748
SWIDTH 500 0
DWIDTH 6 0
BBX 15 15 0 -1
BITMAP
1110
1210
1790
249E
27B4
64D4
A794
2494
2114
2FD4
2408
2788
2494
2BA6
3142
ENDCHAR
STARTCHAR uni5110
ENCODING 20752
SWIDTH 500 0
DWIDTH 6 0
BBX 15 15 0 -1
BITMAP
0A22
0BFE
0C04
13FC
1148
3250
53FC
9604
1BFC
1204
13FC
1204
13FC
1108
1606
ENDCHAR
STARTCHAR uni5111
ENCODING 20753
SWIDTH 500 0
DWIDTH 6 0
BBX 15 15 0 -1
BITMAP
13FC
1204
13FC
2204
23FC
6204
A208
2492
2F3C
2208
2492
2FBE
22A4
2492
2492
ENDCHAR
STARTCHAR uni5112
ENCODING 20754
SWIDTH 500 0
DWIDTH 6 0
BBX 15 15 0 -1
BITMAP
17FC
1040
17FE
2844
275C
6040
A75C
2000
2FFE
2040
27FC
24A4
24A4
24A4
240C
ENDCHAR
STARTCHAR uni5113
ENCODING 20755
SWIDTH 500 0
DWIDTH 6 0
BBX 15 15 0 -1
BITMAP
1844
17FE
1040
27FC
2110
6110
A7FE
2804
33FC
2108
27FC
2044
27FC
2040
2FFE
ENDCHAR
STARTCHAR uni5114
ENCODING 20756
SWIDTH 500 0
DWIDTH 6 0
BBX 15 15 0 -1
BITMAP
1040
17FC
1040
2FFE
2004
63F4
A040
27FC
2000
2FFE
2004
2FFE
2944
2F24
290C
ENDCHAR
STARTCHAR uni5115
ENCODING 20757
SWIDTH 500 0
DWIDTH 6 0
BBX 15 15 0 -1
BITMAP
1080
1044
17FE
20A2
2FBC
6554
A554
2B5A
2040
2208
23F8
2208
23F8
2408
2808
ENDCHAR
STARTCHAR uni5117
ENCODING 20759
SWIDTH 500 0
DWIDTH 6 0
BBX 15 15 0 -1
BITMAP
1404
157E
1624
2498
2788
607E
A812
2F90
3254
225E
2FD0
2250
2350
24B0
291E
ENDCHAR
STARTCHAR uni5118
ENCODING 20760
SWIDTH 500 0
DWIDTH 6 0
BBX 15 15 0 -1
BITMAP
1040
13F8
1048
2FFE
2048
63F8
A040
2FFE
2528
24A4
2892
27FC
24A4
24A4
3FFE
ENDCHAR
STARTCHAR uni511A
ENCODING 20762
SWIDTH 500 0
DWIDTH 6 0
BBX 15 15 0 -1
BITMAP
1114
1FFE
1110
2110
27FC
64A4
A7FC
2002
27FE
2904
23F8
2E10
2120
20C0
2F00
ENDCHAR
STARTCHAR uni511C
ENCODING 20764
SWIDTH 500 0
DWIDTH 6 0
BBX 15 15 0 -1
BITMAP
1040
1020
1FFE
2922
2314
64FA
A000
27FC
24A4
2FFE
2000
27FC
2040
2040
21C0
ENDCHAR
STARTCHAR uni511F
ENCODING 20767
SWIDTH 500 0
DWIDTH 6 0
BBX 15 15 0 -1
BITMAP
1248
1152
17FE
2914
21F0
6000
A3F8
2208
23F8
2208
23F8
2208
23F8
2110
2E0E
ENDCHAR
STARTCHAR uni5120
ENCODING 20768
SWIDTH 500 0
DWIDTH 6 0
BBX 15 15 0 -1
BITMAP
1248
1490
1490
2248
2FF8
6AA8
A948
2FF8
2000
2AA8
2998
2CC8
2AAA
288A
2EE6
ENDCHAR
STARTCHAR uni5121
ENCODING 20769
SWIDTH 500 0
DWIDTH 6 0
BBX 15 15 0 -1
BITMAP
1208
13FC
1248
23F8
2248
63F8
A208
2FBE
2AAA
2AAA
2FBE
2AAA
2AAA
2FBE
28A2
ENDCHAR
STARTCHAR uni5122
ENCODING 20770
SWIDTH 500 0
DWIDTH 6 0
BBX 15 15 0 -1
BITMAP
1080
10FC
1480
27FE
2484
67F8
A482
25FE
2524
25FC
2524
25FC
2AA4
328A
24FA
ENDCHAR
STARTCHAR uni5124
ENCODING 20772
SWIDTH 500 0
DWIDTH 6 0
BBX 15 15 0 -1
BITMAP
13FC
1204
13FC
2204
23FC
6090
A3FC
2090
2FFE
2248
244C
2952
20F0
274C
20C4
ENDCHAR
STARTCHAR uni5125
ENCODING 20773
SWIDTH 500 0
DWIDTH 6 0
BBX 15 15 0 -1
BITMAP
1044
1FFE
1040
23FC
2000
67FC
A4A4
27FC
2208
23F8
2208
23F8
2208
23F8
2E0E
ENDCHAR
STARTCHAR uni5126
ENCODING 20774
SWIDTH 500 0
DWIDTH 6 0
BBX 15 15 0 -1
BITMAP
1080
1444
17FE
2490
27FE
6492
A7FE
2510
25DC
2512
25DE
2400
2554
2A4A
324A
ENDCHAR
STARTCHAR uni5129
ENCODING 20777
SWIDTH 500 0
DWIDTH 6 0
BBX 15 15 0 -1
BITMAP
1044
1F7E
1944
297C
2F44
697C
A924
2F22
297E
29AA
2F2A
294A
2692
292E
3144
ENDCHAR
STARTCHAR uni512A
ENCODING 20778
SWIDTH 500 0
DWIDTH 6 0
BBX 15 15 0 -1
BITMAP
0BFE
0820
09F8
1108
11F8
3108
57FE
9442
12AC
12FA
1482
11FC
1248
1030
13CE
ENDCHAR
STARTCHAR uni512D
ENCODING 20781
SWIDTH 500 0
DWIDTH 6 0
BBX 15 15 0 -1
BITMAP
1600
123C
1FE4
28A4
253C
2524
7FE4
A23C
2FA4
223C
2708
2A98
32AA
2E4A
2486
ENDCHAR
STARTCHAR uni512E
ENCODING 20782
SWIDTH 500 0
DWIDTH 6 0
BBX 15 15 0 -1
BITMAP
1404
17FE
1444
27B8
2488
67FE
A488
25DC
26AA
2420
2420
253C
2920
2924
37FE
ENDCHAR
STARTCHAR uni5130
ENCODING 20784
SWIDTH 500 0
DWIDTH 6 0
BBX 15 15 0 -1
BITMAP
1110
1110
17FE
2110
2480
6280
A7F8
2110
21FC
2208
23FE
2402
2A52
22AA
24AC
ENDCHAR
STARTCHAR uni5131
ENCODING 20785
SWIDTH 500 0
DWIDTH 6 0
BBX 15 15 0 -1
BITMAP
1420
1224
1FBE
2920
253E
6FC2
A03E
2FA0
28BE
2FA0
28BE
2FA0
28BE
28A2
2B9E
ENDCHAR
STARTCHAR uni5132
ENCODING 20786
SWIDTH 500 0
DWIDTH 6 0
BBX 15 15 0 -1
BITMAP
1020
1420
1222
227A
2FA4
6028
AFFE
2010
2F3E
2062
2FA2
293E
2922
2F3E
2922
ENDCHAR
STARTCHAR uni5133
ENCODING 20787
SWIDTH 500 0
DWIDTH 6 0
BBX 15 15 0 -1
BITMAP
09F0
0A10
0FFC
1204
13FC
3424
57B8
9422
17FE
1220
17FC
1A44
13FC
10AA
173E
ENDCHAR
STARTCHAR uni5134
ENCODING 20788
SWIDTH 500 0
DWIDTH 6 0
BBX 15 15 0 -1
BITMAP
1044
1FFE
1000
27BC
24A4
67BC
A110
2FFE
2110
27FC
2110
2FFE
2514
39C8
2306
ENDCHAR
STARTCHAR uni5135
ENCODING 20789
SWIDTH 500 0
DWIDTH 6 0
BBX 15 15 0 -1
BITMAP
1100
11FE
1290
2C60
2898
2F06
6BFC
AA54
2BFC
2820
2BFC
2820
2FFE
22A4
2452
ENDCHAR
STARTCHAR uni5137
ENCODING 20791
SWIDTH 500 0
DWIDTH 6 0
BBX 15 15 0 -1
BITMAP
17BC
1000
17BC
26B4
25AC
6440
A7FE
2490
27FC
2494
27FC
2520
25BA
2922
31DE
ENDCHAR
STARTCHAR uni5138
ENCODING 20792
SWIDTH 500 0
DWIDTH 6 0
BBX 15 15 0 -1
BITMAP
1404
17FE
14A4
24A4
27FC
6228
A57E
2E48
22FE
2548
2F48
207E
2548
2AFE
2A40
ENDCHAR
STARTCHAR uni5139
ENCODING 20793
SWIDTH 500 0
DWIDTH 6 0
BBX 15 15 0 -1
BITMAP
1110
1550
17FC
2550
2FFE
652A
A54E
2BF8
2208
23F8
2208
23F8
2208
23F8
2E0E
ENDCHAR
STARTCHAR uni513A
ENCODING 20794
SWIDTH 500 0
DWIDTH 6 0
BBX 15 15 0 -1
BITMAP
1528
1FE4
1524
273E
2268
6FA8
AAA8
2FBE
2228
2FA8
223E
2FA8
2528
28BE
30A0
ENDCHAR
STARTCHAR uni513B
ENCODING 20795
SWIDTH 500 0
DWIDTH 6 0
BBX 15 15 0 -1
BITMAP
1444
1248
1FFE
290A
29FA
6000
A7FC
2554
27FC
2040
27FC
2040
2FFE
2524
2892
ENDCHAR
STARTCHAR uni513C
ENCODING 20796
SWIDTH 500 0
DWIDTH 6 0
BBX 15 15 0 -1
BITMAP
17BC
14A4
17BC
2000
27FE
6410
A7D0
249E
27F4
2554
25D4
2548
29E8
2B56
3062
ENDCHAR
STARTCHAR uni513D
ENCODING 20797
SWIDTH 500 0
DWIDTH 6 0
BBX 15 15 0 -1
BITMAP
17FC
1444
17FC
2444
2FFE
6AAA
AFBE
2AAA
2FBE
2090
27E0
2104
2FFE
2248
2CC6
ENDCHAR
STARTCHAR uni513F
ENCODING 20799
SWIDTH 500 0
DWIDTH 6 0
BBX 15 15 0 -1
BITMAP
0840
0C60
0840
0840
0840
0840
0840
0840
0840
0840
1040
1044
2044
4046
803C
ENDCHAR
STARTCHAR uni5140
ENCODING 20800
SWIDTH 500 0
DWIDTH 6 0
BBX 15 14 0 -1
BITMAP
0008
FFFC
0880
0880
0880
0880
0880
0880
0880
1080
1084
2084
4086
807C
ENDCHAR
STARTCHAR uni5141
ENCODING 20801
SWIDTH 500 0
DWIDTH 6 0
BBX 15 15 0 -1
BITMAP
0300
0200
0400
0840
1020
2018
7FE8
0888
0880
0880
0880
0884
1084
2086
C07C
ENDCHAR
STARTCHAR uni5143
ENCODING 20803
SWIDTH 500 0
DWIDTH 6 0
BBX 15 15 0 -1
BITMAP
0020
3FF0
0000
0000
0000
0008
FFFC
0880
0880
0880
0880
0884
1084
2086
C07C
ENDCHAR
STARTCHAR uni5144
ENCODING 20804
SWIDTH 500 0
DWIDTH 6 0
BBX 15 15 0 -1
BITMAP
2010
3FF8
2010
2010
2010
2010
3FF0
2490
0480
0480
0480
0884
1084
2086
C07C
ENDCHAR
STARTCHAR uni5145
ENCODING 20805
SWIDTH 500 0
DWIDTH 6 0
BBX 15 15 0 -1
BITMAP
0200
0100
0108
FFFC
0400
0820
10F0
7F90
2480
0480
0480
0884
0884
3086
C07C
ENDCHAR
STARTCHAR uni5146
ENCODING 20806
SWIDTH 500 0
DWIDTH 6 0
BBX 15 15 0 -1
BITMAP
0480
0480
0498
4490
24A0
24C0
0480
04C0
1CA0
E498
4888
0884
1084
2086
C07C
ENDCHAR
STARTCHAR uni5147
ENCODING 20807
SWIDTH 500 0
DWIDTH 6 0
BBX 15 14 0 -1
BITMAP
08C0
4488
4308
4288
4448
4848
4008
7FF8
4488
0480
0884
0884
1086
E07C
ENDCHAR
STARTCHAR uni5148
ENCODING 20808
SWIDTH 500 0
DWIDTH 6 0
BBX 15 15 0 -1
BITMAP
0100
1100
1120
1FF0
2100
4100
0108
FFFC
0480
0480
0480
0884
1084
2086
C07C
ENDCHAR
STARTCHAR uni5149
ENCODING 20809
SWIDTH 500 0
DWIDTH 6 0
BBX 15 14 0 -1
BITMAP
0100
2118
1110
1920
0940
0100
FFFC
0480
0480
0480
0884
0884
1086
E07C
ENDCHAR
STARTCHAR uni514B
ENCODING 20811
SWIDTH 500 0
DWIDTH 6 0
BBX 15 15 0 -1
BITMAP
0200
0208
FFFC
0200
0220
1FF0
1020
1020
1020
1FE0
0480
0484
0884
3086
C07C
ENDCHAR
STARTCHAR uni514C
ENCODING 20812
SWIDTH 500 0
DWIDTH 6 0
BBX 15 15 0 -1
BITMAP
1060
0840
0480
04A0
1FF0
1020
1020
1020
1FE0
14A0
0480
0484
0884
3086
C07C
ENDCHAR
STARTCHAR uni514D
ENCODING 20813
SWIDTH 500 0
DWIDTH 6 0
BBX 15 15 0 -1
BITMAP
0800
0880
1FC0
1080
2110
7FF8
A210
2210
2210
3FF0
2290
0484
0884
3086
C07C
ENDCHAR
STARTCHAR uni5151
ENCODING 20817
SWIDTH 500 0
DWIDTH 6 0
BBX 15 15 0 -1
BITMAP
1060
0840
0480
0020
1FF0
1020
1020
1020
1FE0
14A0
0480
0484
0884
3086
C07C
ENDCHAR
STARTCHAR uni5152
ENCODING 20818
SWIDTH 500 0
DWIDTH 6 0
BBX 15 15 0 -1
BITMAP
0410
2EF8
3010
2010
3CF0
2010
2010
3FF0
2490
0480
0480
0884
0884
3086
C07C
ENDCHAR
STARTCHAR uni5154
ENCODING 20820
SWIDTH 500 0
DWIDTH 6 0
BBX 15 15 0 -1
BITMAP
0800
0880
1FC0
1080
2110
7FF8
A210
2210
3FF0
2290
0280
04A4
0894
3086
C07C
ENDCHAR
STARTCHAR uni5155
ENCODING 20821
SWIDTH 500 0
DWIDTH 6 0
BBX 15 15 0 -1
BITMAP
7CF8
4488
4488
4488
4788
4008
4008
7FF8
4888
0880
0880
0884
1084
2086
C07C
ENDCHAR
STARTCHAR uni5156
ENCODING 20822
SWIDTH 500 0
DWIDTH 6 0
BBX 15 15 0 -1
BITMAP
0200
0108
FFFC
0000
1A20
3218
C488
0440
0BF0
7C90
2480
0484
0884
1086
E07C
ENDCHAR
STARTCHAR uni5157
ENCODING 20823
SWIDTH 500 0
DWIDTH 6 0
BBX 15 15 0 -1
BITMAP
0300
0108
FFFC
0000
3020
4018
9FE8
1020
1020
1FE0
14A0
0484
0884
3086
C07C
ENDCHAR
STARTCHAR uni5159
ENCODING 20825
SWIDTH 500 0
DWIDTH 6 0
BBX 15 15 0 -1
BITMAP
1010
1010
FF10
1010
1010
FEFE
8210
8210
FE10
AA10
2810
2814
2814
4806
87FC
ENDCHAR
STARTCHAR uni515A
ENCODING 20826
SWIDTH 500 0
DWIDTH 6 0
BBX 15 15 0 -1
BITMAP
2230
1220
1244
7FFC
4008
8020
1FF0
1020
1020
1FE0
14A0
0484
0884
3086
C07C
ENDCHAR
STARTCHAR uni515B
ENCODING 20827
SWIDTH 500 0
DWIDTH 6 0
BBX 15 15 0 -1
BITMAP
1004
100E
FF70
1010
1210
FF10
82FE
8210
FE10
AA10
2810
2814
2814
4806
87FC
ENDCHAR
STARTCHAR uni515C
ENCODING 20828
SWIDTH 500 0
DWIDTH 6 0
BBX 15 15 0 -1
BITMAP
0300
2208
CFBC
8888
8888
8F88
8888
EFB8
8888
0000
0880
0884
0884
3086
C07C
ENDCHAR
STARTCHAR uni515D
ENCODING 20829
SWIDTH 500 0
DWIDTH 6 0
BBX 15 15 0 -1
BITMAP
1008
1048
FF48
1048
1286
FF02
82FC
8224
FE24
AA24
2844
28BC
2912
4802
87FE
ENDCHAR
STARTCHAR uni515E
ENCODING 20830
SWIDTH 500 0
DWIDTH 6 0
BBX 15 15 0 -1
BITMAP
1008
101C
FFE0
1020
103C
FEE0
8220
823C
FEE0
AA22
2822
281E
2802
4802
87FE
ENDCHAR
STARTCHAR uni515F
ENCODING 20831
SWIDTH 500 0
DWIDTH 6 0
BBX 15 15 0 -1
BITMAP
0810
4890
4890
7EFC
4890
8910
0810
FEFE
2848
2848
2948
2A4A
2C8A
490A
8606
ENDCHAR
STARTCHAR uni5161
ENCODING 20833
SWIDTH 500 0
DWIDTH 6 0
BBX 15 15 0 -1
BITMAP
1004
10FE
FF10
1024
10FE
FE84
8284
8284
FEFC
AA84
2884
28FC
2886
4802
87FE
ENDCHAR
STARTCHAR uni5162
ENCODING 20834
SWIDTH 500 0
DWIDTH 6 0
BBX 15 15 0 -1
BITMAP
1010
1010
FEFE
1010
1214
7FFE
4284
4284
7EFC
2A54
2850
2950
2A52
4C92
8B0E
ENDCHAR
STARTCHAR uni5163
ENCODING 20835
SWIDTH 500 0
DWIDTH 6 0
BBX 15 15 0 -1
BITMAP
1004
11FE
FF00
117C
1154
7D7C
4554
457C
7D54
2910
297C
2A10
2CFE
4802
87FE
ENDCHAR
STARTCHAR uni5165
ENCODING 20837
SWIDTH 500 0
DWIDTH 6 0
BBX 15 14 0 -1
BITMAP
1E00
0100
0100
0100
0100
0280
0280
0440
0440
0820
1010
200C
4006
8002
ENDCHAR
STARTCHAR uni5167
ENCODING 20839
SWIDTH 500 0
DWIDTH 6 0
BBX 13 15 0 -1
BITMAP
0600
0400
0400
0410
FFF8
8410
8410
8610
8910
90D0
A050
8010
8090
8070
8020
ENDCHAR
STARTCHAR uni5168
ENCODING 20840
SWIDTH 500 0
DWIDTH 6 0
BBX 14 15 0 -1
BITMAP
0300
0480
0840
1020
2010
400C
9FE4
0100
0100
0120
3FF0
0100
0100
0108
FFFC
ENDCHAR
STARTCHAR uni5169
ENCODING 20841
SWIDTH 500 0
DWIDTH 6 0
BBX 14 15 0 -1
BITMAP
0008
FFFC
0200
0208
FFFC
8208
A288
9248
9248
AAA8
CB28
8208
8248
8238
8010
ENDCHAR
STARTCHAR uni516B
ENCODING 20843
SWIDTH 500 0
DWIDTH 6 0
BBX 15 15 0 -1
BITMAP
00C0
0040
0040
0640
0440
0440
0420
0820
0820
0810
1010
1008
2004
4006
8002
ENDCHAR
STARTCHAR uni516C
ENCODING 20844
SWIDTH 500 0
DWIDTH 6 0
BBX 14 15 0 -1
BITMAP
0080
0880
0880
1040
1040
2020
2218
420C
8404
0400
0880
0840
13E0
7C30
2010
ENDCHAR
STARTCHAR uni516D
ENCODING 20845
SWIDTH 500 0
DWIDTH 6 0
BBX 14 15 0 -1
BITMAP
0400
0200
0300
0100
0008
FFFC
0000
0000
0840
0840
1020
1020
2010
400C
8004
ENDCHAR
STARTCHAR uni516E
ENCODING 20846
SWIDTH 500 0
DWIDTH 6 0
BBX 15 15 0 -1
BITMAP
0040
0C40
0820
1010
200C
4FE6
8202
0200
0410
1FF8
0010
0020
0220
01C0
0080
ENDCHAR
STARTCHAR uni5170
ENCODING 20848
SWIDTH 500 0
DWIDTH 6 0
BBX 14 15 0 -1
BITMAP
2060
1040
0840
0880
0090
7FF8
0000
0000
0020
3FF0
0000
0000
0000
0008
FFFC
ENDCHAR
STARTCHAR uni5171
ENCODING 20849
SWIDTH 500 0
DWIDTH 6 0
BBX 15 15 0 -1
BITMAP
0420
0420
0420
0420
3FFC
0420
0420
0420
0420
7FFE
0000
0C10
080C
3006
C002
ENDCHAR
STARTCHAR uni5173
ENCODING 20851
SWIDTH 500 0
DWIDTH 6 0
BBX 14 15 0 -1
BITMAP
1060
0840
0480
0490
7FF8
0200
0200
0208
FFFC
0200
0500
0880
1040
2030
C00C
ENDCHAR
STARTCHAR uni5174
ENCODING 20852
SWIDTH 500 0
DWIDTH 6 0
BBX 14 15 0 -1
BITMAP
0018
0810
8410
4220
2220
1240
1040
0048
FFFC
0000
0C40
0820
1010
200C
C004
ENDCHAR
STARTCHAR uni5175
ENCODING 20853
SWIDTH 500 0
DWIDTH 6 0
BBX 14 15 0 -1
BITMAP
0020
1070
1F80
1000
1010
1FF8
1080
1080
1080
1088
FFFC
0000
0CC0
3030
C00C
ENDCHAR
STARTCHAR uni5176
ENCODING 20854
SWIDTH 500 0
DWIDTH 6 0
BBX 14 15 0 -1
BITMAP
0840
0840
0848
FFFC
0840
0FC0
0840
0840
0FC0
0848
FFFC
0000
0CC0
3030
C00C
ENDCHAR
STARTCHAR uni5177
ENCODING 20855
SWIDTH 500 0
DWIDTH 6 0
BBX 14 15 0 -1
BITMAP
1020
1FF0
1020
1020
1FE0
1020
1FE0
1020
1FE0
1020
1028
FFFC
0840
3030
C00C
ENDCHAR
STARTCHAR uni5178
ENCODING 20856
SWIDTH 500 0
DWIDTH 6 0
BBX 14 15 0 -1
BITMAP
0480
2490
3FF8
2490
2490
2490
3FF0
2490
2490
2490
FFFC
0000
0840
3030
C00C
ENDCHAR
STARTCHAR uni5179
ENCODING 20857
SWIDTH 500 0
DWIDTH 6 0
BBX 15 15 0 -1
BITMAP
0820
0420
0444
7FFE
0820
0820
1044
1248
2490
7DF0
0820
1048
2484
FEFE
4282
ENDCHAR
STARTCHAR uni517B
ENCODING 20859
SWIDTH 500 0
DWIDTH 6 0
BBX 14 15 0 -1
BITMAP
1040
0888
FFFC
0200
0220
3FF0
0408
FFFC
1020
2850
C84C
0840
0840
1040
6040
ENDCHAR
STARTCHAR uni517C
ENCODING 20860
SWIDTH 500 0
DWIDTH 6 0
BBX 15 15 0 -1
BITMAP
0820
0420
0444
7FFE
0480
1FF0
0494
7FFE
0490
3FF0
0CD0
14A0
2490
448C
8484
ENDCHAR
STARTCHAR uni517D
ENCODING 20861
SWIDTH 500 0
DWIDTH 6 0
BBX 14 15 0 -1
BITMAP
1040
4890
7FF8
4210
7FF0
4210
7FF0
4010
0008
FFFC
0000
3FE0
2020
3FE0
2020
ENDCHAR
STARTCHAR uni5180
ENCODING 20864
SWIDTH 500 0
DWIDTH 6 0
BBX 14 15 0 -1
BITMAP
0490
FCA4
04C4
0484
FFFC
4210
7FF0
4210
7FF0
0880
7FF8
0880
FFFC
1020
E01C
ENDCHAR
STARTCHAR uni5181
ENCODING 20865
SWIDTH 500 0
DWIDTH 6 0
BBX 15 15 0 -1
BITMAP
45FE
2502
2902
7DFE
5502
5548
7DFE
5548
5548
7DFE
1152
FF4C
1148
1264
1442
ENDCHAR
STARTCHAR uni5182
ENCODING 20866
SWIDTH 500 0
DWIDTH 6 0
BBX 13 15 0 -1
BITMAP
8010
FFF8
8010
8010
8010
8010
8010
8010
8010
8010
8010
8010
8090
8070
8020
ENDCHAR
STARTCHAR uni5185
ENCODING 20869
SWIDTH 500 0
DWIDTH 6 0
BBX 13 15 0 -1
BITMAP
0600
0400
0410
FFF8
8410
8410
8410
8610
8510
88D0
9050
A010
8090
8070
8020
ENDCHAR
STARTCHAR uni5187
ENCODING 20871
SWIDTH 500 0
DWIDTH 6 0
BBX 14 15 0 -1
BITMAP
0600
0408
FFFC
0800
0800
1010
1FF8
2810
4810
8810
0810
0810
0890
0870
0820
ENDCHAR
STARTCHAR uni5188
ENCODING 20872
SWIDTH 500 0
DWIDTH 6 0
BBX 13 15 0 -1
BITMAP
0010
FFF8
8010
8090
A090
9110
8910
8610
8510
8890
9090
A010
8090
8070
8020
ENDCHAR
STARTCHAR uni5189
ENCODING 20873
SWIDTH 500 0
DWIDTH 6 0
BBX 14 15 0 -1
BITMAP
0300
0200
0210
3FF8
2210
2210
3FF0
2210
2210
FFFC
2010
2010
2090
2070
2020
ENDCHAR
STARTCHAR uni518A
ENCODING 20874
SWIDTH 500 0
DWIDTH 6 0
BBX 14 15 0 -1
BITMAP
2010
3FF8
2490
2490
2490
2490
2490
FFFC
2490
2490
2490
2490
2490
24F0
2020
ENDCHAR
STARTCHAR uni518C
ENCODING 20876
SWIDTH 500 0
DWIDTH 6 0
BBX 14 15 0 -1
BITMAP
0410
3EF8
2490
2490
2490
2490
2490
FFFC
2490
2490
2490
2490
4510
5D70
8A20
ENDCHAR
STARTCHAR uni518D
ENCODING 20877
SWIDTH 500 0
DWIDTH 6 0
BBX 14 15 0 -1
BITMAP
0008
FFFC
0200
2210
3FF8
2210
2210
3FF0
2210
2210
FFFC
2010
2010
2070
2020
ENDCHAR
STARTCHAR uni518F
ENCODING 20879
SWIDTH 500 0
DWIDTH 6 0
BBX 14 15 0 -1
BITMAP
8008
FFFC
8008
8488
8848
9028
A028
8FC8
8848
8848
8848
8FC8
8848
8038
8010
ENDCHAR
STARTCHAR uni5191
ENCODING 20881
SWIDTH 500 0
DWIDTH 6 0
BBX 12 15 0 -1
BITMAP
8420
FFF0
8420
FFE0
8420
FFE0
8020
7FC0
4040
7FC0
4040
7FC0
4040
41C0
4080
ENDCHAR
STARTCHAR uni5192
ENCODING 20882
SWIDTH 500 0
DWIDTH 6 0
BBX 13 15 0 -1
BITMAP
8010
FFF8
8010
BFD0
8010
BFD0
8010
3FC0
2040
3FC0
2040
3FC0
2040
3FC0
2040
ENDCHAR
STARTCHAR uni5193
ENCODING 20883
SWIDTH 500 0
DWIDTH 6 0
BBX 15 15 0 -1
BITMAP
0440
7FFC
0440
3FF8
0440
FFFE
0100
1FF8
1108
1FF8
1108
7FFE
1008
1038
1010
ENDCHAR
STARTCHAR uni5194
ENCODING 20884
SWIDTH 500 0
DWIDTH 6 0
BBX 14 15 0 -1
BITMAP
2020
3FF0
2020
3FE0
2020
3FE0
0000
FBF8
8840
8848
8FFC
8840
FA40
89C0
0080
ENDCHAR
STARTCHAR uni5195
ENCODING 20885
SWIDTH 500 0
DWIDTH 6 0
BBX 15 15 0 -1
BITMAP
3FF0
2010
2FD0
2010
2FD0
2410
0FC0
1090
3FF8
E110
3FF0
2294
0484
1886
607C
ENDCHAR
STARTCHAR uni5196
ENCODING 20886
SWIDTH 500 0
DWIDTH 6 0
BBX 14 4 0 5
BITMAP
4004
7FFC
4008
8010
ENDCHAR
STARTCHAR uni5197
ENCODING 20887
SWIDTH 500 0
DWIDTH 6 0
BBX 15 15 0 -1
BITMAP
4008
7FFC
4008
8010
0080
1FC0
1080
1080
1080
1080
1080
1084
2084
4086
807C
ENDCHAR
STARTCHAR uni5198
ENCODING 20888
SWIDTH 500 0
DWIDTH 6 0
BBX 15 15 0 -1
BITMAP
0200
0200
4208
7FFC
4208
8210
0300
0300
0300
0500
0500
0904
1104
2106
C0FC
ENDCHAR
STARTCHAR uni5199
ENCODING 20889
SWIDTH 500 0
DWIDTH 6 0
BBX 14 14 0 -1
BITMAP
7FFC
4004
8808
0800
1FF0
1000
2008
7FFC
0008
0008
FF88
0088
0070
0020
ENDCHAR
STARTCHAR uni519B
ENCODING 20891
SWIDTH 500 0
DWIDTH 6 0
BBX 14 14 0 -1
BITMAP
7FFC
4004
8408
7FF0
0800
0900
1100
3FF0
0100
0108
FFFC
0100
0100
0100
ENDCHAR
STARTCHAR uni519C
ENCODING 20892
SWIDTH 500 0
DWIDTH 6 0
BBX 15 15 0 -1
BITMAP
0180
0100
0100
7FFE
4202
8304
0500
0888
1890
2860
4840
8920
0A10
1C0C
0804
ENDCHAR
STARTCHAR uni519E
ENCODING 20894
SWIDTH 500 0
DWIDTH 6 0
BBX 14 15 0 -1
BITMAP
4004
7FFC
4008
8210
2220
1240
1248
FFFC
0600
0A80
1240
2220
4218
8208
0200
ENDCHAR
STARTCHAR uni51A0
ENCODING 20896
SWIDTH 500 0
DWIDTH 6 0
BBX 14 15 0 -1
BITMAP
4004
7FFC
4008
8400
7E10
00FC
0210
FF10
2490
2490
2490
2470
4424
4404
83FC
ENDCHAR
STARTCHAR uni51A2
ENCODING 20898
SWIDTH 500 0
DWIDTH 6 0
BBX 14 15 0 -1
BITMAP
4004
7FFC
4008
8010
3FF8
0400
0A30
1220
E940
1180
2B40
CD20
1518
E108
0600
ENDCHAR
STARTCHAR uni51A4
ENCODING 20900
SWIDTH 500 0
DWIDTH 6 0
BBX 15 15 0 -1
BITMAP
4004
7FFC
8808
8FD0
1080
2110
7FF8
A210
2210
3FF0
2350
0524
0924
3106
C1FC
ENDCHAR
STARTCHAR uni51A5
ENCODING 20901
SWIDTH 500 0
DWIDTH 6 0
BBX 14 15 0 -1
BITMAP
7FFC
4004
5028
9FF0
1020
1FE0
1020
1FE0
1220
0108
FFFC
0000
0840
3030
C00C
ENDCHAR
STARTCHAR uni51AA
ENCODING 20906
SWIDTH 500 0
DWIDTH 6 0
BBX 14 15 0 -1
BITMAP
7FFC
8488
3FF0
0480
1FE0
1020
1FE0
1020
FFFC
1240
3FF0
522C
9224
12E0
0200
ENDCHAR
STARTCHAR uni51AB
ENCODING 20907
SWIDTH 500 0
DWIDTH 6 0
BBX 5 14 0 -1
BITMAP
80
60
20
00
08
10
10
20
20
C0
40
40
40
40
ENDCHAR
STARTCHAR uni51AC
ENCODING 20908
SWIDTH 500 0
DWIDTH 6 0
BBX 14 15 0 -1
BITMAP
0C00
0820
0FF0
0820
1440
2280
4100
0280
0C60
F19C
0080
0000
0E00
01C0
0040
ENDCHAR
STARTCHAR uni51AF
ENCODING 20911
SWIDTH 500 0
DWIDTH 6 0
BBX 15 15 0 -1
BITMAP
0008
87FC
6008
2888
0890
1110
1110
23FE
2002
C022
47F2
4002
4022
401C
0008
ENDCHAR
STARTCHAR uni51B0
ENCODING 20912
SWIDTH 500 0
DWIDTH 6 0
BBX 15 15 0 -1
BITMAP
0040
8040
6040
284C
0848
17F0
1150
2150
2248
C248
4444
4444
4A42
51C2
0080
ENDCHAR
STARTCHAR uni51B1
ENCODING 20913
SWIDTH 500 0
DWIDTH 6 0
BBX 15 15 0 -1
BITMAP
0004
87FE
6080
2880
0888
10FC
1108
2108
2110
C210
47F0
4210
4010
4014
0FFE
ENDCHAR
STARTCHAR uni51B2
ENCODING 20914
SWIDTH 500 0
DWIDTH 6 0
BBX 15 15 0 -1
BITMAP
0020
8020
6020
2A22
0BFE
1222
1222
2222
2222
C3FE
4222
4020
4020
4020
0020
ENDCHAR
STARTCHAR uni51B3
ENCODING 20915
SWIDTH 500 0
DWIDTH 6 0
BBX 15 15 0 -1
BITMAP
0040
8040
6048
2BFC
0848
1048
1048
2048
27FE
C040
40A0
4110
420C
4406
0802
ENDCHAR
STARTCHAR uni51B5
ENCODING 20917
SWIDTH 500 0
DWIDTH 6 0
BBX 15 15 0 -1
BITMAP
0204
83FE
6204
2A04
0A04
1204
13FC
22A4
20A0
C0A0
40A0
4122
4124
4224
0C1E
ENDCHAR
STARTCHAR uni51B6
ENCODING 20918
SWIDTH 500 0
DWIDTH 6 0
BBX 15 15 0 -1
BITMAP
0040
8040
6080
2888
0904
17FE
1202
2104
21FE
C104
4104
4104
4104
41FC
0104
ENDCHAR
STARTCHAR uni51B7
ENCODING 20919
SWIDTH 500 0
DWIDTH 6 0
BBX 15 15 0 -1
BITMAP
0040
8040
60A0
2890
0908
1246
1422
2820
23FC
C008
4010
4020
41C0
4020
0010
ENDCHAR
STARTCHAR uni51B9
ENCODING 20921
SWIDTH 500 0
DWIDTH 6 0
BBX 15 15 0 -1
BITMAP
0080
8090
6088
2880
0FFE
1100
1108
2108
2288
C290
4460
4420
4850
5088
0306
ENDCHAR
STARTCHAR uni51BB
ENCODING 20923
SWIDTH 500 0
DWIDTH 6 0
BBX 15 15 0 -1
BITMAP
0040
8044
63FE
2880
0880
1120
1124
23FE
2020
C128
4124
4222
4522
48E2
0040
ENDCHAR
STARTCHAR uni51BC
ENCODING 20924
SWIDTH 500 0
DWIDTH 6 0
BBX 15 15 0 -1
BITMAP
0020
8120
6128
29FC
0A20
1420
1024
27FE
2090
C090
4090
4092
4112
4212
0C0E
ENDCHAR
STARTCHAR uni51BD
ENCODING 20925
SWIDTH 500 0
DWIDTH 6 0
BBX 15 15 0 -1
BITMAP
0042
8FE2
6202
2A12
0A52
13F2
1252
2452
2A52
C192
4092
4102
4212
440E
0804
ENDCHAR
STARTCHAR uni51BE
ENCODING 20926
SWIDTH 500 0
DWIDTH 6 0
BBX 15 15 0 -1
BITMAP
0040
8060
6090
2908
0A06
1412
13F8
2000
2208
C3FC
4208
4208
4208
43F8
0208
ENDCHAR
STARTCHAR uni51C0
ENCODING 20928
SWIDTH 500 0
DWIDTH 6 0
BBX 15 15 0 -1
BITMAP
0080
8080
61F0
2A20
0C48
13FC
1048
2FFE
2048
C7F8
4048
4040
4240
41C0
0080
ENDCHAR
STARTCHAR uni51C4
ENCODING 20932
SWIDTH 500 0
DWIDTH 6 0
BBX 15 15 0 -1
BITMAP
0044
8FFE
6040
2BF8
0848
17FE
1048
23F8
2084
CFFE
4090
4120
4320
40D8
0F06
ENDCHAR
STARTCHAR uni51C5
ENCODING 20933
SWIDTH 500 0
DWIDTH 6 0
BBX 15 15 0 -1
BITMAP
0404
87FE
6444
2444
0DF4
1444
1444
25F4
2514
C514
45F4
4514
4404
47FC
0404
ENDCHAR
STARTCHAR uni51C6
ENCODING 20934
SWIDTH 500 0
DWIDTH 6 0
BBX 14 15 0 -1
BITMAP
0140
8120
6228
23FC
0640
1A40
1248
23FC
2240
C248
43FC
4240
4248
43FC
0200
ENDCHAR
STARTCHAR uni51C7
ENCODING 20935
SWIDTH 500 0
DWIDTH 6 0
BBX 15 15 0 -1
BITMAP
0200
8228
6228
2228
0FA4
1244
1242
2712
2A90
D2A0
5220
4224
4244
42FE
0242
ENDCHAR
STARTCHAR uni51C8
ENCODING 20936
SWIDTH 500 0
DWIDTH 6 0
BBX 15 15 0 -1
BITMAP
0008
803C
67C4
2A44
0928
1000
13F8
2048
2FFE
C048
43F8
4048
4240
41C0
0080
ENDCHAR
STARTCHAR uni51C9
ENCODING 20937
SWIDTH 500 0
DWIDTH 6 0
BBX 15 15 0 -1
BITMAP
0080
8040
6044
27FE
0800
13FC
1204
2204
23FC
C224
4020
4230
4528
48E4
1044
ENDCHAR
STARTCHAR uni51CA
ENCODING 20938
SWIDTH 500 0
DWIDTH 6 0
BBX 15 15 0 -1
BITMAP
0044
87FE
6040
2BFC
0840
17FE
1000
23FC
2204
C3FC
4204
43FC
4204
4204
021C
ENDCHAR
STARTCHAR uni51CB
ENCODING 20939
SWIDTH 500 0
DWIDTH 6 0
BBX 15 15 0 -1
BITMAP
0004
87FE
6404
2444
0DF4
1444
15F4
2404
25F4
C514
4514
45F4
4514
481C
1008
ENDCHAR
STARTCHAR uni51CC
ENCODING 20940
SWIDTH 500 0
DWIDTH 6 0
BBX 15 15 0 -1
BITMAP
0040
8048
63FC
2840
0844
17FE
1108
2204
248A
C1FC
4308
4490
4860
419E
0E04
ENDCHAR
STARTCHAR uni51CD
ENCODING 20941
SWIDTH 500 0
DWIDTH 6 0
BBX 15 15 0 -1
BITMAP
0040
8044
6FFE
2040
0FFC
1444
17FC
2444
27FC
C444
40E0
4150
4248
4446
0842
ENDCHAR
STARTCHAR uni51CE
ENCODING 20942
SWIDTH 500 0
DWIDTH 6 0
BBX 15 15 0 -1
BITMAP
0040
8040
60A0
2910
0A08
1406
13FA
2040
2040
C7FE
4040
4248
4150
4154
0FFE
ENDCHAR
STARTCHAR uni51CF
ENCODING 20943
SWIDTH 500 0
DWIDTH 6 0
BBX 15 15 0 -1
BITMAP
0010
8014
6412
27FE
0C10
15D0
1412
25D2
2554
C554
4548
45CA
455A
4826
10C2
ENDCHAR
STARTCHAR uni51D0
ENCODING 20944
SWIDTH 500 0
DWIDTH 6 0
BBX 15 15 0 -1
BITMAP
0004
87FE
6090
2890
0FFE
1492
1492
27FE
2402
C040
4048
43FC
4040
4044
0FFE
ENDCHAR
STARTCHAR uni51D1
ENCODING 20945
SWIDTH 500 0
DWIDTH 6 0
BBX 15 15 0 -1
BITMAP
0040
8048
67FC
2880
0BF8
1084
17FE
2208
25F4
C842
47FC
40A0
4110
420C
0C04
ENDCHAR
STARTCHAR uni51D4
ENCODING 20948
SWIDTH 500 0
DWIDTH 6 0
BBX 15 15 0 -1
BITMAP
0020
8050
6088
2946
0A22
13FC
1204
23FC
2204
C3FC
4200
42FE
4482
48FE
1082
ENDCHAR
STARTCHAR uni51D7
ENCODING 20951
SWIDTH 500 0
DWIDTH 6 0
BBX 15 15 0 -1
BITMAP
0020
8222
6222
2BFE
0A42
1120
1124
23FE
2620
CBFE
4220
43FE
4220
4224
03FE
ENDCHAR
STARTCHAR uni51D8
ENCODING 20952
SWIDTH 500 0
DWIDTH 6 0
BBX 15 15 0 -1
BITMAP
0484
84A6
6FF8
24A0
04A0
17BE
14A4
24A4
27A4
C4A4
44A4
5FE4
4524
4544
1884
ENDCHAR
STARTCHAR uni51DB
ENCODING 20955
SWIDTH 500 0
DWIDTH 6 0
BBX 15 15 0 -1
BITMAP
0040
8FFE
6000
2BFC
0A94
12F4
1204
23FC
2000
C3F8
4000
4FFE
4248
4444
09C2
ENDCHAR
STARTCHAR uni51DC
ENCODING 20956
SWIDTH 500 0
DWIDTH 6 0
BBX 15 15 0 -1
BITMAP
0040
8FFE
6000
2BFC
0A94
12F4
1204
23FC
2000
C3F8
4040
4FFE
4248
4444
0842
ENDCHAR
STARTCHAR uni51DD
ENCODING 20957
SWIDTH 500 0
DWIDTH 6 0
BBX 15 15 0 -1
BITMAP
0804
897E
6E04
28A8
0890
1788
287E
2F14
2250
C254
5FDE
4250
4550
48B0
111E
ENDCHAR
STARTCHAR uni51DE
ENCODING 20958
SWIDTH 500 0
DWIDTH 6 0
BBX 15 15 0 -1
BITMAP
8BD4
6A9E
2A94
0A94
1BD4
2A5C
2A54
CBD0
4A92
5292
63EE
0000
2444
2222
4222
ENDCHAR
STARTCHAR uni51E0
ENCODING 20960
SWIDTH 500 0
DWIDTH 6 0
BBX 14 15 0 -1
BITMAP
0040
1FE0
1040
1040
1040
1040
1040
1040
1040
1040
1040
1044
2044
4044
803C
ENDCHAR
STARTCHAR uni51E1
ENCODING 20961
SWIDTH 500 0
DWIDTH 6 0
BBX 14 15 0 -1
BITMAP
0040
1FE0
1040
1040
1040
1040
1840
1640
1340
1140
1040
2044
2044
4044
803C
ENDCHAR
STARTCHAR uni51E4
ENCODING 20964
SWIDTH 500 0
DWIDTH 6 0
BBX 15 15 0 -1
BITMAP
0008
1FFC
1008
1048
17E8
1048
1048
1248
1188
1088
1148
226A
242A
4806
8002
ENDCHAR
STARTCHAR uni51EB
ENCODING 20971
SWIDTH 500 0
DWIDTH 6 0
BBX 15 15 0 -1
BITMAP
0600
0420
3FF0
2820
2620
22C0
2004
3FFE
0004
0FC4
0858
0842
0842
3042
C03E
ENDCHAR
STARTCHAR uni51ED
ENCODING 20973
SWIDTH 500 0
DWIDTH 6 0
BBX 15 15 0 -1
BITMAP
0808
083C
17C0
3044
57FE
9040
1048
13FC
1000
0FE0
0820
0822
0824
1024
601E
ENDCHAR
STARTCHAR uni51EF
ENCODING 20975
SWIDTH 500 0
DWIDTH 6 0
BBX 15 15 0 -1
BITMAP
1088
92FC
9288
9288
FE88
8288
0488
FE88
0488
0488
FC88
808A
850A
990A
E206
ENDCHAR
STARTCHAR uni51F0
ENCODING 20976
SWIDTH 500 0
DWIDTH 6 0
BBX 15 15 0 -1
BITMAP
2008
3FFC
2108
27C8
2448
27C8
2448
27C8
2008
2FE8
2108
4FE8
410A
8126
9FF2
ENDCHAR
STARTCHAR uni51F1
ENCODING 20977
SWIDTH 500 0
DWIDTH 6 0
BBX 15 15 0 -1
BITMAP
1088
92FC
9288
FE88
8288
0088
FF88
0088
7E88
4288
7E88
2288
148A
FF0A
0206
ENDCHAR
STARTCHAR uni51F3
ENCODING 20979
SWIDTH 500 0
DWIDTH 6 0
BBX 14 15 0 -1
BITMAP
7D20
0548
2490
1860
1790
200C
DFE0
1020
1FE0
0488
FFFC
0000
0FC4
0844
F07C
ENDCHAR
STARTCHAR uni51F5
ENCODING 20981
SWIDTH 500 0
DWIDTH 6 0
BBX 13 14 0 -1
BITMAP
8010
C018
8010
8010
8010
8010
8010
8010
8010
8010
8010
8010
FFF0
8010
ENDCHAR
STARTCHAR uni51F6
ENCODING 20982
SWIDTH 500 0
DWIDTH 6 0
BBX 14 14 0 -1
BITMAP
0040
9048
C88C
8488
8308
8108
8288
8248
8448
8828
9028
8008
FFF8
8008
ENDCHAR
STARTCHAR uni51F8
ENCODING 20984
SWIDTH 500 0
DWIDTH 6 0
BBX 13 15 0 -1
BITMAP
1080
1FC0
1080
1080
1080
9090
F0F8
8010
8010
8010
8010
8010
8010
FFF0
8010
ENDCHAR
STARTCHAR uni51F9
ENCODING 20985
SWIDTH 500 0
DWIDTH 6 0
BBX 13 14 0 -1
BITMAP
8910
FDF8
8910
8910
8910
8910
8910
8F10
8910
8010
8010
8010
FFF0
8010
ENDCHAR
STARTCHAR uni51FA
ENCODING 20986
SWIDTH 500 0
DWIDTH 6 0
BBX 13 15 0 -1
BITMAP
0200
0200
4210
4210
4210
4210
7FF0
4210
0200
8208
8208
8208
8208
FFF8
8008
ENDCHAR
STARTCHAR uni51FB
ENCODING 20987
SWIDTH 500 0
DWIDTH 6 0
BBX 14 15 0 -1
BITMAP
0200
0200
0210
7FF8
0200
0200
0208
FFFC
0200
4210
4210
4210
4210
7FF0
4010
ENDCHAR
STARTCHAR uni51FC
ENCODING 20988
SWIDTH 500 0
DWIDTH 6 0
BBX 14 15 0 -1
BITMAP
0100
0100
8104
8134
BD24
8544
8584
8544
8924
9114
A114
8704
8204
FFFC
8004
ENDCHAR
STARTCHAR uni51FD
ENCODING 20989
SWIDTH 500 0
DWIDTH 6 0
BBX 14 15 0 -1
BITMAP
0008
FFFC
0200
0400
0F80
9134
8924
8944
8784
8944
B134
8714
8204
FFFC
8004
ENDCHAR
STARTCHAR uni51FF
ENCODING 20991
SWIDTH 500 0
DWIDTH 6 0
BBX 14 15 0 -1
BITMAP
0480
4488
2490
2490
FFFC
0840
0480
8484
BFF4
8204
9FE4
8204
8204
FFFC
8004
ENDCHAR
STARTCHAR uni5200
ENCODING 20992
SWIDTH 500 0
DWIDTH 6 0
BBX 14 15 0 -1
BITMAP
0008
7FFC
0208
0208
0208
0208
0208
0208
0408
0408
0808
0808
1088
2070
C020
ENDCHAR
STARTCHAR uni5201
ENCODING 20993
SWIDTH 500 0
DWIDTH 6 0
BBX 13 15 0 -1
BITMAP
0010
FFF8
0010
0010
0010
0210
0410
0810
1010
2010
C010
8010
0110
00E0
0040
ENDCHAR
STARTCHAR uni5202
ENCODING 20994
SWIDTH 500 0
DWIDTH 6 0
BBX 5 15 0 -1
BITMAP
08
08
88
88
88
88
88
88
88
88
88
08
48
38
10
ENDCHAR
STARTCHAR uni5203
ENCODING 20995
SWIDTH 500 0
DWIDTH 6 0
BBX 14 15 0 -1
BITMAP
0008
7FFC
0208
0208
0208
1208
2208
6208
4408
0408
0808
0808
1088
2070
C020
ENDCHAR
STARTCHAR uni5206
ENCODING 20998
SWIDTH 500 0
DWIDTH 6 0
BBX 14 15 0 -1
BITMAP
0880
0880
1040
1020
2010
400C
BFE4
0420
0420
0420
0420
0820
1220
21C0
C080
ENDCHAR
STARTCHAR uni5207
ENCODING 20999
SWIDTH 500 0
DWIDTH 6 0
BBX 15 15 0 -1
BITMAP
2000
2004
23FE
2044
2444
2E44
F044
2044
2244
2444
2844
3084
2144
0238
0410
ENDCHAR
STARTCHAR uni5208
ENCODING 21000
SWIDTH 500 0
DWIDTH 6 0
BBX 14 15 0 -1
BITMAP
0404
0604
8444
4444
2444
2444
1844
0844
0844
1444
1244
2204
4224
801C
0008
ENDCHAR
STARTCHAR uni5209
ENCODING 21001
SWIDTH 500 0
DWIDTH 6 0
BBX 15 15 0 -1
BITMAP
2002
2002
2122
7FA2
8022
0422
7E22
0422
0822
1022
1022
2002
4092
408E
3F84
ENDCHAR
STARTCHAR uni520A
ENCODING 21002
SWIDTH 500 0
DWIDTH 6 0
BBX 15 15 0 -1
BITMAP
0002
0102
7FA2
0822
0822
0822
0922
FFA2
0822
0822
0822
0802
0812
080E
0804
ENDCHAR
STARTCHAR uni520C
ENCODING 21004
SWIDTH 500 0
DWIDTH 6 0
BBX 15 15 0 -1
BITMAP
0402
0402
0422
0422
FFA2
0422
0422
4422
2422
2422
2422
0402
0412
3C0E
0804
ENDCHAR
STARTCHAR uni520D
ENCODING 21005
SWIDTH 500 0
DWIDTH 6 0
BBX 14 15 0 -1
BITMAP
0800
0800
0840
0FE0
1040
2080
4108
9FFC
0008
0008
1FF8
0008
0008
3FF8
0008
ENDCHAR
STARTCHAR uni520E
ENCODING 21006
SWIDTH 500 0
DWIDTH 6 0
BBX 15 15 0 -1
BITMAP
2002
2002
2092
3FD2
2A92
4A92
8A92
1292
1492
2492
4892
0882
1092
278E
4104
ENDCHAR
STARTCHAR uni5210
ENCODING 21008
SWIDTH 500 0
DWIDTH 6 0
BBX 15 15 0 -1
BITMAP
0102
3F82
2122
2922
2522
2522
2122
FFE2
2122
2122
2122
2102
2912
470E
8204
ENDCHAR
STARTCHAR uni5211
ENCODING 21009
SWIDTH 500 0
DWIDTH 6 0
BBX 15 15 0 -1
BITMAP
0102
7F82
1222
1222
1222
1222
FFA2
1222
1222
1222
1222
2202
2212
420E
8204
ENDCHAR
STARTCHAR uni5212
ENCODING 21010
SWIDTH 500 0
DWIDTH 6 0
BBX 15 15 0 -1
BITMAP
1002
1402
1222
1122
11A2
1E22
F022
1122
1122
1222
1422
0802
1452
224E
C1C4
ENDCHAR
STARTCHAR uni5213
ENCODING 21011
SWIDTH 500 0
DWIDTH 6 0
BBX 15 15 0 -1
BITMAP
0102
3F82
0012
0012
0012
FFD2
1212
1212
1212
1212
1212
1242
2292
430E
8204
ENDCHAR
STARTCHAR uni5216
ENCODING 21014
SWIDTH 500 0
DWIDTH 6 0
BBX 15 15 0 -1
BITMAP
2102
3F82
2122
2122
2122
3F22
2122
2122
2122
3F22
2122
2102
2112
470E
8204
ENDCHAR
STARTCHAR uni5217
ENCODING 21015
SWIDTH 500 0
DWIDTH 6 0
BBX 14 15 0 -1
BITMAP
0204
FF04
1044
1044
1244
1F44
2244
6244
9244
1444
0844
0804
1024
201C
C008
ENDCHAR
STARTCHAR uni5218
ENCODING 21016
SWIDTH 500 0
DWIDTH 6 0
BBX 14 15 0 -1
BITMAP
2004
1004
1204
FF44
0044
0644
4444
2444
1844
0844
1444
1204
2224
421C
8008
ENDCHAR
STARTCHAR uni5219
ENCODING 21017
SWIDTH 500 0
DWIDTH 6 0
BBX 14 15 0 -1
BITMAP
8204
FF04
8244
9244
9244
9244
9244
9244
9244
9244
9244
1004
2424
421C
8208
ENDCHAR
STARTCHAR uni521A
ENCODING 21018
SWIDTH 500 0
DWIDTH 6 0
BBX 15 15 0 -1
BITMAP
8082
FFC2
8082
8292
A292
9292
8C92
8492
8C92
9292
A292
8082
8092
838E
8104
ENDCHAR
STARTCHAR uni521B
ENCODING 21019
SWIDTH 500 0
DWIDTH 6 0
BBX 15 15 0 -1
BITMAP
0802
0C02
1202
21A2
40A2
BF22
2122
2122
2122
2122
2722
2202
2052
208E
1FC4
ENDCHAR
STARTCHAR uni521C
ENCODING 21020
SWIDTH 500 0
DWIDTH 6 0
BBX 15 15 0 -1
BITMAP
1402
1402
7F92
1492
1492
7F92
5412
5412
FF92
1492
1492
1482
2712
440E
8404
ENDCHAR
STARTCHAR uni521D
ENCODING 21021
SWIDTH 500 0
DWIDTH 6 0
BBX 14 15 0 -1
BITMAP
2000
1000
1004
FDFC
0844
1044
1644
3444
5844
9444
1284
1084
1124
121C
1408
ENDCHAR
STARTCHAR uni521E
ENCODING 21022
SWIDTH 500 0
DWIDTH 6 0
BBX 15 15 0 -1
BITMAP
2102
3F82
2122
2122
2122
3F22
2122
2122
2122
3F22
2122
2102
2792
F80E
4004
ENDCHAR
STARTCHAR uni5220
ENCODING 21024
SWIDTH 500 0
DWIDTH 6 0
BBX 15 15 0 -1
BITMAP
4A42
7FE2
4A52
4A52
4A52
4A52
FFF2
4A52
4A52
4A52
4A52
4A42
4A52
BDCE
9484
ENDCHAR
STARTCHAR uni5221
ENCODING 21025
SWIDTH 500 0
DWIDTH 6 0
BBX 15 15 0 -1
BITMAP
4082
7FC2
4082
4092
7F92
4492
4412
4492
7FD2
4412
4412
4A42
5242
E15E
40C4
ENDCHAR
STARTCHAR uni5224
ENCODING 21028
SWIDTH 500 0
DWIDTH 6 0
BBX 15 15 0 -1
BITMAP
0402
0402
2492
1492
1512
0412
7F92
0412
0492
FFD2
0412
0402
0812
100E
6004
ENDCHAR
STARTCHAR uni5225
ENCODING 21029
SWIDTH 500 0
DWIDTH 6 0
BBX 15 15 0 -1
BITMAP
0102
3F82
2122
2122
2122
3F22
2922
0822
0F22
1122
1122
2102
2912
470E
8204
ENDCHAR
STARTCHAR uni5228
ENCODING 21032
SWIDTH 500 0
DWIDTH 6 0
BBX 15 15 0 -1
BITMAP
2002
2002
2092
7FD2
8092
7C92
4492
4492
7C92
4492
4092
4302
4052
404E
3FC4
ENDCHAR
STARTCHAR uni5229
ENCODING 21033
SWIDTH 500 0
DWIDTH 6 0
BBX 15 15 0 -1
BITMAP
0102
0782
7C12
0412
0492
FFD2
0412
0E12
1512
2492
4492
8402
0412
040E
0404
ENDCHAR
STARTCHAR uni522A
ENCODING 21034
SWIDTH 500 0
DWIDTH 6 0
BBX 14 15 0 -1
BITMAP
4104
7F84
5524
5524
5524
5524
5524
FFA4
5524
5524
5524
5504
5524
511C
4308
ENDCHAR
STARTCHAR uni522B
ENCODING 21035
SWIDTH 500 0
DWIDTH 6 0
BBX 14 15 0 -1
BITMAP
4204
7F04
4244
4244
4244
7E44
5044
1244
FF44
1244
1244
2204
2224
4E1C
8408
ENDCHAR
STARTCHAR uni522D
ENCODING 21037
SWIDTH 500 0
DWIDTH 6 0
BBX 14 15 0 -1
BITMAP
0404
FE04
0444
0844
1444
2344
4144
8244
FF44
1044
1044
1004
1024
1F1C
E008
ENDCHAR
STARTCHAR uni522E
ENCODING 21038
SWIDTH 500 0
DWIDTH 6 0
BBX 14 15 0 -1
BITMAP
0404
0E04
F044
1044
1244
FF44
1044
1044
9244
FF44
8244
8204
8224
FE1C
8208
ENDCHAR
STARTCHAR uni5230
ENCODING 21040
SWIDTH 500 0
DWIDTH 6 0
BBX 13 15 0 -1
BITMAP
0208
FF08
1048
2448
4248
FF48
5148
1048
1248
FF48
1048
1008
1F48
F038
4010
ENDCHAR
STARTCHAR uni5231
ENCODING 21041
SWIDTH 500 0
DWIDTH 6 0
BBX 15 15 0 -1
BITMAP
2408
25FC
2428
2428
FF68
24A8
24AC
242A
FF2A
2428
2448
2448
2488
44B8
8510
ENDCHAR
STARTCHAR uni5232
ENCODING 21042
SWIDTH 500 0
DWIDTH 6 0
BBX 14 15 0 -1
BITMAP
1004
1004
1244
FF44
1044
1244
FF44
1044
1244
FF44
1044
1004
1024
1F1C
E008
ENDCHAR
STARTCHAR uni5233
ENCODING 21043
SWIDTH 500 0
DWIDTH 6 0
BBX 14 15 0 -1
BITMAP
1004
1204
FF44
2444
4244
BD44
0044
FF44
1044
2044
FE44
0204
0224
1E1C
0408
ENDCHAR
STARTCHAR uni5235
ENCODING 21045
SWIDTH 500 0
DWIDTH 6 0
BBX 14 15 0 -1
BITMAP
0084
FFC4
2124
2124
3F24
2124
2124
3F24
2124
2124
21E4
3F04
E124
411C
0108
ENDCHAR
STARTCHAR uni5236
ENCODING 21046
SWIDTH 500 0
DWIDTH 6 0
BBX 13 15 0 -1
BITMAP
0808
4808
4828
7F28
8828
0928
FFA8
0828
4928
7FA8
4928
4908
4B48
4938
0810
ENDCHAR
STARTCHAR uni5237
ENCODING 21047
SWIDTH 500 0
DWIDTH 6 0
BBX 15 15 0 -1
BITMAP
4082
7FC2
4092
4092
7F92
4092
4212
5252
5FD2
5252
5252
5242
52D2
924E
8204
ENDCHAR
STARTCHAR uni5238
ENCODING 21048
SWIDTH 500 0
DWIDTH 6 0
BBX 14 15 0 -1
BITMAP
2230
1220
1240
0210
7FF8
0400
FFFC
0820
1010
3FEC
C424
0420
0920
10E0
6040
ENDCHAR
STARTCHAR uni5239
ENCODING 21049
SWIDTH 500 0
DWIDTH 6 0
BBX 15 15 0 -1
BITMAP
4302
2202
1422
0C22
3322
4922
0822
FFA2
0822
2A22
2922
4882
8892
380E
0804
ENDCHAR
STARTCHAR uni523A
ENCODING 21050
SWIDTH 500 0
DWIDTH 6 0
BBX 15 15 0 -1
BITMAP
0802
0882
FFD2
0812
8892
FFD2
8892
8892
8B92
8892
1C12
2A02
4992
888E
0804
ENDCHAR
STARTCHAR uni523B
ENCODING 21051
SWIDTH 500 0
DWIDTH 6 0
BBX 15 15 0 -1
BITMAP
0802
0402
0482
FFD2
0812
1192
2112
7E12
24D2
0892
1112
6202
0512
18CE
6044
ENDCHAR
STARTCHAR uni523D
ENCODING 21053
SWIDTH 500 0
DWIDTH 6 0
BBX 15 15 0 -1
BITMAP
0802
0C02
1222
21A2
40A2
BE22
0022
0122
FFA2
0822
0822
1102
2F92
F08E
4084
ENDCHAR
STARTCHAR uni523F
ENCODING 21055
SWIDTH 500 0
DWIDTH 6 0
BBX 15 15 0 -1
BITMAP
0802
8882
88A2
FFA2
80A2
1022
1122
1FA2
2122
5122
8922
0A02
0412
080E
F004
ENDCHAR
STARTCHAR uni5240
ENCODING 21056
SWIDTH 500 0
DWIDTH 6 0
BBX 15 15 0 -1
BITMAP
0802
8882
88A2
FFA2
80A2
0022
7FA2
00A2
40A2
7FA2
40A2
4022
4302
4C1E
7004
ENDCHAR
STARTCHAR uni5241
ENCODING 21057
SWIDTH 500 0
DWIDTH 6 0
BBX 14 15 0 -1
BITMAP
2204
3F04
2204
2224
2224
23A4
C824
0924
FFA4
0824
1C24
2A24
4904
893C
0808
ENDCHAR
STARTCHAR uni5242
ENCODING 21058
SWIDTH 500 0
DWIDTH 6 0
BBX 14 15 0 -1
BITMAP
1004
0904
FF84
0244
6444
1C44
2244
C144
2244
2244
2244
2204
2204
423C
8208
ENDCHAR
STARTCHAR uni5243
ENCODING 21059
SWIDTH 500 0
DWIDTH 6 0
BBX 14 15 0 -1
BITMAP
4204
2204
1424
FF24
0924
4924
7F24
4824
8924
FFA4
0924
1924
2F04
4A3C
8808
ENDCHAR
STARTCHAR uni5244
ENCODING 21060
SWIDTH 500 0
DWIDTH 6 0
BBX 15 15 0 -1
BITMAP
0102
FF82
4922
4922
9222
9222
4922
4922
0122
FF22
0822
0822
0802
0F9E
F004
ENDCHAR
STARTCHAR uni5246
ENCODING 21062
SWIDTH 500 0
DWIDTH 6 0
BBX 15 15 0 -1
BITMAP
1002
0802
4922
7FA2
4122
4122
7F22
4122
7F22
4122
4422
4222
4702
591E
E104
ENDCHAR
STARTCHAR uni5247
ENCODING 21063
SWIDTH 500 0
DWIDTH 6 0
BBX 14 15 0 -1
BITMAP
4204
7F04
4244
4244
7E44
4244
4244
7E44
4244
4244
7E44
4204
2424
421C
8208
ENDCHAR
STARTCHAR uni5249
ENCODING 21065
SWIDTH 500 0
DWIDTH 6 0
BBX 14 15 0 -1
BITMAP
0804
0804
4924
4924
4924
6924
AAA4
8CA4
0824
0A24
7F24
0824
0804
093C
FF88
ENDCHAR
STARTCHAR uni524A
ENCODING 21066
SWIDTH 500 0
DWIDTH 6 0
BBX 15 15 0 -1
BITMAP
8882
4902
4922
0822
7F22
4122
4122
7F22
4122
4122
7F22
4122
4102
471E
4104
ENDCHAR
STARTCHAR uni524B
ENCODING 21067
SWIDTH 500 0
DWIDTH 6 0
BBX 15 15 0 -1
BITMAP
0800
0904
FFA4
0824
4924
7FA4
4124
4124
7F24
5524
1404
141C
140A
2402
C3FE
ENDCHAR
STARTCHAR uni524C
ENCODING 21068
SWIDTH 500 0
DWIDTH 6 0
BBX 15 15 0 -1
BITMAP
0802
0902
FF82
0822
0822
7F22
4922
4922
7F22
4922
1C22
2A02
4912
890E
0804
ENDCHAR
STARTCHAR uni524D
ENCODING 21069
SWIDTH 500 0
DWIDTH 6 0
BBX 15 15 0 -1
BITMAP
1020
0820
0444
FFFE
0000
4204
7F44
4244
7E44
4244
7E44
4204
4224
4E1C
4208
ENDCHAR
STARTCHAR uni524E
ENCODING 21070
SWIDTH 500 0
DWIDTH 6 0
BBX 15 15 0 -1
BITMAP
4302
2202
1422
0C22
7322
0A22
0922
FFA2
0822
2A22
2922
48A2
8882
081E
0804
ENDCHAR
STARTCHAR uni5250
ENCODING 21072
SWIDTH 500 0
DWIDTH 6 0
BBX 15 15 0 -1
BITMAP
4102
7F82
4122
4122
7F22
4922
0822
FFA2
88A2
8CA2
92A2
A282
C082
839E
8104
ENDCHAR
STARTCHAR uni5251
ENCODING 21073
SWIDTH 500 0
DWIDTH 6 0
BBX 15 15 0 -1
BITMAP
0402
0C02
0A02
11A2
20A2
5F22
8022
0122
1122
4922
2922
2222
0782
781E
0004
ENDCHAR
STARTCHAR uni5252
ENCODING 21074
SWIDTH 500 0
DWIDTH 6 0
BBX 15 15 0 -1
BITMAP
2202
2202
FF92
2212
2212
FF92
0012
7F12
4112
4112
7F12
4112
4102
7F1E
4104
ENDCHAR
STARTCHAR uni5254
ENCODING 21076
SWIDTH 500 0
DWIDTH 6 0
BBX 15 15 0 -1
BITMAP
4102
7F82
4112
7F12
4112
7F12
5112
1092
3FD2
4A92
9292
2482
4882
139E
6104
ENDCHAR
STARTCHAR uni5255
ENCODING 21077
SWIDTH 500 0
DWIDTH 6 0
BBX 15 15 0 -1
BITMAP
1202
1202
1292
F3D2
1212
1212
1292
F3D2
1212
1212
1292
F3D2
1202
121E
1204
ENDCHAR
STARTCHAR uni5256
ENCODING 21078
SWIDTH 500 0
DWIDTH 6 0
BBX 15 15 0 -1
BITMAP
1002
0802
FFD2
2112
1212
1212
FFD2
0012
0012
7F92
4092
4082
4082
7F9E
4084
ENDCHAR
STARTCHAR uni525A
ENCODING 21082
SWIDTH 500 0
DWIDTH 6 0
BBX 15 15 0 -1
BITMAP
0482
FFC2
0412
7F92
4492
7F92
0412
7F92
0492
FFF2
0492
7F92
0482
1C1E
0804
ENDCHAR
STARTCHAR uni525B
ENCODING 21083
SWIDTH 500 0
DWIDTH 6 0
BBX 15 15 0 -1
BITMAP
8082
FFC2
A292
9492
8892
FF92
8892
AA92
AA92
AA92
BE92
A292
8082
839E
8104
ENDCHAR
STARTCHAR uni525C
ENCODING 21084
SWIDTH 500 0
DWIDTH 6 0
BBX 15 15 0 -1
BITMAP
0802
0402
4442
7FD2
8092
4A52
7FD2
4A52
4A52
AAD2
1A52
0A02
1282
231E
C204
ENDCHAR
STARTCHAR uni525D
ENCODING 21085
SWIDTH 500 0
DWIDTH 6 0
BBX 15 15 0 -1
BITMAP
1102
1F82
1112
1112
3E12
0292
FFD2
0492
6512
1612
0D12
1492
6442
9C5E
0404
ENDCHAR
STARTCHAR uni525E
ENCODING 21086
SWIDTH 500 0
DWIDTH 6 0
BBX 15 15 0 -1
BITMAP
0802
0882
FFD2
0812
1412
2212
FFD2
0112
7912
4912
4912
7912
4902
071E
0104
ENDCHAR
STARTCHAR uni525F
ENCODING 21087
SWIDTH 500 0
DWIDTH 6 0
BBX 14 15 0 -1
BITMAP
0004
F784
10A4
52A4
2124
52A4
94A4
0024
FFA4
1124
5524
2224
3304
4CBC
8888
ENDCHAR
STARTCHAR uni5261
ENCODING 21089
SWIDTH 500 0
DWIDTH 6 0
BBX 14 15 0 -1
BITMAP
0804
0B04
4A24
4C24
8824
1624
21A4
C824
0B24
4A24
4C24
8824
1404
223C
C188
ENDCHAR
STARTCHAR uni5262
ENCODING 21090
SWIDTH 500 0
DWIDTH 6 0
BBX 14 15 0 -1
BITMAP
0104
FF84
0824
1024
31A4
C924
5624
2424
5624
8D24
14A4
2484
4404
BC3C
0808
ENDCHAR
STARTCHAR uni5265
ENCODING 21093
SWIDTH 500 0
DWIDTH 6 0
BBX 15 15 0 -1
BITMAP
0102
7F02
0102
3F12
0112
FFD2
0412
4592
2512
1E12
1512
24C2
C442
1C1E
0804
ENDCHAR
STARTCHAR uni5267
ENCODING 21095
SWIDTH 500 0
DWIDTH 6 0
BBX 15 15 0 -1
BITMAP
4082
7FC2
4082
4092
7F92
4292
4212
7FD2
4212
5252
5FF2
5042
5042
5FDE
9044
ENDCHAR
STARTCHAR uni5269
ENCODING 21097
SWIDTH 500 0
DWIDTH 6 0
BBX 14 15 0 -1
BITMAP
0384
7C04
0924
FFA4
0824
2AA4
EB24
2A24
6AA4
89A4
1C24
2A04
4984
88BC
0808
ENDCHAR
STARTCHAR uni526A
ENCODING 21098
SWIDTH 500 0
DWIDTH 6 0
BBX 14 15 0 -1
BITMAP
1040
0888
FFFC
0000
7E48
4248
7E48
4248
7E38
4210
0000
FFFC
0408
1868
E010
ENDCHAR
STARTCHAR uni526B
ENCODING 21099
SWIDTH 500 0
DWIDTH 6 0
BBX 15 15 0 -1
BITMAP
0402
4282
7FC2
4912
4912
7FD2
4912
4F12
4012
7FD2
5092
4912
4602
891E
B0C4
ENDCHAR
STARTCHAR uni526C
ENCODING 21100
SWIDTH 500 0
DWIDTH 6 0
BBX 15 15 0 -1
BITMAP
0402
4442
4452
7FD2
0012
FFD2
0412
0812
FFD2
9252
9252
9252
9242
91DE
8044
ENDCHAR
STARTCHAR uni526D
ENCODING 21101
SWIDTH 500 0
DWIDTH 6 0
BBX 15 15 0 -1
BITMAP
4042
7FE2
4052
7FD2
4012
5FD2
4412
4892
5FD2
4052
4212
5FD2
4202
825E
BFE4
ENDCHAR
STARTCHAR uni526E
ENCODING 21102
SWIDTH 500 0
DWIDTH 6 0
BBX 15 15 0 -1
BITMAP
2102
3F82
2112
2F12
2912
2912
FFD2
8052
9E52
9252
9252
9E52
9242
81DE
8044
ENDCHAR
STARTCHAR uni526F
ENCODING 21103
SWIDTH 500 0
DWIDTH 6 0
BBX 15 15 0 -1
BITMAP
0102
FF82
0012
7F12
4112
4112
7F12
0012
FF92
8892
8892
FF92
8882
FF9E
8084
ENDCHAR
STARTCHAR uni5272
ENCODING 21106
SWIDTH 500 0
DWIDTH 6 0
BBX 15 15 0 -1
BITMAP
0802
4442
7FD2
8492
3F92
0412
3F92
0412
7FD2
0412
7F92
4082
4092
7F8E
4084
ENDCHAR
STARTCHAR uni5274
ENCODING 21108
SWIDTH 500 0
DWIDTH 6 0
BBX 15 15 0 -1
BITMAP
0802
8882
8892
FF92
8092
0012
FF92
0012
7F12
4112
7F12
2212
1402
0F9E
F004
ENDCHAR
STARTCHAR uni5275
ENCODING 21109
SWIDTH 500 0
DWIDTH 6 0
BBX 15 15 0 -1
BITMAP
0402
0E02
1112
24D2
4252
BF92
2092
3F92
2092
3F92
2012
3FD2
5042
5FDE
9044
ENDCHAR
STARTCHAR uni5277
ENCODING 21111
SWIDTH 500 0
DWIDTH 6 0
BBX 15 15 0 -1
BITMAP
0802
0482
7FD2
1092
0912
7FD2
4012
4A92
4FD2
5212
6212
4F92
4202
83DE
9C04
ENDCHAR
STARTCHAR uni5278
ENCODING 21112
SWIDTH 500 0
DWIDTH 6 0
BBX 14 15 0 -1
BITMAP
0904
FF84
0824
7F24
4924
7F24
4924
7F24
0924
FEA4
0224
FFA4
4204
223C
0E08
ENDCHAR
STARTCHAR uni527A
ENCODING 21114
SWIDTH 500 0
DWIDTH 6 0
BBX 15 15 0 -1
BITMAP
0840
3E44
08FE
7F48
1830
2C48
4A84
3FFE
2000
2004
2FFE
2104
2104
463C
9808
ENDCHAR
STARTCHAR uni527B
ENCODING 21115
SWIDTH 500 0
DWIDTH 6 0
BBX 15 15 0 -1
BITMAP
0402
4442
4452
7FD2
0012
7BD2
4A52
4A52
7BD2
4A52
7BD2
4A52
4A42
4A5E
9CC4
ENDCHAR
STARTCHAR uni527C
ENCODING 21116
SWIDTH 500 0
DWIDTH 6 0
BBX 15 15 0 -1
BITMAP
0402
0882
3FD2
1152
2212
4C92
FBD2
0E52
3112
C4D2
3A12
0492
3902
021E
7C04
ENDCHAR
STARTCHAR uni527D
ENCODING 21117
SWIDTH 500 0
DWIDTH 6 0
BBX 15 15 0 -1
BITMAP
0042
FFE2
0A12
7FD2
4A52
4A52
7FD2
0012
3F92
0012
7FD2
0412
2482
5C5E
8444
ENDCHAR
STARTCHAR uni527F
ENCODING 21119
SWIDTH 500 0
DWIDTH 6 0
BBX 15 15 0 -1
BITMAP
2482
4902
4912
2492
7F92
4892
7F92
4892
7F92
0812
FFD2
0812
2A02
499E
8884
ENDCHAR
STARTCHAR uni5280
ENCODING 21120
SWIDTH 500 0
DWIDTH 6 0
BBX 15 15 0 -1
BITMAP
3F82
0502
0252
7FD2
1492
2512
4412
FFD2
4A52
5152
6FD2
4952
4F42
405E
41C4
ENDCHAR
STARTCHAR uni5281
ENCODING 21121
SWIDTH 500 0
DWIDTH 6 0
BBX 15 15 0 -1
BITMAP
2402
2282
3FD2
2212
6212
BF92
2212
2212
3F92
2212
2212
3FD2
4A82
495E
8944
ENDCHAR
STARTCHAR uni5282
ENCODING 21122
SWIDTH 500 0
DWIDTH 6 0
BBX 15 15 0 -1
BITMAP
4042
7FE2
5202
4A8A
448A
7FEA
44AA
554A
554A
5F4A
554A
444A
44A2
893E
9224
ENDCHAR
STARTCHAR uni5283
ENCODING 21123
SWIDTH 500 0
DWIDTH 6 0
BBX 14 15 0 -1
BITMAP
0804
7F04
0924
FFE4
0924
FFA4
0824
FFA4
4924
7F24
4924
7F24
4104
0FBC
F008
ENDCHAR
STARTCHAR uni5284
ENCODING 21124
SWIDTH 500 0
DWIDTH 6 0
BBX 14 15 0 -1
BITMAP
4488
7EFC
50A0
8910
0000
1808
2448
4348
BD48
0048
7E48
4248
4208
7E78
4210
ENDCHAR
STARTCHAR uni5287
ENCODING 21127
SWIDTH 500 0
DWIDTH 6 0
BBX 15 15 0 -1
BITMAP
0802
0F82
4812
7FD2
4892
5F12
4852
7FD2
4812
7452
4A92
7712
4A82
B25E
8C44
ENDCHAR
STARTCHAR uni5288
ENCODING 21128
SWIDTH 500 0
DWIDTH 6 0
BBX 15 15 0 -1
BITMAP
2220
3F14
22FE
2244
3E28
20FE
3F10
51FE
9F10
0008
3FFC
0208
0208
0C08
7070
ENDCHAR
STARTCHAR uni5289
ENCODING 21129
SWIDTH 500 0
DWIDTH 6 0
BBX 15 15 0 -1
BITMAP
1802
67C2
4252
4A52
5A52
6592
9E12
2112
DED2
0412
7F92
2492
1502
17DE
7C04
ENDCHAR
STARTCHAR uni528A
ENCODING 21130
SWIDTH 500 0
DWIDTH 6 0
BBX 15 15 0 -1
BITMAP
0402
0A02
3182
C072
3F92
0012
7FD2
5552
7FD2
0012
3F92
2092
3F82
209E
3F84
ENDCHAR
STARTCHAR uni528B
ENCODING 21131
SWIDTH 500 0
DWIDTH 6 0
BBX 15 15 0 -1
BITMAP
2082
3FC2
2092
3F92
2092
7BD2
4A52
7BD2
4A52
0492
7FD2
1512
2482
445E
8444
ENDCHAR
STARTCHAR uni528C
ENCODING 21132
SWIDTH 500 0
DWIDTH 6 0
BBX 15 15 0 -1
BITMAP
0202
1282
13C2
120A
7FEA
014A
3FEA
210A
3F4A
254A
2F4A
3582
4922
52BE
8C64
ENDCHAR
STARTCHAR uni528D
ENCODING 21133
SWIDTH 500 0
DWIDTH 6 0
BBX 15 15 0 -1
BITMAP
0402
0A02
1112
20D2
5F52
8012
7BD2
4A52
4A52
7BD2
4A52
1112
1102
2ADE
C444
ENDCHAR
STARTCHAR uni5290
ENCODING 21136
SWIDTH 500 0
DWIDTH 6 0
BBX 15 15 0 -1
BITMAP
1102
FFE2
1112
1212
3FD2
6412
BF92
2412
3F92
2412
7FD2
1092
0902
061E
79C4
ENDCHAR
STARTCHAR uni5291
ENCODING 21137
SWIDTH 500 0
DWIDTH 6 0
BBX 15 15 0 -1
BITMAP
0802
0442
FFF2
0A52
F592
5552
5552
A532
2092
3F92
2092
3F82
2092
208E
C084
ENDCHAR
STARTCHAR uni5293
ENCODING 21139
SWIDTH 500 0
DWIDTH 6 0
BBX 15 15 0 -1
BITMAP
0802
3F82
2092
3F92
2092
7FD2
4452
7FD2
4452
7FD2
0012
FFE2
1102
211E
4104
ENDCHAR
STARTCHAR uni5296
ENCODING 21142
SWIDTH 500 0
DWIDTH 6 0
BBX 15 15 0 -1
BITMAP
3E02
2202
7F92
C092
7F92
4492
7712
4492
7F92
2412
FF12
4912
7F22
14BE
E7E4
ENDCHAR
STARTCHAR uni5297
ENCODING 21143
SWIDTH 500 0
DWIDTH 6 0
BBX 15 15 0 -1
BITMAP
5502
7FC2
9512
FBD2
2A92
2A92
4CF2
BF92
2092
3F92
2092
3F92
2082
3F9E
E0E4
ENDCHAR
STARTCHAR uni5298
ENCODING 21144
SWIDTH 500 0
DWIDTH 6 0
BBX 15 15 0 -1
BITMAP
4442
7FE2
4882
7FEA
488A
5DCA
6AAA
488A
450A
5DCA
450A
5DC2
4502
9DDE
8504
ENDCHAR
STARTCHAR uni5299
ENCODING 21145
SWIDTH 500 0
DWIDTH 6 0
BBX 15 15 0 -1
BITMAP
1F02
1102
3F02
014A
FFEA
468A
BB0A
068A
7A6A
2C8A
FBEA
AAAA
FBE2
28BE
F7E4
ENDCHAR
STARTCHAR uni529B
ENCODING 21147
SWIDTH 500 0
DWIDTH 6 0
BBX 13 15 0 -1
BITMAP
0200
0200
0200
0210
7FF8
0210
0210
0210
0210
0410
0410
0810
1110
20E0
C040
ENDCHAR
STARTCHAR uni529D
ENCODING 21149
SWIDTH 500 0
DWIDTH 6 0
BBX 15 15 0 -1
BITMAP
0020
0420
FE20
0424
05FE
4424
2424
1824
0824
0844
1444
2484
4084
833C
0408
ENDCHAR
STARTCHAR uni529E
ENCODING 21150
SWIDTH 500 0
DWIDTH 6 0
BBX 13 15 0 -1
BITMAP
0400
0400
0400
0440
FFE0
0440
0440
4450
4448
8848
8848
1040
1040
6780
8100
ENDCHAR
STARTCHAR uni529F
ENCODING 21151
SWIDTH 500 0
DWIDTH 6 0
BBX 15 15 0 -1
BITMAP
0040
0040
0440
FE40
1044
13FE
1044
1044
1044
1E84
F084
4104
0244
0438
1810
ENDCHAR
STARTCHAR uni52A0
ENCODING 21152
SWIDTH 500 0
DWIDTH 6 0
BBX 15 15 0 -1
BITMAP
1000
1000
1044
127E
FF44
1244
1244
1244
1244
1244
2244
2244
527C
4E44
8444
ENDCHAR
STARTCHAR uni52A1
ENCODING 21153
SWIDTH 500 0
DWIDTH 6 0
BBX 14 15 0 -1
BITMAP
1000
1040
1FE0
2840
4480
0300
0CC0
F03C
0210
FFF8
0210
0410
0810
11E0
6040
ENDCHAR
STARTCHAR uni52A2
ENCODING 21154
SWIDTH 500 0
DWIDTH 6 0
BBX 15 15 0 -1
BITMAP
0020
0120
FFA0
1022
12FE
1F22
1222
1222
1222
1222
2222
2242
4242
4E9E
8504
ENDCHAR
STARTCHAR uni52A3
ENCODING 21155
SWIDTH 500 0
DWIDTH 6 0
BBX 14 15 0 -1
BITMAP
0200
0200
3230
220C
4234
8040
0380
0D00
3108
CFFC
0108
0208
0448
1838
6010
ENDCHAR
STARTCHAR uni52A6
ENCODING 21158
SWIDTH 500 0
DWIDTH 6 0
BBX 15 15 0 -1
BITMAP
0100
0104
3FFE
0104
023C
3C08
0000
1010
FEFE
1212
1212
2222
2222
4E4E
8484
ENDCHAR
STARTCHAR uni52A8
ENCODING 21160
SWIDTH 500 0
DWIDTH 6 0
BBX 15 15 0 -1
BITMAP
0020
0420
7E20
0022
00FE
0222
FF22
1022
1022
1222
2242
2F42
F192
410E
0204
ENDCHAR
STARTCHAR uni52A9
ENCODING 21161
SWIDTH 500 0
DWIDTH 6 0
BBX 14 15 0 -1
BITMAP
4440
7E40
4440
4448
45FC
7C48
4448
4448
7C48
4448
4488
4688
7948
C238
0410
ENDCHAR
STARTCHAR uni52AA
ENCODING 21162
SWIDTH 500 0
DWIDTH 6 0
BBX 14 15 0 -1
BITMAP
1000
1008
15FC
FE88
2490
6850
1460
2290
C10C
0410
7FF8
0410
0410
18F0
6020
ENDCHAR
STARTCHAR uni52AB
ENCODING 21163
SWIDTH 500 0
DWIDTH 6 0
BBX 15 15 0 -1
BITMAP
0820
0820
0A20
7F24
08FE
0824
0924
FFA4
1024
1424
2224
5F44
E084
013C
0208
ENDCHAR
STARTCHAR uni52AC
ENCODING 21164
SWIDTH 500 0
DWIDTH 6 0
BBX 15 15 0 -1
BITMAP
2020
2020
2020
3E24
42FE
8224
7A24
4A24
4A24
4A24
7A44
4A44
0284
1CBC
0908
ENDCHAR
STARTCHAR uni52AD
ENCODING 21165
SWIDTH 500 0
DWIDTH 6 0
BBX 15 15 0 -1
BITMAP
0220
FF20
2220
2222
22FE
2222
4E22
8422
4222
7F22
4222
4222
4242
7E8E
4304
ENDCHAR
STARTCHAR uni52AE
ENCODING 21166
SWIDTH 500 0
DWIDTH 6 0
BBX 15 15 0 -1
BITMAP
0820
4820
4A20
7F24
88FE
0824
0924
FFA4
0824
0824
1444
1244
2184
40BC
8108
ENDCHAR
STARTCHAR uni52B1
ENCODING 21169
SWIDTH 500 0
DWIDTH 6 0
BBX 15 15 0 -1
BITMAP
4120
7FA0
4020
4024
7FFE
4824
4824
4F24
4924
4924
4924
4944
5144
A7BC
C208
ENDCHAR
STARTCHAR uni52B2
ENCODING 21170
SWIDTH 500 0
DWIDTH 6 0
BBX 15 15 0 -1
BITMAP
0420
FE20
0420
0824
18FE
2424
4224
8124
FE24
1024
1044
1044
1E84
E0BC
0108
ENDCHAR
STARTCHAR uni52B3
ENCODING 21171
SWIDTH 500 0
DWIDTH 6 0
BBX 14 15 0 -1
BITMAP
0840
0848
FFFC
0840
4004
7FFC
4008
8208
0210
7FF8
0410
0410
0810
10F0
6020
ENDCHAR
STARTCHAR uni52BB
ENCODING 21179
SWIDTH 500 0
DWIDTH 6 0
BBX 15 15 0 -1
BITMAP
0020
8220
FF20
8024
BFFE
8824
8824
BF24
8824
8A24
BF44
8044
FF84
80BC
0108
ENDCHAR
STARTCHAR uni52BC
ENCODING 21180
SWIDTH 500 0
DWIDTH 6 0
BBX 15 15 0 -1
BITMAP
0820
0820
0920
FFA4
087E
0824
7F24
0024
7E24
4224
4244
4244
7E84
42BC
0108
ENDCHAR
STARTCHAR uni52BE
ENCODING 21182
SWIDTH 500 0
DWIDTH 6 0
BBX 15 15 0 -1
BITMAP
2020
1020
1220
FF24
10FE
2224
4224
7C24
0924
1224
2424
4A44
1144
20BC
4108
ENDCHAR
STARTCHAR uni52BF
ENCODING 21183
SWIDTH 500 0
DWIDTH 6 0
BBX 14 15 0 -1
BITMAP
1080
1090
FFF8
1090
1990
F090
1154
762C
2204
0208
7FFC
0208
0408
1878
6010
ENDCHAR
STARTCHAR uni52C0
ENCODING 21184
SWIDTH 500 0
DWIDTH 6 0
BBX 15 15 0 -1
BITMAP
0820
0920
FFA0
0824
08FE
7F24
4124
4124
7F24
5524
1444
1544
2684
44BC
8108
ENDCHAR
STARTCHAR uni52C1
ENCODING 21185
SWIDTH 500 0
DWIDTH 6 0
BBX 15 15 0 -1
BITMAP
0220
FF20
4920
4924
92FE
9224
4924
4924
0024
FF24
0844
0844
0884
0FBC
F108
ENDCHAR
STARTCHAR uni52C2
ENCODING 21186
SWIDTH 500 0
DWIDTH 6 0
BBX 15 15 0 -1
BITMAP
0820
4820
4A20
7F24
88FE
0924
FFA4
0024
7E24
4224
4244
4244
7E84
42BC
0108
ENDCHAR
STARTCHAR uni52C3
ENCODING 21187
SWIDTH 500 0
DWIDTH 6 0
BBX 15 15 0 -1
BITMAP
0820
0A20
7F20
0824
7FFE
4124
8024
7F24
0424
0824
0F44
7844
0884
38BC
0908
ENDCHAR
STARTCHAR uni52C7
ENCODING 21191
SWIDTH 500 0
DWIDTH 6 0
BBX 13 15 0 -1
BITMAP
7FE0
0880
4510
7FF8
4210
7FF0
4210
7FF0
4210
0410
FFF8
0410
0810
10F0
E020
ENDCHAR
STARTCHAR uni52C9
ENCODING 21193
SWIDTH 500 0
DWIDTH 6 0
BBX 15 15 0 -1
BITMAP
2020
2220
3F20
2224
44FE
FF24
4924
4924
7F24
4944
0844
1884
291A
4802
87FE
ENDCHAR
STARTCHAR uni52CB
ENCODING 21195
SWIDTH 500 0
DWIDTH 6 0
BBX 15 15 0 -1
BITMAP
4220
7F20
4220
7E24
42FE
0024
7F24
4924
4924
4924
4944
4944
5484
22BC
C108
ENDCHAR
STARTCHAR uni52CD
ENCODING 21197
SWIDTH 500 0
DWIDTH 6 0
BBX 15 15 0 -1
BITMAP
1020
0820
0920
FFA4
007E
7F24
4124
4124
7F24
0824
2A44
2944
4884
B8BC
0908
ENDCHAR
STARTCHAR uni52D0
ENCODING 21200
SWIDTH 500 0
DWIDTH 6 0
BBX 15 15 0 -1
BITMAP
0220
7F20
0420
0824
FFFE
0824
2824
1024
4124
7FA4
5524
5524
5544
FFBC
0088
ENDCHAR
STARTCHAR uni52D2
ENCODING 21202
SWIDTH 500 0
DWIDTH 6 0
BBX 15 15 0 -1
BITMAP
2220
2220
FFA0
2224
3EFE
0824
7F24
4924
4924
7F24
0844
FF44
0884
08BC
0908
ENDCHAR
STARTCHAR uni52D3
ENCODING 21203
SWIDTH 500 0
DWIDTH 6 0
BBX 15 15 0 -1
BITMAP
8820
8920
EE20
8824
A8FE
C8A4
97A4
2024
FE24
8224
8244
FE44
8284
FEBC
8308
ENDCHAR
STARTCHAR uni52D5
ENCODING 21205
SWIDTH 500 0
DWIDTH 6 0
BBX 15 15 0 -1
BITMAP
0720
F820
0A20
FF24
08FE
7F24
4924
7F24
4924
7F24
0824
7F44
0844
FFBC
4108
ENDCHAR
STARTCHAR uni52D6
ENCODING 21206
SWIDTH 500 0
DWIDTH 6 0
BBX 15 15 0 -1
BITMAP
8120
FFA0
8120
BD24
81FE
BD24
0024
7E24
4224
7E24
4244
7E44
4284
7EBC
4308
ENDCHAR
STARTCHAR uni52D7
ENCODING 21207
SWIDTH 500 0
DWIDTH 6 0
BBX 14 15 0 -1
BITMAP
3FF0
2010
3FF0
2010
3FF0
2010
7C40
4448
45FC
7C48
4448
7C48
4488
5F38
E210
ENDCHAR
STARTCHAR uni52D8
ENCODING 21208
SWIDTH 500 0
DWIDTH 6 0
BBX 15 15 0 -1
BITMAP
2220
2220
FFA0
2224
3EFE
2224
2224
3E24
2224
FFA4
4A44
5144
4084
7FBC
0108
ENDCHAR
STARTCHAR uni52D9
ENCODING 21209
SWIDTH 500 0
DWIDTH 6 0
BBX 15 15 0 -1
BITMAP
0240
7F44
047E
28C4
1028
0910
FF28
0AC6
1824
2BFE
4844
8844
0844
789C
1308
ENDCHAR
STARTCHAR uni52DB
ENCODING 21211
SWIDTH 500 0
DWIDTH 6 0
BBX 15 15 0 -1
BITMAP
2120
3FA0
2120
3F24
00FE
7F24
4124
7F24
4124
7F24
4144
7F44
28A4
449C
8308
ENDCHAR
STARTCHAR uni52DD
ENCODING 21213
SWIDTH 500 0
DWIDTH 6 0
BBX 15 15 0 -1
BITMAP
4924
7D24
48A8
4BFE
4840
7844
4FFE
4908
7A46
4DFA
4848
4848
4888
9938
8A10
ENDCHAR
STARTCHAR uni52DE
ENCODING 21214
SWIDTH 500 0
DWIDTH 6 0
BBX 14 15 0 -1
BITMAP
0820
2AA8
2CB0
4920
1450
2288
7FFC
4004
8208
7FF0
0210
0410
0910
10E0
6040
ENDCHAR
STARTCHAR uni52DF
ENCODING 21215
SWIDTH 500 0
DWIDTH 6 0
BBX 15 15 0 -1
BITMAP
0440
7FFE
0440
0000
1FF0
1010
1FF0
1010
7FFE
1008
2214
DFFA
0210
0C90
F060
ENDCHAR
STARTCHAR uni52E2
ENCODING 21218
SWIDTH 500 0
DWIDTH 6 0
BBX 15 15 0 -1
BITMAP
0840
7E40
0848
FFFC
2248
49C8
BE68
089A
7F06
010A
3FFC
0108
0208
0478
7810
ENDCHAR
STARTCHAR uni52E3
ENCODING 21219
SWIDTH 500 0
DWIDTH 6 0
BBX 15 15 0 -1
BITMAP
0820
FFA0
0820
7F24
08FE
FFA4
0024
7F24
4124
7F24
4124
7F44
4184
7F3C
C188
ENDCHAR
STARTCHAR uni52E4
ENCODING 21220
SWIDTH 500 0
DWIDTH 6 0
BBX 15 15 0 -1
BITMAP
2220
FFA0
2220
3E24
08FE
7F24
4924
7F24
0824
FFA4
0844
7F44
08A4
0F9C
F108
ENDCHAR
STARTCHAR uni52E6
ENCODING 21222
SWIDTH 500 0
DWIDTH 6 0
BBX 15 15 0 -1
BITMAP
4920
9220
9220
4924
00FE
7F24
4924
7F24
4924
7F24
0844
FF44
2A84
49BC
8908
ENDCHAR
STARTCHAR uni52E9
ENCODING 21225
SWIDTH 500 0
DWIDTH 6 0
BBX 15 15 0 -1
BITMAP
5220
FFA0
5220
5E24
40FE
7F24
0024
7F24
4124
7F24
4124
7F24
4144
7F5C
C188
ENDCHAR
STARTCHAR uni52EB
ENCODING 21227
SWIDTH 500 0
DWIDTH 6 0
BBX 15 15 0 -1
BITMAP
0220
0720
F920
4A24
2AFE
FF24
2A24
4924
FFA4
4924
4924
7F24
4944
7F5C
4188
ENDCHAR
STARTCHAR uni52EF
ENCODING 21231
SWIDTH 500 0
DWIDTH 6 0
BBX 15 15 0 -1
BITMAP
0810
FF90
5510
5D12
417E
7F12
0012
3E12
2212
3E12
2222
3E22
2242
07DE
7884
ENDCHAR
STARTCHAR uni52F0
ENCODING 21232
SWIDTH 500 0
DWIDTH 6 0
BBX 15 15 0 -1
BITMAP
10FE
1292
FF92
12FE
1292
2A92
C4FE
4482
4410
FF08
5524
5562
55A2
9524
AA1C
ENDCHAR
STARTCHAR uni52F1
ENCODING 21233
SWIDTH 500 0
DWIDTH 6 0
BBX 15 15 0 -1
BITMAP
2210
FF90
2210
0012
7F7E
4912
7F12
4912
7F12
0812
FF92
8A92
8BA2
BCAE
81C4
ENDCHAR
STARTCHAR uni52F3
ENCODING 21235
SWIDTH 500 0
DWIDTH 6 0
BBX 15 15 0 -1
BITMAP
0710
7C10
0910
FF92
087E
FF92
AA92
9492
FF92
0812
FFA2
0822
FFC2
555E
9284
ENDCHAR
STARTCHAR uni52F4
ENCODING 21236
SWIDTH 500 0
DWIDTH 6 0
BBX 15 15 0 -1
BITMAP
0910
0F90
4810
7F92
497E
7F12
4892
5F92
5492
5F92
5492
5FA2
4AA2
595E
AF44
ENDCHAR
STARTCHAR uni52F5
ENCODING 21237
SWIDTH 500 0
DWIDTH 6 0
BBX 15 15 0 -1
BITMAP
7FD0
4910
7FD0
4912
5FFE
5252
5FD2
5252
5FD2
4212
5FD2
5252
53D2
9C6E
90C4
ENDCHAR
STARTCHAR uni52F7
ENCODING 21239
SWIDTH 500 0
DWIDTH 6 0
BBX 15 15 0 -1
BITMAP
0810
FF90
9490
F792
227E
FF92
2212
7F12
2212
FF92
08A2
3522
E242
295E
3084
ENDCHAR
STARTCHAR uni52F8
ENCODING 21240
SWIDTH 500 0
DWIDTH 6 0
BBX 15 15 0 -1
BITMAP
2210
FFD0
2210
F792
94FE
F792
2812
2512
7F92
C412
7FA2
4422
7FD2
444E
7F84
ENDCHAR
STARTCHAR uni52F9
ENCODING 21241
SWIDTH 500 0
DWIDTH 6 0
BBX 14 15 0 -1
BITMAP
2000
2000
2008
3FFC
2008
4008
8008
0008
0008
0008
0008
0008
0088
0070
0020
ENDCHAR
STARTCHAR uni52FA
ENCODING 21242
SWIDTH 500 0
DWIDTH 6 0
BBX 14 15 0 -1
BITMAP
2000
2000
2008
3FFC
2008
4008
8808
0608
0308
0108
0108
0008
0008
00F0
0020
ENDCHAR
STARTCHAR uni52FB
ENCODING 21243
SWIDTH 500 0
DWIDTH 6 0
BBX 14 15 0 -1
BITMAP
2000
2000
2008
3FFC
2008
4808
8408
0208
00C8
0308
0C08
3008
0008
00F0
0020
ENDCHAR
STARTCHAR uni52FC
ENCODING 21244
SWIDTH 500 0
DWIDTH 6 0
BBX 14 15 0 -1
BITMAP
2000
2000
2008
3FFC
2808
4908
BF88
0908
0908
0928
1128
10E8
2008
40F0
8020
ENDCHAR
STARTCHAR uni52FE
ENCODING 21246
SWIDTH 500 0
DWIDTH 6 0
BBX 14 15 0 -1
BITMAP
2000
2000
2008
3FFC
2008
4608
8408
0808
0908
1088
27C8
7848
2008
00F0
0020
ENDCHAR
STARTCHAR uni52FF
ENCODING 21247
SWIDTH 500 0
DWIDTH 6 0
BBX 14 15 0 -1
BITMAP
2000
2000
2008
3FFC
2488
4488
8488
0488
0888
0908
3108
C208
0488
1870
6020
ENDCHAR
STARTCHAR uni5300
ENCODING 21248
SWIDTH 500 0
DWIDTH 6 0
BBX 14 15 0 -1
BITMAP
2000
2000
2008
3FFC
2008
4808
8408
0208
0008
00C8
0308
0C08
3008
00F0
0020
ENDCHAR
STARTCHAR uni5305
ENCODING 21253
SWIDTH 500 0
DWIDTH 6 0
BBX 15 15 0 -1
BITMAP
0800
0800
1010
1FF8
2010
5110
9F90
1110
1110
1F10
1110
1064
1004
1006
0FFC
ENDCHAR
STARTCHAR uni5306
ENCODING 21254
SWIDTH 500 0
DWIDTH 6 0
BBX 14 15 0 -1
BITMAP
2000
2000
2008
3FFC
2488
4488
9488
0C88
0A88
0988
3148
C248
0408
18F0
6020
ENDCHAR
STARTCHAR uni5308
ENCODING 21256
SWIDTH 500 0
DWIDTH 6 0
BBX 14 15 0 -1
BITMAP
2000
2000
2008
3FFC
2108
5108
AA48
2448
2648
2948
2148
3FC8
2048
00F0
0020
ENDCHAR
STARTCHAR uni5309
ENCODING 21257
SWIDTH 500 0
DWIDTH 6 0
BBX 14 15 0 -1
BITMAP
2000
2008
3FFC
4008
8048
3FE8
2248
1288
12A8
FFF8
0208
0208
0208
02F0
0220
ENDCHAR
STARTCHAR uni530A
ENCODING 21258
SWIDTH 500 0
DWIDTH 6 0
BBX 14 15 0 -1
BITMAP
2000
2008
3FFC
4008
A268
1248
0A88
0228
FFF8
0208
0A88
1268
2228
4208
0270
ENDCHAR
STARTCHAR uni530B
ENCODING 21259
SWIDTH 500 0
DWIDTH 6 0
BBX 14 15 0 -1
BITMAP
2000
2008
3FFC
4008
9088
1FC8
2208
0228
FFF8
0208
2248
2248
3FC8
2048
0030
ENDCHAR
STARTCHAR uni530D
ENCODING 21261
SWIDTH 500 0
DWIDTH 6 0
BBX 14 15 0 -1
BITMAP
2000
2008
3FFC
4288
8248
3FF8
0208
3FE8
2228
3FE8
2228
3FE8
2228
22A8
2250
ENDCHAR
STARTCHAR uni530E
ENCODING 21262
SWIDTH 500 0
DWIDTH 6 0
BBX 14 15 0 -1
BITMAP
2000
2008
3FFC
4448
BFE8
1088
2448
7FE8
A458
3FC8
2448
3FC8
0428
03E8
0030
ENDCHAR
STARTCHAR uni530F
ENCODING 21263
SWIDTH 500 0
DWIDTH 6 0
BBX 15 15 0 -1
BITMAP
1040
1242
FF7E
1042
2C82
C37A
3C4A
024A
FF4A
207A
7E42
024C
0242
1E42
043E
ENDCHAR
STARTCHAR uni5310
ENCODING 21264
SWIDTH 500 0
DWIDTH 6 0
BBX 14 15 0 -1
BITMAP
2008
3FFC
4008
BFE8
0008
3F88
2088
3F88
0008
7FC8
4448
7FC8
4448
7FD0
0060
ENDCHAR
STARTCHAR uni5311
ENCODING 21265
SWIDTH 500 0
DWIDTH 6 0
BBX 15 15 0 -1
BITMAP
2000
2004
3FFE
4804
BEF4
1214
1EF4
1294
1E84
13F4
7E14
0A14
1294
6A64
0418
ENDCHAR
STARTCHAR uni5312
ENCODING 21266
SWIDTH 500 0
DWIDTH 6 0
BBX 14 15 0 -1
BITMAP
2000
2008
3FFC
4888
BFF8
0888
0708
0888
7778
0008
1FC8
1048
1048
1FC8
0030
ENDCHAR
STARTCHAR uni5315
ENCODING 21269
SWIDTH 500 0
DWIDTH 6 0
BBX 15 15 0 -1
BITMAP
0800
0C00
0800
0810
0820
0840
0980
0A00
0C00
3800
C800
0804
0804
0806
07FC
ENDCHAR
STARTCHAR uni5316
ENCODING 21270
SWIDTH 500 0
DWIDTH 6 0
BBX 15 15 0 -1
BITMAP
1100
1100
1100
1118
2110
2120
2140
6180
A100
2300
2D00
2104
2104
2106
20FC
ENDCHAR
STARTCHAR uni5317
ENCODING 21271
SWIDTH 500 0
DWIDTH 6 0
BBX 15 15 0 -1
BITMAP
0880
0880
0880
088C
0888
F890
08E0
0880
0880
0880
0880
1884
E884
4886
087C
ENDCHAR
STARTCHAR uni5319
ENCODING 21273
SWIDTH 500 0
DWIDTH 6 0
BBX 15 15 0 -1
BITMAP
4240
7F40
424C
7E48
4250
7E60
4240
0040
FF44
0844
4F46
483C
6800
5C00
87FE
ENDCHAR
STARTCHAR uni531A
ENCODING 21274
SWIDTH 500 0
DWIDTH 6 0
BBX 12 14 0 -1
BITMAP
8020
FFF0
8000
8000
8000
8000
8000
8000
8000
8000
8000
8020
FFF0
8000
ENDCHAR
STARTCHAR uni531C
ENCODING 21276
SWIDTH 500 0
DWIDTH 6 0
BBX 14 15 0 -1
BITMAP
8008
FFFC
8000
8100
8920
89E0
8F20
B920
8920
8940
8810
8810
87F0
8008
FFFC
ENDCHAR
STARTCHAR uni531D
ENCODING 21277
SWIDTH 500 0
DWIDTH 6 0
BBX 14 15 0 -1
BITMAP
8008
FFFC
8000
8100
9110
9FF8
9110
9110
9110
9110
9170
9110
8100
8008
FFFC
ENDCHAR
STARTCHAR uni531F
ENCODING 21279
SWIDTH 500 0
DWIDTH 6 0
BBX 14 15 0 -1
BITMAP
8008
FFFC
8200
8110
BFF8
8000
87C0
8440
8440
8440
8448
8848
9038
8008
FFFC
ENDCHAR
STARTCHAR uni5320
ENCODING 21280
SWIDTH 500 0
DWIDTH 6 0
BBX 14 15 0 -1
BITMAP
8008
FFFC
8020
8870
8F80
8800
8808
8FFC
8840
8840
8840
9040
A040
8008
FFFC
ENDCHAR
STARTCHAR uni5321
ENCODING 21281
SWIDTH 500 0
DWIDTH 6 0
BBX 14 15 0 -1
BITMAP
8008
FFFC
8000
8010
9FF8
8100
8120
8FF0
8100
8100
8110
9FF8
8000
8008
FFFC
ENDCHAR
STARTCHAR uni5322
ENCODING 21282
SWIDTH 500 0
DWIDTH 6 0
BBX 14 15 0 -1
BITMAP
8008
FFFC
8800
8810
8FF8
9290
A290
8490
8490
9910
8210
84E0
9840
8008
FFFC
ENDCHAR
STARTCHAR uni5323
ENCODING 21283
SWIDTH 500 0
DWIDTH 6 0
BBX 14 15 0 -1
BITMAP
8008
FFFC
8000
9010
9FF8
9110
9FF0
9110
9FF0
9110
8100
8100
8100
8008
FFFC
ENDCHAR
STARTCHAR uni5326
ENCODING 21286
SWIDTH 500 0
DWIDTH 6 0
BBX 14 15 0 -1
BITMAP
8008
FFFC
8800
8840
BE50
91F8
A450
FF50
8450
8750
BC94
8494
850C
8008
FFFC
ENDCHAR
STARTCHAR uni532A
ENCODING 21290
SWIDTH 500 0
DWIDTH 6 0
BBX 14 15 0 -1
BITMAP
8008
FFFC
8000
8248
BE7C
8240
8250
9E78
8240
8248
BE7C
8240
8240
8008
FFFC
ENDCHAR
STARTCHAR uni532D
ENCODING 21293
SWIDTH 500 0
DWIDTH 6 0
BBX 14 15 0 -1
BITMAP
8008
FFFC
8840
FF40
8850
BEF8
AA50
BE50
AA50
BE50
8854
FF94
888C
8908
FFFC
ENDCHAR
STARTCHAR uni532E
ENCODING 21294
SWIDTH 500 0
DWIDTH 6 0
BBX 14 15 0 -1
BITMAP
FFFC
8100
9FF0
9110
9FF0
8100
BFF8
8000
9FF0
9110
9110
9390
8440
8828
FFFC
ENDCHAR
STARTCHAR uni532F
ENCODING 21295
SWIDTH 500 0
DWIDTH 6 0
BBX 14 15 0 -1
BITMAP
8008
FFFC
8280
9250
8BF8
A240
9240
8FF8
8A40
B3F8
9240
9250
93F8
8008
FFFC
ENDCHAR
STARTCHAR uni5330
ENCODING 21296
SWIDTH 500 0
DWIDTH 6 0
BBX 14 15 0 -1
BITMAP
FFFC
8000
9EF0
9290
9EF0
8000
9FF0
9110
9FF0
9110
9FF0
8100
BFF8
8100
FFFC
ENDCHAR
STARTCHAR uni5331
ENCODING 21297
SWIDTH 500 0
DWIDTH 6 0
BBX 14 15 0 -1
BITMAP
FFFC
8100
9FF0
9110
9FF0
8100
FFFC
9010
9FF0
9010
9FF0
9010
9FF0
A008
FFFC
ENDCHAR
STARTCHAR uni5334
ENCODING 21300
SWIDTH 500 0
DWIDTH 6 0
BBX 14 15 0 -1
BITMAP
FFFC
9040
9E78
A8A0
8410
9FF0
9010
9FF0
9010
9FF0
8440
BFF8
8840
9048
FFFC
ENDCHAR
STARTCHAR uni5337
ENCODING 21303
SWIDTH 500 0
DWIDTH 6 0
BBX 14 15 0 -1
BITMAP
FFFC
A288
BEF8
A288
BEF8
A288
BEF8
9100
9FF8
B100
DFF0
9100
9FF8
9000
FFFC
ENDCHAR
STARTCHAR uni5338
ENCODING 21304
SWIDTH 500 0
DWIDTH 6 0
BBX 13 13 0 -1
BITMAP
FFF8
4000
4000
4000
4000
4000
4000
4000
4000
4000
4000
4010
7FF8
ENDCHAR
STARTCHAR uni5339
ENCODING 21305
SWIDTH 500 0
DWIDTH 6 0
BBX 14 13 0 0
BITMAP
0008
FFFC
4480
4480
4480
4480
4480
4888
4888
5078
6000
4008
7FFC
ENDCHAR
STARTCHAR uni533A
ENCODING 21306
SWIDTH 500 0
DWIDTH 6 0
BBX 14 15 0 -1
BITMAP
8008
FFFC
8000
8030
8820
8440
8280
8100
8180
8240
8420
8820
9000
8008
FFFC
ENDCHAR
STARTCHAR uni533B
ENCODING 21307
SWIDTH 500 0
DWIDTH 6 0
BBX 14 15 0 -1
BITMAP
8008
FFFC
8800
8820
8FF0
9100
A100
8110
BFF8
8100
8280
8460
9820
8008
FFFC
ENDCHAR
STARTCHAR uni533C
ENCODING 21308
SWIDTH 500 0
DWIDTH 6 0
BBX 14 15 0 -1
BITMAP
8008
FFFC
8100
8280
8440
8820
97D8
A008
8FE0
8820
8820
8820
8FE0
8828
FFFC
ENDCHAR
STARTCHAR uni533D
ENCODING 21309
SWIDTH 500 0
DWIDTH 6 0
BBX 14 15 0 -1
BITMAP
FFFC
8000
8FE0
8820
8FE0
8820
8FE0
8100
BFF8
8240
8C40
8380
8640
8820
FFFC
ENDCHAR
STARTCHAR uni533E
ENCODING 21310
SWIDTH 500 0
DWIDTH 6 0
BBX 14 15 0 -1
BITMAP
8008
FFFC
8200
9110
9FF8
9010
9FF0
9000
97F0
9550
97F0
A550
C530
8008
FFFC
ENDCHAR
STARTCHAR uni533F
ENCODING 21311
SWIDTH 500 0
DWIDTH 6 0
BBX 14 15 0 -1
BITMAP
8008
FFFC
8440
8440
BFF8
8540
8208
BFFC
8400
8FF0
9410
A410
87F0
8410
FFFC
ENDCHAR
STARTCHAR uni5340
ENCODING 21312
SWIDTH 500 0
DWIDTH 6 0
BBX 14 15 0 -1
BITMAP
8008
FFFC
8000
8FE0
8820
8820
8FE0
8000
BEF8
A288
A288
BEF8
A288
8000
FFFC
ENDCHAR
STARTCHAR uni5341
ENCODING 21313
SWIDTH 500 0
DWIDTH 6 0
BBX 14 15 0 -1
BITMAP
0200
0200
0200
0200
0200
0208
FFFC
0200
0200
0200
0200
0200
0200
0200
0200
ENDCHAR
STARTCHAR uni5343
ENCODING 21315
SWIDTH 500 0
DWIDTH 6 0
BBX 14 15 0 -1
BITMAP
0020
00F0
7F00
0200
0200
0200
0208
FFFC
0200
0200
0200
0200
0200
0200
0200
ENDCHAR
STARTCHAR uni5344
ENCODING 21316
SWIDTH 500 0
DWIDTH 6 0
BBX 14 15 0 -1
BITMAP
1040
1860
1040
1040
1040
1048
FFFC
1040
1040
1040
1040
1040
1040
1040
1040
ENDCHAR
STARTCHAR uni5345
ENCODING 21317
SWIDTH 500 0
DWIDTH 6 0
BBX 15 15 0 -1
BITMAP
2008
310C
2188
2108
2108
2108
FFFE
2108
2108
2108
2108
2108
4108
4108
8008
ENDCHAR
STARTCHAR uni5347
ENCODING 21319
SWIDTH 500 0
DWIDTH 6 0
BBX 14 15 0 -1
BITMAP
0440
0E40
F840
0840
0840
0840
0848
FFFC
0840
0840
0840
1040
1040
2040
C040
ENDCHAR
STARTCHAR uni5348
ENCODING 21320
SWIDTH 500 0
DWIDTH 6 0
BBX 14 15 0 -1
BITMAP
1000
1000
1010
1FF8
2100
4100
0100
0108
FFFC
0100
0100
0100
0100
0100
0100
ENDCHAR
STARTCHAR uni5349
ENCODING 21321
SWIDTH 500 0
DWIDTH 6 0
BBX 14 15 0 -1
BITMAP
0100
0100
0108
7FFC
0100
0920
0920
0828
FFFC
0820
0820
1020
1020
2020
4020
ENDCHAR
STARTCHAR uni534A
ENCODING 21322
SWIDTH 500 0
DWIDTH 6 0
BBX 14 15 0 -1
BITMAP
0200
4210
2210
1220
1240
0210
7FF8
0200
0200
0208
FFFC
0200
0200
0200
0200
ENDCHAR
STARTCHAR uni534C
ENCODING 21324
SWIDTH 500 0
DWIDTH 6 0
BBX 14 15 0 -1
BITMAP
2010
2490
2490
2490
2490
2490
FFFC
2490
2490
2490
2490
2490
4490
4490
8010
ENDCHAR
STARTCHAR uni534D
ENCODING 21325
SWIDTH 500 0
DWIDTH 6 0
BBX 13 15 0 -1
BITMAP
0200
FF10
0210
0210
0210
0210
8210
FFF0
8210
8200
8200
8200
8200
8210
07F8
ENDCHAR
STARTCHAR uni534E
ENCODING 21326
SWIDTH 500 0
DWIDTH 6 0
BBX 14 15 0 -1
BITMAP
0900
0930
1120
3140
5180
9708
1108
10F8
0200
0208
FFFC
0200
0200
0200
0200
ENDCHAR
STARTCHAR uni534F
ENCODING 21327
SWIDTH 500 0
DWIDTH 6 0
BBX 15 15 0 -1
BITMAP
2040
2040
2040
2048
FBFC
2048
2048
224C
224A
248A
2088
2108
2108
2270
2420
ENDCHAR
STARTCHAR uni5351
ENCODING 21329
SWIDTH 500 0
DWIDTH 6 0
BBX 14 15 0 -1
BITMAP
0200
4410
7FF8
4110
4110
7FF0
4210
7FF0
4510
0900
1108
FFFC
0100
0100
0100
ENDCHAR
STARTCHAR uni5352
ENCODING 21330
SWIDTH 500 0
DWIDTH 6 0
BBX 14 15 0 -1
BITMAP
0400
0210
7FF8
1040
1040
10C0
2920
4610
8200
0208
FFFC
0200
0200
0200
0200
ENDCHAR
STARTCHAR uni5353
ENCODING 21331
SWIDTH 500 0
DWIDTH 6 0
BBX 14 15 0 -1
BITMAP
0200
0210
03F8
0200
3FE0
2020
3FE0
2020
3FE0
2220
0208
FFFC
0200
0200
0200
ENDCHAR
STARTCHAR uni5354
ENCODING 21332
SWIDTH 500 0
DWIDTH 6 0
BBX 15 15 0 -1
BITMAP
2040
2044
23FE
2044
FC44
209C
2108
2610
2292
2FFE
2292
2292
2292
24AE
2944
ENDCHAR
STARTCHAR uni5355
ENCODING 21333
SWIDTH 500 0
DWIDTH 6 0
BBX 14 15 0 -1
BITMAP
1040
0880
4490
7FF8
4210
4210
7FF0
4210
7FF0
4210
0208
FFFC
0200
0200
0200
ENDCHAR
STARTCHAR uni5356
ENCODING 21334
SWIDTH 500 0
DWIDTH 6 0
BBX 14 15 0 -1
BITMAP
0200
0210
3FF8
0200
FFFC
0808
0490
2480
1080
1088
FFFC
0100
02C0
0430
780C
ENDCHAR
STARTCHAR uni5357
ENCODING 21335
SWIDTH 500 0
DWIDTH 6 0
BBX 14 15 0 -1
BITMAP
0100
0108
FFFC
0100
4108
7FFC
4848
4488
4508
5FE8
4208
5FE8
4208
4238
4210
ENDCHAR
STARTCHAR uni535A
ENCODING 21338
SWIDTH 500 0
DWIDTH 6 0
BBX 15 15 0 -1
BITMAP
2050
2048
2FFE
2040
27FC
FC44
27FC
2444
27FC
2408
2FFE
2108
2088
20B8
2008
ENDCHAR
STARTCHAR uni535C
ENCODING 21340
SWIDTH 500 0
DWIDTH 6 0
BBX 7 15 0 -1
BITMAP
80
80
80
80
80
E0
90
8C
86
82
80
80
80
80
80
ENDCHAR
STARTCHAR uni535E
ENCODING 21342
SWIDTH 500 0
DWIDTH 6 0
BBX 14 15 0 -1
BITMAP
0400
0300
0100
0008
FFFC
0200
0200
0380
0260
0230
0210
0200
0200
0200
0200
ENDCHAR
STARTCHAR uni535F
ENCODING 21343
SWIDTH 500 0
DWIDTH 6 0
BBX 14 15 0 -1
BITMAP
0080
0080
8880
FC80
8880
8880
88E0
8898
888C
8884
F880
8880
0080
0080
0080
ENDCHAR
STARTCHAR uni5360
ENCODING 21344
SWIDTH 500 0
DWIDTH 6 0
BBX 13 15 0 -1
BITMAP
0400
0400
0400
0410
07F8
0400
0400
8420
FFF0
8020
8020
8020
8020
FFE0
8020
ENDCHAR
STARTCHAR uni5361
ENCODING 21345
SWIDTH 500 0
DWIDTH 6 0
BBX 14 15 0 -1
BITMAP
0200
0220
03F0
0200
0200
0208
FFFC
0200
0380
0260
0230
0210
0200
0200
0200
ENDCHAR
STARTCHAR uni5362
ENCODING 21346
SWIDTH 500 0
DWIDTH 6 0
BBX 14 15 0 -1
BITMAP
0200
0208
03FC
0200
2210
3FF8
2010
2010
3FF0
2010
2000
2000
2000
4000
8000
ENDCHAR
STARTCHAR uni5363
ENCODING 21347
SWIDTH 500 0
DWIDTH 6 0
BBX 13 15 0 -1
BITMAP
0400
0410
07F8
0400
FFF0
8010
8210
FF10
8210
8210
FE10
8210
8010
FFF0
8010
ENDCHAR
STARTCHAR uni5364
ENCODING 21348
SWIDTH 500 0
DWIDTH 6 0
BBX 13 15 0 -1
BITMAP
0400
0420
07F0
0400
8410
FFF8
8090
9110
8A10
8610
8910
9090
A090
FFF0
8010
ENDCHAR
STARTCHAR uni5366
ENCODING 21350
SWIDTH 500 0
DWIDTH 6 0
BBX 14 15 0 -1
BITMAP
1040
1040
1240
FF40
1060
1058
FF4C
1044
1240
FF40
1040
1040
1F40
E040
4040
ENDCHAR
STARTCHAR uni5367
ENCODING 21351
SWIDTH 500 0
DWIDTH 6 0
BBX 14 15 0 -1
BITMAP
8240
FF40
9040
9040
9240
FF60
8258
824C
8244
FE40
9240
9040
9240
FF40
8040
ENDCHAR
STARTCHAR uni5369
ENCODING 21353
SWIDTH 500 0
DWIDTH 6 0
BBX 7 15 0 -1
BITMAP
84
FE
84
84
84
84
84
84
84
9C
88
80
80
80
80
ENDCHAR
STARTCHAR uni536B
ENCODING 21355
SWIDTH 500 0
DWIDTH 6 0
BBX 14 13 0 0
BITMAP
0010
7FF8
0410
0410
0410
0410
0410
0410
0470
0420
0400
0408
FFFC
ENDCHAR
STARTCHAR uni536C
ENCODING 21356
SWIDTH 500 0
DWIDTH 6 0
BBX 15 15 0 -1
BITMAP
0200
2784
38FE
2084
2084
2084
2084
2084
2084
2684
2884
F09C
4088
0080
0080
ENDCHAR
STARTCHAR uni536E
ENCODING 21358
SWIDTH 500 0
DWIDTH 6 0
BBX 15 15 0 -1
BITMAP
101C
1FE0
1000
1004
1FFE
1000
1210
13F8
1210
1210
1210
2262
2204
4204
81FE
ENDCHAR
STARTCHAR uni536F
ENCODING 21359
SWIDTH 500 0
DWIDTH 6 0
BBX 13 15 0 -1
BITMAP
0400
8D10
F1F8
8110
8910
8910
8910
8910
9910
E910
C910
8970
1120
2100
C100
ENDCHAR
STARTCHAR uni5370
ENCODING 21360
SWIDTH 500 0
DWIDTH 6 0
BBX 14 15 0 -1
BITMAP
0800
9D08
E1FC
8108
8108
8908
FD08
8108
8108
8108
9D08
E178
8110
0100
0100
ENDCHAR
STARTCHAR uni5371
ENCODING 21361
SWIDTH 500 0
DWIDTH 6 0
BBX 14 15 0 -1
BITMAP
0800
0840
0FC0
1080
2108
7FFC
A000
27E0
2420
2420
2420
24C4
4408
4408
83FC
ENDCHAR
STARTCHAR uni5372
ENCODING 21362
SWIDTH 500 0
DWIDTH 6 0
BBX 15 15 0 -1
BITMAP
0244
FE7E
2244
2244
2244
4E44
8444
0044
4244
7F44
4244
425C
4248
7E40
4240
ENDCHAR
STARTCHAR uni5373
ENCODING 21363
SWIDTH 500 0
DWIDTH 6 0
BBX 13 15 0 -1
BITMAP
8910
FDF8
8910
8910
F910
8910
8910
F910
8910
8110
8970
9D20
E500
C100
8100
ENDCHAR
STARTCHAR uni5374
ENCODING 21364
SWIDTH 500 0
DWIDTH 6 0
BBX 15 15 0 -1
BITMAP
0800
0844
087E
7F44
0844
0844
0944
FFC4
0844
1044
1244
215C
7F48
2140
0040
ENDCHAR
STARTCHAR uni5375
ENCODING 21365
SWIDTH 500 0
DWIDTH 6 0
BBX 14 15 0 -1
BITMAP
0400
4E88
70FC
4488
6488
54A8
54A8
4498
4488
4C88
7488
44B8
0890
1080
E080
ENDCHAR
STARTCHAR uni5377
ENCODING 21367
SWIDTH 500 0
DWIDTH 6 0
BBX 14 15 0 -1
BITMAP
4230
3220
1240
0210
7FF8
0400
FFFC
0820
1FD0
304C
D040
11C8
1088
100C
0FF8
ENDCHAR
STARTCHAR uni5378
ENCODING 21368
SWIDTH 500 0
DWIDTH 6 0
BBX 15 15 0 -1
BITMAP
2000
2244
7F7E
8844
0844
0944
FFC4
0844
4844
4F44
4844
485C
4FC8
F040
0040
ENDCHAR
STARTCHAR uni5379
ENCODING 21369
SWIDTH 500 0
DWIDTH 6 0
BBX 15 15 0 -1
BITMAP
0800
0824
513E
7FA4
5524
5524
5524
5524
5524
5524
5524
552C
5FE8
F020
0020
ENDCHAR
STARTCHAR uni537A
ENCODING 21370
SWIDTH 500 0
DWIDTH 6 0
BBX 15 15 0 -1
BITMAP
0010
1FF8
0040
7DC8
0930
1110
2308
C016
3FF8
0000
1FE0
1024
10C8
1008
0FFC
ENDCHAR
ENDFONT
